%TF.GenerationSoftware,KiCad,Pcbnew,7.99.0-2389-gf842e6ac7a*%
%TF.CreationDate,2023-09-28T17:07:59+02:00*%
%TF.ProjectId,ESP32 PD Module,45535033-3220-4504-9420-4d6f64756c65,rev?*%
%TF.SameCoordinates,Original*%
%TF.FileFunction,Copper,L2,Bot*%
%TF.FilePolarity,Positive*%
%FSLAX46Y46*%
G04 Gerber Fmt 4.6, Leading zero omitted, Abs format (unit mm)*
G04 Created by KiCad (PCBNEW 7.99.0-2389-gf842e6ac7a) date 2023-09-28 17:07:59*
%MOMM*%
%LPD*%
G01*
G04 APERTURE LIST*
G04 Aperture macros list*
%AMFreePoly0*
4,1,19,0.550000,-0.750000,0.000000,-0.750000,0.000000,-0.744911,-0.071157,-0.744911,-0.207708,-0.704816,-0.327430,-0.627875,-0.420627,-0.520320,-0.479746,-0.390866,-0.500000,-0.250000,-0.500000,0.250000,-0.479746,0.390866,-0.420627,0.520320,-0.327430,0.627875,-0.207708,0.704816,-0.071157,0.744911,0.000000,0.744911,0.000000,0.750000,0.550000,0.750000,0.550000,-0.750000,0.550000,-0.750000,
$1*%
%AMFreePoly1*
4,1,19,0.000000,0.744911,0.071157,0.744911,0.207708,0.704816,0.327430,0.627875,0.420627,0.520320,0.479746,0.390866,0.500000,0.250000,0.500000,-0.250000,0.479746,-0.390866,0.420627,-0.520320,0.327430,-0.627875,0.207708,-0.704816,0.071157,-0.744911,0.000000,-0.744911,0.000000,-0.750000,-0.550000,-0.750000,-0.550000,0.750000,0.000000,0.750000,0.000000,0.744911,0.000000,0.744911,
$1*%
%AMFreePoly2*
4,1,19,0.500000,-0.750000,0.000000,-0.750000,0.000000,-0.744911,-0.071157,-0.744911,-0.207708,-0.704816,-0.327430,-0.627875,-0.420627,-0.520320,-0.479746,-0.390866,-0.500000,-0.250000,-0.500000,0.250000,-0.479746,0.390866,-0.420627,0.520320,-0.327430,0.627875,-0.207708,0.704816,-0.071157,0.744911,0.000000,0.744911,0.000000,0.750000,0.500000,0.750000,0.500000,-0.750000,0.500000,-0.750000,
$1*%
%AMFreePoly3*
4,1,19,0.000000,0.744911,0.071157,0.744911,0.207708,0.704816,0.327430,0.627875,0.420627,0.520320,0.479746,0.390866,0.500000,0.250000,0.500000,-0.250000,0.479746,-0.390866,0.420627,-0.520320,0.327430,-0.627875,0.207708,-0.704816,0.071157,-0.744911,0.000000,-0.744911,0.000000,-0.750000,-0.500000,-0.750000,-0.500000,0.750000,0.000000,0.750000,0.000000,0.744911,0.000000,0.744911,
$1*%
G04 Aperture macros list end*
%TA.AperFunction,ComponentPad*%
%ADD10R,1.700000X1.700000*%
%TD*%
%TA.AperFunction,ComponentPad*%
%ADD11O,1.700000X1.700000*%
%TD*%
%TA.AperFunction,ComponentPad*%
%ADD12O,1.200000X1.800000*%
%TD*%
%TA.AperFunction,ComponentPad*%
%ADD13O,1.200000X2.000000*%
%TD*%
%TA.AperFunction,ComponentPad*%
%ADD14C,0.750000*%
%TD*%
%TA.AperFunction,SMDPad,CuDef*%
%ADD15FreePoly0,180.000000*%
%TD*%
%TA.AperFunction,SMDPad,CuDef*%
%ADD16R,1.000000X1.500000*%
%TD*%
%TA.AperFunction,SMDPad,CuDef*%
%ADD17FreePoly1,180.000000*%
%TD*%
%TA.AperFunction,SMDPad,CuDef*%
%ADD18FreePoly2,0.000000*%
%TD*%
%TA.AperFunction,SMDPad,CuDef*%
%ADD19FreePoly3,0.000000*%
%TD*%
%TA.AperFunction,ViaPad*%
%ADD20C,0.500000*%
%TD*%
%TA.AperFunction,Conductor*%
%ADD21C,0.150000*%
%TD*%
%TA.AperFunction,Conductor*%
%ADD22C,0.400000*%
%TD*%
G04 APERTURE END LIST*
D10*
%TO.P,J1,1,Pin_1*%
%TO.N,GND*%
X48260000Y-50800000D03*
D11*
%TO.P,J1,2,Pin_2*%
%TO.N,+3V3*%
X48260000Y-53340000D03*
%TO.P,J1,3,Pin_3*%
%TO.N,/GPIO4*%
X48260000Y-55880000D03*
%TO.P,J1,4,Pin_4*%
%TO.N,/GPIO5*%
X48260000Y-58420000D03*
%TO.P,J1,5,Pin_5*%
%TO.N,/GPIO6*%
X48260000Y-60960000D03*
%TO.P,J1,6,Pin_6*%
%TO.N,/GPIO7*%
X48260000Y-63500000D03*
%TO.P,J1,7,Pin_7*%
%TO.N,/GPIO15*%
X48260000Y-66040000D03*
%TO.P,J1,8,Pin_8*%
%TO.N,/GPIO16*%
X48260000Y-68580000D03*
%TO.P,J1,9,Pin_9*%
%TO.N,/GPIO17*%
X48260000Y-71120000D03*
%TO.P,J1,10,Pin_10*%
%TO.N,/GPIO18*%
X48260000Y-73660000D03*
%TO.P,J1,11,Pin_11*%
%TO.N,+3V3*%
X48260000Y-76200000D03*
%TO.P,J1,12,Pin_12*%
%TO.N,GND*%
X48260000Y-78740000D03*
%TO.P,J1,13,Pin_13*%
%TO.N,/GPIO8*%
X48260000Y-81280000D03*
%TO.P,J1,14,Pin_14*%
%TO.N,/GPIO3*%
X48260000Y-83820000D03*
%TO.P,J1,15,Pin_15*%
%TO.N,/GPIO46*%
X48260000Y-86360000D03*
%TO.P,J1,16,Pin_16*%
%TO.N,/GPIO9*%
X48260000Y-88900000D03*
%TO.P,J1,17,Pin_17*%
%TO.N,/GPIO10*%
X48260000Y-91440000D03*
%TO.P,J1,18,Pin_18*%
%TO.N,/GPIO11*%
X48260000Y-93980000D03*
%TO.P,J1,19,Pin_19*%
%TO.N,/GPIO12*%
X48260000Y-96520000D03*
%TO.P,J1,20,Pin_20*%
%TO.N,/GPIO13*%
X48260000Y-99060000D03*
%TO.P,J1,21,Pin_21*%
%TO.N,VBUS*%
X48260000Y-101600000D03*
%TO.P,J1,22,Pin_22*%
%TO.N,GND*%
X48260000Y-104140000D03*
%TD*%
D10*
%TO.P,J2,1,Pin_1*%
%TO.N,GND*%
X71120000Y-50800000D03*
D11*
%TO.P,J2,2,Pin_2*%
%TO.N,+3V3*%
X71120000Y-53340000D03*
%TO.P,J2,3,Pin_3*%
%TO.N,/GPIO1*%
X71120000Y-55880000D03*
%TO.P,J2,4,Pin_4*%
%TO.N,/GPIO2*%
X71120000Y-58420000D03*
%TO.P,J2,5,Pin_5*%
%TO.N,/GPIO43*%
X71120000Y-60960000D03*
%TO.P,J2,6,Pin_6*%
%TO.N,/GPIO44*%
X71120000Y-63500000D03*
%TO.P,J2,7,Pin_7*%
%TO.N,/GPIO42*%
X71120000Y-66040000D03*
%TO.P,J2,8,Pin_8*%
%TO.N,/GPIO41*%
X71120000Y-68580000D03*
%TO.P,J2,9,Pin_9*%
%TO.N,/GPIO40*%
X71120000Y-71120000D03*
%TO.P,J2,10,Pin_10*%
%TO.N,/GPIO39*%
X71120000Y-73660000D03*
%TO.P,J2,11,Pin_11*%
%TO.N,/GPIO38*%
X71120000Y-76200000D03*
%TO.P,J2,12,Pin_12*%
%TO.N,GND*%
X71120000Y-78740000D03*
%TO.P,J2,13,Pin_13*%
%TO.N,/GPIO37*%
X71120000Y-81280000D03*
%TO.P,J2,14,Pin_14*%
%TO.N,/GPIO36*%
X71120000Y-83820000D03*
%TO.P,J2,15,Pin_15*%
%TO.N,/GPIO35*%
X71120000Y-86360000D03*
%TO.P,J2,16,Pin_16*%
%TO.N,/GPIO45*%
X71120000Y-88900000D03*
%TO.P,J2,17,Pin_17*%
%TO.N,/GPIO48*%
X71120000Y-91440000D03*
%TO.P,J2,18,Pin_18*%
%TO.N,/GPIO47*%
X71120000Y-93980000D03*
%TO.P,J2,19,Pin_19*%
%TO.N,/GPIO21*%
X71120000Y-96520000D03*
%TO.P,J2,20,Pin_20*%
%TO.N,/GPIO14*%
X71120000Y-99060000D03*
%TO.P,J2,21,Pin_21*%
%TO.N,VBUS*%
X71120000Y-101600000D03*
%TO.P,J2,22,Pin_22*%
%TO.N,GND*%
X71120000Y-104140000D03*
%TD*%
D12*
%TO.P,USB2,2,SH*%
%TO.N,unconnected-(USB2-SH-Pad2)*%
X58930000Y-103200000D03*
D13*
%TO.P,USB2,1*%
%TO.N,N/C*%
X58930000Y-99020000D03*
%TO.P,USB2,0,SH*%
%TO.N,unconnected-(USB2-SH-Pad0)*%
X50270000Y-99020000D03*
D12*
%TO.P,USB2,3,SH*%
%TO.N,unconnected-(USB2-SH-Pad3)*%
X50270000Y-103200000D03*
D14*
%TO.P,USB2,*%
%TO.N,*%
X51700000Y-99520000D03*
X57500000Y-99520000D03*
%TD*%
%TO.P,USB1,*%
%TO.N,*%
X61900000Y-99520000D03*
X67700000Y-99520000D03*
D13*
%TO.P,USB1,0,SH*%
%TO.N,unconnected-(USB1-SH-Pad0)*%
X60470000Y-99020000D03*
%TO.P,USB1,1*%
%TO.N,N/C*%
X69130000Y-99020000D03*
D12*
%TO.P,USB1,2,SH*%
%TO.N,unconnected-(USB1-SH-Pad2)*%
X69130000Y-103200000D03*
%TO.P,USB1,3,SH*%
%TO.N,unconnected-(USB1-SH-Pad3)*%
X60470000Y-103200000D03*
%TD*%
D15*
%TO.P,JP1,1,A*%
%TO.N,/GPIO36*%
X65800000Y-75550000D03*
D16*
%TO.P,JP1,2,C*%
%TO.N,/CFG1*%
X64500000Y-75550000D03*
D17*
%TO.P,JP1,3,B*%
%TO.N,GND*%
X63200000Y-75550000D03*
%TD*%
D18*
%TO.P,JP4,1,A*%
%TO.N,/PG*%
X63850000Y-86650000D03*
D19*
%TO.P,JP4,2,B*%
%TO.N,/GPIO37*%
X65150000Y-86650000D03*
%TD*%
D15*
%TO.P,JP2,1,A*%
%TO.N,/GPIO35*%
X65800000Y-79250000D03*
D16*
%TO.P,JP2,2,C*%
%TO.N,/CFG2*%
X64500000Y-79250000D03*
D17*
%TO.P,JP2,3,B*%
%TO.N,+3V3*%
X63200000Y-79250000D03*
%TD*%
D15*
%TO.P,JP3,1,A*%
%TO.N,/GPIO45*%
X65800000Y-82950000D03*
D16*
%TO.P,JP3,2,C*%
%TO.N,/CFG3*%
X64500000Y-82950000D03*
D17*
%TO.P,JP3,3,B*%
%TO.N,+3V3*%
X63200000Y-82950000D03*
%TD*%
D20*
%TO.N,GND*%
X51250000Y-97100000D03*
X57950000Y-97100000D03*
X61450000Y-97100000D03*
X68150000Y-97100000D03*
%TO.N,VBUS*%
X66850000Y-96850000D03*
%TO.N,GND*%
X59250000Y-89300000D03*
X65650000Y-85050000D03*
X64950000Y-84250000D03*
X59050000Y-81050000D03*
X61400000Y-79400000D03*
X56750000Y-56150000D03*
X64250000Y-85050000D03*
X53700000Y-82850000D03*
X65350000Y-90050000D03*
X62600000Y-94150000D03*
X63250000Y-88350000D03*
X60250000Y-87100000D03*
X53700000Y-80000000D03*
X64800000Y-73800000D03*
X60950000Y-72400000D03*
X53150000Y-88200000D03*
X58450000Y-76350000D03*
%TO.N,+3V3*%
X61850000Y-78300000D03*
X67100000Y-50800000D03*
X52150000Y-52100000D03*
%TO.N,VBUS*%
X63249997Y-93300003D03*
X64149996Y-88600004D03*
%TO.N,Net-(SW1-B)*%
X52850000Y-53350000D03*
X57300000Y-70800000D03*
%TO.N,/GPIO0*%
X66500000Y-73600000D03*
X61800000Y-70550000D03*
X62550000Y-71550000D03*
X60950000Y-67350000D03*
%TO.N,/CFG1*%
X64500000Y-77100000D03*
%TO.N,/CFG3*%
X63300000Y-84250000D03*
%TO.N,/CFG2*%
X64500000Y-81250000D03*
%TO.N,/GPIO4*%
X52150000Y-54650000D03*
%TO.N,/GPIO5*%
X52150000Y-55900000D03*
%TO.N,/GPIO6*%
X52150002Y-57170000D03*
%TO.N,/GPIO7*%
X52150000Y-58440000D03*
%TO.N,/GPIO15*%
X52150000Y-59710000D03*
%TO.N,/GPIO16*%
X52150000Y-60980000D03*
%TO.N,/GPIO17*%
X52800000Y-62250000D03*
%TO.N,/GPIO18*%
X53300000Y-63500000D03*
%TO.N,/GPIO8*%
X53900000Y-64800000D03*
%TO.N,/GPIO3*%
X52700000Y-69750000D03*
%TO.N,/GPIO46*%
X53950000Y-69750000D03*
%TO.N,/GPIO9*%
X55200000Y-69750000D03*
%TO.N,/GPIO10*%
X56500000Y-69750000D03*
%TO.N,/GPIO11*%
X57750000Y-69750000D03*
%TO.N,/GPIO12*%
X59050000Y-69750000D03*
%TO.N,/GPIO13*%
X60300000Y-69750000D03*
%TO.N,/GPIO14*%
X61600000Y-69750000D03*
%TO.N,/GPIO21*%
X62850000Y-69750000D03*
%TO.N,/GPIO47*%
X64100000Y-69750000D03*
%TO.N,/GPIO48*%
X65350000Y-69750000D03*
%TO.N,/GPIO45*%
X65000000Y-77900000D03*
X66650000Y-69750000D03*
%TO.N,/GPIO35*%
X65800000Y-66000000D03*
X65799999Y-77499989D03*
%TO.N,/GPIO36*%
X66150000Y-64750000D03*
X66400000Y-74500000D03*
%TO.N,/GPIO37*%
X66650000Y-63550000D03*
X69900000Y-90450000D03*
X66150004Y-88550000D03*
%TO.N,/GPIO38*%
X67100000Y-62250000D03*
%TO.N,/GPIO39*%
X67100000Y-61000000D03*
%TO.N,/GPIO40*%
X67100000Y-59700000D03*
%TO.N,/GPIO41*%
X67100000Y-58450000D03*
%TO.N,/GPIO42*%
X67100000Y-57150000D03*
%TO.N,/GPIO44*%
X67100000Y-55900000D03*
%TO.N,/GPIO43*%
X67100000Y-54650000D03*
%TO.N,/GPIO2*%
X60150000Y-67350000D03*
X52300000Y-82350000D03*
X67100000Y-53350000D03*
%TO.N,/GPIO1*%
X67100000Y-52100000D03*
%TO.N,/PG*%
X64950000Y-87900000D03*
%TD*%
D21*
%TO.N,/GPIO48*%
X66753264Y-70229000D02*
X65829000Y-70229000D01*
%TO.N,/GPIO37*%
X70674720Y-92515000D02*
X69900000Y-91740280D01*
%TO.N,/GPIO48*%
X65829000Y-70229000D02*
X65350000Y-69750000D01*
X71120000Y-90992591D02*
X67900000Y-87772591D01*
X67900000Y-71375736D02*
X66753264Y-70229000D01*
%TO.N,/GPIO37*%
X69900000Y-91740280D02*
X69900000Y-90450000D01*
X71565280Y-92515000D02*
X70674720Y-92515000D01*
X72195000Y-82355000D02*
X72195000Y-91885280D01*
%TO.N,/GPIO48*%
X67900000Y-87772591D02*
X67900000Y-71375736D01*
%TO.N,/GPIO37*%
X71120000Y-81280000D02*
X72195000Y-82355000D01*
X72195000Y-91885280D02*
X71565280Y-92515000D01*
%TO.N,VBUS*%
X64149996Y-88600004D02*
X64149996Y-92400004D01*
X64149996Y-92400004D02*
X63249997Y-93300003D01*
D22*
X49150000Y-101600000D02*
X65250000Y-101600000D01*
X65250000Y-101600000D02*
X71120000Y-101600000D01*
X66850000Y-96850000D02*
X65250000Y-98450000D01*
X65250000Y-98450000D02*
X65250000Y-101600000D01*
D21*
%TO.N,/GPIO37*%
X66150004Y-87650004D02*
X66150004Y-88550000D01*
X65150000Y-86650000D02*
X66150004Y-87650004D01*
%TO.N,+3V3*%
X52150000Y-53350000D02*
X52150000Y-52100000D01*
X67100000Y-50800000D02*
X69640000Y-53340000D01*
X69640000Y-53340000D02*
X71120000Y-53340000D01*
X63200000Y-82950000D02*
X63200000Y-79250000D01*
X62250000Y-78300000D02*
X61850000Y-78300000D01*
X63200000Y-79250000D02*
X62250000Y-78300000D01*
X48260000Y-53340000D02*
X52140000Y-53340000D01*
X52140000Y-53340000D02*
X52150000Y-53350000D01*
D22*
%TO.N,VBUS*%
X49150000Y-101600000D02*
X49650000Y-101600000D01*
X48260000Y-101600000D02*
X49650000Y-101600000D01*
X48260000Y-101600000D02*
X49150000Y-101600000D01*
D21*
%TO.N,Net-(SW1-B)*%
X58229000Y-69948409D02*
X58229000Y-69551591D01*
X57948409Y-70229000D02*
X58229000Y-69948409D01*
X57300000Y-70800000D02*
X57377409Y-70800000D01*
X54450000Y-65772591D02*
X54450000Y-63222590D01*
X57212132Y-70634723D02*
X57617855Y-70229000D01*
X58229000Y-69551591D02*
X54450000Y-65772591D01*
X57377409Y-70800000D02*
X57212132Y-70634723D01*
X54450000Y-63222590D02*
X52850000Y-61622591D01*
X52850000Y-61622591D02*
X52850000Y-53350000D01*
X57617855Y-70229000D02*
X57948409Y-70229000D01*
%TO.N,/GPIO0*%
X66500000Y-71950000D02*
X66500000Y-73600000D01*
X61150000Y-67550000D02*
X61150000Y-69522591D01*
X66100000Y-71550000D02*
X66500000Y-71950000D01*
X61150000Y-69522591D02*
X61121000Y-69551591D01*
X61121000Y-69551591D02*
X61121000Y-70421000D01*
X62550000Y-71550000D02*
X66100000Y-71550000D01*
X61250000Y-70550000D02*
X61800000Y-70550000D01*
X60950000Y-67350000D02*
X61150000Y-67550000D01*
X61121000Y-70421000D02*
X61250000Y-70550000D01*
%TO.N,/CFG1*%
X64500000Y-77100000D02*
X64500000Y-75550000D01*
%TO.N,/CFG3*%
X63300000Y-84250000D02*
X64272591Y-84250000D01*
X64500000Y-84022591D02*
X64500000Y-82950000D01*
X64272591Y-84250000D02*
X64500000Y-84022591D01*
%TO.N,/CFG2*%
X64500000Y-81250000D02*
X64500000Y-79250000D01*
%TO.N,/GPIO4*%
X48260000Y-55880000D02*
X48890000Y-55250000D01*
X48890000Y-55250000D02*
X51550000Y-55250000D01*
X51550000Y-55250000D02*
X52150000Y-54650000D01*
%TO.N,/GPIO5*%
X48260000Y-58420000D02*
X49630000Y-58420000D01*
X49630000Y-58420000D02*
X52150000Y-55900000D01*
%TO.N,/GPIO6*%
X48360002Y-60960000D02*
X52150002Y-57170000D01*
%TO.N,/GPIO7*%
X49650000Y-60940000D02*
X52150000Y-58440000D01*
X48300000Y-63500000D02*
X49650000Y-62150000D01*
X49650000Y-62150000D02*
X49650000Y-60940000D01*
%TO.N,/GPIO15*%
X48260000Y-66040000D02*
X49950000Y-64350000D01*
X49950000Y-61910000D02*
X52150000Y-59710000D01*
X49950000Y-64350000D02*
X49950000Y-61910000D01*
%TO.N,/GPIO16*%
X48260000Y-68580000D02*
X50620000Y-68580000D01*
X52150000Y-67050000D02*
X52150000Y-60980000D01*
X50620000Y-68580000D02*
X52150000Y-67050000D01*
%TO.N,/GPIO17*%
X48580000Y-71120000D02*
X52800000Y-66900000D01*
X52800000Y-66900000D02*
X52800000Y-62250000D01*
%TO.N,/GPIO18*%
X49400000Y-70755888D02*
X53300000Y-66855888D01*
X49400000Y-72520000D02*
X49400000Y-70755888D01*
X48260000Y-73660000D02*
X49400000Y-72520000D01*
X53300000Y-66855888D02*
X53300000Y-63500000D01*
%TO.N,/GPIO8*%
X48260000Y-81280000D02*
X49700000Y-79840000D01*
X53900000Y-66680152D02*
X53900000Y-64800000D01*
X49700000Y-79840000D02*
X49700000Y-70880152D01*
X49700000Y-70880152D02*
X53900000Y-66680152D01*
%TO.N,/GPIO3*%
X48260000Y-83820000D02*
X50000000Y-82080000D01*
X50000000Y-71004416D02*
X51254416Y-69750000D01*
X50000000Y-82080000D02*
X50000000Y-71004416D01*
X51254416Y-69750000D02*
X52700000Y-69750000D01*
%TO.N,/GPIO46*%
X48260000Y-86360000D02*
X50300000Y-84320000D01*
X50300000Y-71128680D02*
X51199680Y-70229000D01*
X50300000Y-84320000D02*
X50300000Y-71128680D01*
X53571000Y-70229000D02*
X53950000Y-69850000D01*
X53950000Y-69850000D02*
X53950000Y-69750000D01*
X51199680Y-70229000D02*
X53571000Y-70229000D01*
%TO.N,/GPIO9*%
X54421000Y-70529000D02*
X55200000Y-69750000D01*
X50600000Y-71252944D02*
X51323944Y-70529000D01*
X50600000Y-86560000D02*
X50600000Y-71252944D01*
X48260000Y-88900000D02*
X50600000Y-86560000D01*
X51323944Y-70529000D02*
X54421000Y-70529000D01*
%TO.N,/GPIO10*%
X50900000Y-88800000D02*
X50900000Y-71377208D01*
X55421000Y-70829000D02*
X56500000Y-69750000D01*
X48260000Y-91440000D02*
X50900000Y-88800000D01*
X50900000Y-71377208D02*
X51448208Y-70829000D01*
X51448208Y-70829000D02*
X55421000Y-70829000D01*
%TO.N,/GPIO11*%
X57750000Y-69750000D02*
X57672591Y-69750000D01*
X51572472Y-71129000D02*
X51200000Y-71501472D01*
X51200000Y-91040000D02*
X48260000Y-93980000D01*
X56293591Y-71129000D02*
X51572472Y-71129000D01*
X51200000Y-71501472D02*
X51200000Y-91040000D01*
X57672591Y-69750000D02*
X56293591Y-71129000D01*
%TO.N,/GPIO12*%
X51775736Y-71450000D02*
X51796736Y-71429000D01*
X51796736Y-71429000D02*
X57371000Y-71429000D01*
X51500000Y-93280000D02*
X51500000Y-71625736D01*
X48260000Y-96520000D02*
X51500000Y-93280000D01*
X51675736Y-71450000D02*
X51775736Y-71450000D01*
X57371000Y-71429000D02*
X59050000Y-69750000D01*
X51500000Y-71625736D02*
X51675736Y-71450000D01*
%TO.N,/GPIO13*%
X48260000Y-98990000D02*
X51800000Y-95450000D01*
X51800000Y-71750000D02*
X58300000Y-71750000D01*
X51800000Y-95450000D02*
X51800000Y-71750000D01*
X58300000Y-71750000D02*
X60300000Y-69750000D01*
%TO.N,/GPIO14*%
X66354736Y-71129000D02*
X63056409Y-71129000D01*
X67000000Y-71774264D02*
X66354736Y-71129000D01*
X71110000Y-99060000D02*
X67000000Y-94950000D01*
X67000000Y-94950000D02*
X67000000Y-71774264D01*
X61677409Y-69750000D02*
X61600000Y-69750000D01*
X63056409Y-71129000D02*
X61677409Y-69750000D01*
%TO.N,/GPIO21*%
X67300000Y-92700000D02*
X67300000Y-71650000D01*
X67300000Y-71650000D02*
X66479000Y-70829000D01*
X66479000Y-70829000D02*
X63929000Y-70829000D01*
X71120000Y-96520000D02*
X67300000Y-92700000D01*
X63929000Y-70829000D02*
X62850000Y-69750000D01*
%TO.N,/GPIO47*%
X66629000Y-70529000D02*
X64879000Y-70529000D01*
X67600000Y-71500000D02*
X66629000Y-70529000D01*
X64879000Y-70529000D02*
X64100000Y-69750000D01*
X67600000Y-90460000D02*
X67600000Y-71500000D01*
X71120000Y-93980000D02*
X67600000Y-90460000D01*
%TO.N,/GPIO45*%
X66221000Y-76921000D02*
X66525000Y-77225000D01*
X66525000Y-77225000D02*
X66525000Y-82225000D01*
X68200000Y-71251472D02*
X66698528Y-69750000D01*
X68200000Y-85980000D02*
X68200000Y-71251472D01*
X66525000Y-82225000D02*
X65800000Y-82950000D01*
X66698528Y-69750000D02*
X66650000Y-69750000D01*
X71120000Y-88900000D02*
X68200000Y-85980000D01*
X65000000Y-77200000D02*
X65279000Y-76921000D01*
X65279000Y-76921000D02*
X66221000Y-76921000D01*
X65000000Y-77900000D02*
X65000000Y-77200000D01*
%TO.N,/GPIO35*%
X66950000Y-66000000D02*
X68545000Y-67595000D01*
X65800000Y-79250000D02*
X65800000Y-77499990D01*
X65800000Y-77499990D02*
X65799999Y-77499989D01*
X68545000Y-83785000D02*
X71120000Y-86360000D01*
X65800000Y-66000000D02*
X66950000Y-66000000D01*
X68545000Y-67595000D02*
X68545000Y-83785000D01*
%TO.N,/GPIO36*%
X68845000Y-67445000D02*
X68845000Y-69522336D01*
X68850000Y-69527336D02*
X68850000Y-81550000D01*
X68850000Y-81550000D02*
X71120000Y-83820000D01*
X65800000Y-75100000D02*
X66400000Y-74500000D01*
X66150000Y-64750000D02*
X68845000Y-67445000D01*
X68845000Y-69522336D02*
X68850000Y-69527336D01*
%TO.N,/GPIO37*%
X67550000Y-65725736D02*
X69145000Y-67320736D01*
X69150000Y-80580000D02*
X69850000Y-81280000D01*
X66650000Y-63550000D02*
X67550000Y-64450000D01*
X69850000Y-81280000D02*
X71120000Y-81280000D01*
X67550000Y-64450000D02*
X67550000Y-65725736D01*
X69145000Y-67320736D02*
X69145000Y-69398072D01*
X69150000Y-69403072D02*
X69150000Y-80580000D01*
X69145000Y-69398072D02*
X69150000Y-69403072D01*
%TO.N,/GPIO38*%
X69450000Y-74530000D02*
X71120000Y-76200000D01*
X69445000Y-67158072D02*
X69445000Y-69273808D01*
X67100000Y-62250000D02*
X67850000Y-63000000D01*
X69450000Y-69278808D02*
X69450000Y-74530000D01*
X67850000Y-65563072D02*
X69445000Y-67158072D01*
X69445000Y-69273808D02*
X69450000Y-69278808D01*
X67850000Y-63000000D02*
X67850000Y-65563072D01*
%TO.N,/GPIO39*%
X68150000Y-65438808D02*
X69745000Y-67033808D01*
X68150000Y-62050000D02*
X68150000Y-65438808D01*
X69745000Y-67033808D02*
X69745000Y-69149544D01*
X69750000Y-69154544D02*
X69750000Y-72290000D01*
X69750000Y-72290000D02*
X71120000Y-73660000D01*
X69745000Y-69149544D02*
X69750000Y-69154544D01*
X67100000Y-61000000D02*
X68150000Y-62050000D01*
%TO.N,/GPIO40*%
X70045000Y-66909544D02*
X70045000Y-69025280D01*
X67100000Y-59700000D02*
X68450000Y-61050000D01*
X70050000Y-69030280D02*
X70050000Y-70050000D01*
X70045000Y-69025280D02*
X70050000Y-69030280D01*
X70050000Y-70050000D02*
X71120000Y-71120000D01*
X68450000Y-65314544D02*
X70045000Y-66909544D01*
X68450000Y-61050000D02*
X68450000Y-65314544D01*
%TO.N,/GPIO41*%
X71120000Y-67560280D02*
X71120000Y-68580000D01*
X69100000Y-65500000D02*
X69100000Y-65540280D01*
X69100000Y-65540280D02*
X71120000Y-67560280D01*
X68750000Y-65150000D02*
X69100000Y-65500000D01*
X67100000Y-58450000D02*
X68750000Y-60100000D01*
X68750000Y-60100000D02*
X68750000Y-65150000D01*
%TO.N,/GPIO42*%
X67100000Y-57150000D02*
X69050000Y-59100000D01*
X69050000Y-65000000D02*
X70090000Y-66040000D01*
X69050000Y-59100000D02*
X69050000Y-65000000D01*
X70090000Y-66040000D02*
X71120000Y-66040000D01*
%TO.N,/GPIO44*%
X67100000Y-55900000D02*
X69350000Y-58150000D01*
X69350000Y-62800000D02*
X70050000Y-63500000D01*
X70050000Y-63500000D02*
X71120000Y-63500000D01*
X69350000Y-58150000D02*
X69350000Y-62800000D01*
%TO.N,/GPIO43*%
X69750000Y-57300000D02*
X69750000Y-60500000D01*
X69750000Y-60500000D02*
X70210000Y-60960000D01*
X70210000Y-60960000D02*
X71120000Y-60960000D01*
X67100000Y-54650000D02*
X69750000Y-57300000D01*
%TO.N,/GPIO2*%
X58850000Y-72050000D02*
X60779000Y-70121000D01*
X67100000Y-53750000D02*
X71120000Y-57770000D01*
X60779000Y-70121000D02*
X60779000Y-67979000D01*
X52100000Y-72150000D02*
X52200000Y-72050000D01*
X52100000Y-82150000D02*
X52100000Y-72150000D01*
X67100000Y-53350000D02*
X67100000Y-53750000D01*
X52200000Y-72050000D02*
X58850000Y-72050000D01*
X52300000Y-82350000D02*
X52100000Y-82150000D01*
X60779000Y-67979000D02*
X60150000Y-67350000D01*
%TO.N,/GPIO1*%
X70880000Y-55880000D02*
X67100000Y-52100000D01*
%TO.N,/PG*%
X63850000Y-87250000D02*
X64500000Y-87900000D01*
X64500000Y-87900000D02*
X64950000Y-87900000D01*
%TD*%
%TA.AperFunction,Conductor*%
%TO.N,GND*%
G36*
X72843039Y-49019685D02*
G01*
X72888794Y-49072489D01*
X72900000Y-49124000D01*
X72900000Y-105776000D01*
X72880315Y-105843039D01*
X72827511Y-105888794D01*
X72776000Y-105900000D01*
X46624000Y-105900000D01*
X46556961Y-105880315D01*
X46511206Y-105827511D01*
X46500000Y-105776000D01*
X46500000Y-101600000D01*
X47154785Y-101600000D01*
X47173602Y-101803082D01*
X47229417Y-101999247D01*
X47229422Y-101999260D01*
X47320327Y-102181821D01*
X47443237Y-102344581D01*
X47593958Y-102481980D01*
X47593960Y-102481982D01*
X47677748Y-102533861D01*
X47767363Y-102589348D01*
X47957544Y-102663024D01*
X48158024Y-102700500D01*
X48158026Y-102700500D01*
X48361974Y-102700500D01*
X48361976Y-102700500D01*
X48562456Y-102663024D01*
X48752637Y-102589348D01*
X48926041Y-102481981D01*
X49076764Y-102344579D01*
X49199673Y-102181821D01*
X49230841Y-102119226D01*
X49278342Y-102067992D01*
X49341840Y-102050500D01*
X49618841Y-102050500D01*
X49685880Y-102070185D01*
X49731635Y-102122989D01*
X49741579Y-102192147D01*
X49712554Y-102255703D01*
X49699117Y-102269008D01*
X49648900Y-102311662D01*
X49536946Y-102458936D01*
X49459268Y-102626832D01*
X49459266Y-102626836D01*
X49419500Y-102807502D01*
X49419500Y-103480141D01*
X49399815Y-103547180D01*
X49347011Y-103592935D01*
X49277853Y-103602879D01*
X49214297Y-103573854D01*
X49196546Y-103554868D01*
X49076391Y-103395757D01*
X48925739Y-103258421D01*
X48752413Y-103151101D01*
X48562315Y-103077458D01*
X48562309Y-103077456D01*
X48510001Y-103067677D01*
X48510000Y-103067679D01*
X48510000Y-103704498D01*
X48402315Y-103655320D01*
X48295763Y-103640000D01*
X48224237Y-103640000D01*
X48117685Y-103655320D01*
X48010000Y-103704498D01*
X48010000Y-103067679D01*
X48009998Y-103067677D01*
X47957690Y-103077456D01*
X47957684Y-103077458D01*
X47767586Y-103151101D01*
X47594260Y-103258421D01*
X47443608Y-103395757D01*
X47320754Y-103558443D01*
X47229890Y-103740921D01*
X47229885Y-103740934D01*
X47187471Y-103889999D01*
X47187472Y-103890000D01*
X47826314Y-103890000D01*
X47800507Y-103930156D01*
X47760000Y-104068111D01*
X47760000Y-104211889D01*
X47800507Y-104349844D01*
X47826314Y-104390000D01*
X47187472Y-104390000D01*
X47229885Y-104539065D01*
X47229890Y-104539078D01*
X47320754Y-104721556D01*
X47443608Y-104884242D01*
X47594260Y-105021578D01*
X47767584Y-105128897D01*
X47957678Y-105202539D01*
X48010000Y-105212320D01*
X48010000Y-104575501D01*
X48117685Y-104624680D01*
X48224237Y-104640000D01*
X48295763Y-104640000D01*
X48402315Y-104624680D01*
X48510000Y-104575501D01*
X48510000Y-105212320D01*
X48562321Y-105202539D01*
X48752415Y-105128897D01*
X48925739Y-105021578D01*
X49076391Y-104884242D01*
X49199245Y-104721556D01*
X49290109Y-104539078D01*
X49290114Y-104539065D01*
X49332528Y-104390000D01*
X48693686Y-104390000D01*
X48719493Y-104349844D01*
X48760000Y-104211889D01*
X48760000Y-104068111D01*
X48719493Y-103930156D01*
X48693686Y-103890000D01*
X49340893Y-103890000D01*
X49377968Y-103862486D01*
X49447680Y-103857793D01*
X49508863Y-103891533D01*
X49527067Y-103914919D01*
X49588931Y-104017737D01*
X49588932Y-104017738D01*
X49716149Y-104152040D01*
X49754430Y-104177995D01*
X49869270Y-104255858D01*
X49869273Y-104255859D01*
X49869276Y-104255861D01*
X50041122Y-104324330D01*
X50041125Y-104324331D01*
X50223683Y-104354260D01*
X50408407Y-104344245D01*
X50408411Y-104344244D01*
X50586656Y-104294755D01*
X50586656Y-104294754D01*
X50586659Y-104294754D01*
X50750104Y-104208100D01*
X50891100Y-104088337D01*
X51003054Y-103941064D01*
X51080732Y-103773167D01*
X51120500Y-103592497D01*
X51120500Y-102853887D01*
X51105514Y-102716090D01*
X51046444Y-102540779D01*
X50951070Y-102382264D01*
X50835042Y-102259775D01*
X50803230Y-102197568D01*
X50810099Y-102128037D01*
X50853470Y-102073257D01*
X50919571Y-102050622D01*
X50925065Y-102050500D01*
X58278841Y-102050500D01*
X58345880Y-102070185D01*
X58391635Y-102122989D01*
X58401579Y-102192147D01*
X58372554Y-102255703D01*
X58359117Y-102269008D01*
X58308900Y-102311662D01*
X58196946Y-102458936D01*
X58119268Y-102626832D01*
X58119266Y-102626836D01*
X58079500Y-102807502D01*
X58079500Y-103546116D01*
X58094486Y-103683911D01*
X58113700Y-103740934D01*
X58136702Y-103809202D01*
X58153557Y-103859223D01*
X58153558Y-103859225D01*
X58248931Y-104017737D01*
X58248932Y-104017738D01*
X58376149Y-104152040D01*
X58414430Y-104177995D01*
X58529270Y-104255858D01*
X58529273Y-104255859D01*
X58529276Y-104255861D01*
X58701122Y-104324330D01*
X58701125Y-104324331D01*
X58883683Y-104354260D01*
X59068407Y-104344245D01*
X59068411Y-104344244D01*
X59246656Y-104294755D01*
X59246656Y-104294754D01*
X59246659Y-104294754D01*
X59410104Y-104208100D01*
X59551100Y-104088337D01*
X59598416Y-104026093D01*
X59654654Y-103984638D01*
X59724381Y-103980167D01*
X59785455Y-104014104D01*
X59787153Y-104015861D01*
X59916149Y-104152040D01*
X59954430Y-104177995D01*
X60069270Y-104255858D01*
X60069273Y-104255859D01*
X60069276Y-104255861D01*
X60241122Y-104324330D01*
X60241125Y-104324331D01*
X60423683Y-104354260D01*
X60608407Y-104344245D01*
X60608411Y-104344244D01*
X60786656Y-104294755D01*
X60786656Y-104294754D01*
X60786659Y-104294754D01*
X60950104Y-104208100D01*
X61091100Y-104088337D01*
X61203054Y-103941064D01*
X61280732Y-103773167D01*
X61320500Y-103592497D01*
X61320500Y-102853887D01*
X61305514Y-102716090D01*
X61246444Y-102540779D01*
X61151070Y-102382264D01*
X61035042Y-102259775D01*
X61003230Y-102197568D01*
X61010099Y-102128037D01*
X61053470Y-102073257D01*
X61119571Y-102050622D01*
X61125065Y-102050500D01*
X65182098Y-102050500D01*
X65185268Y-102050500D01*
X65212859Y-102053608D01*
X65215954Y-102054315D01*
X65264561Y-102050672D01*
X65269178Y-102050500D01*
X68478841Y-102050500D01*
X68545880Y-102070185D01*
X68591635Y-102122989D01*
X68601579Y-102192147D01*
X68572554Y-102255703D01*
X68559117Y-102269008D01*
X68508900Y-102311662D01*
X68396946Y-102458936D01*
X68319268Y-102626832D01*
X68319266Y-102626836D01*
X68279500Y-102807502D01*
X68279500Y-103546116D01*
X68294486Y-103683911D01*
X68313700Y-103740934D01*
X68336702Y-103809202D01*
X68353557Y-103859223D01*
X68353558Y-103859225D01*
X68448931Y-104017737D01*
X68448932Y-104017738D01*
X68576149Y-104152040D01*
X68614430Y-104177995D01*
X68729270Y-104255858D01*
X68729273Y-104255859D01*
X68729276Y-104255861D01*
X68901122Y-104324330D01*
X68901125Y-104324331D01*
X69083683Y-104354260D01*
X69268407Y-104344245D01*
X69268411Y-104344244D01*
X69446656Y-104294755D01*
X69446656Y-104294754D01*
X69446659Y-104294754D01*
X69610104Y-104208100D01*
X69751100Y-104088337D01*
X69863054Y-103941064D01*
X69863056Y-103941059D01*
X69866520Y-103935303D01*
X69868807Y-103936679D01*
X69906892Y-103893130D01*
X69974021Y-103873751D01*
X70028438Y-103890000D01*
X70686314Y-103890000D01*
X70660507Y-103930156D01*
X70620000Y-104068111D01*
X70620000Y-104211889D01*
X70660507Y-104349844D01*
X70686314Y-104390000D01*
X70047472Y-104390000D01*
X70089885Y-104539065D01*
X70089890Y-104539078D01*
X70180754Y-104721556D01*
X70303608Y-104884242D01*
X70454260Y-105021578D01*
X70627584Y-105128897D01*
X70817678Y-105202539D01*
X70870000Y-105212320D01*
X70870000Y-104575501D01*
X70977685Y-104624680D01*
X71084237Y-104640000D01*
X71155763Y-104640000D01*
X71262315Y-104624680D01*
X71370000Y-104575501D01*
X71370000Y-105212320D01*
X71422321Y-105202539D01*
X71612415Y-105128897D01*
X71785739Y-105021578D01*
X71936391Y-104884242D01*
X72059245Y-104721556D01*
X72150109Y-104539078D01*
X72150114Y-104539065D01*
X72192528Y-104390000D01*
X71553686Y-104390000D01*
X71579493Y-104349844D01*
X71620000Y-104211889D01*
X71620000Y-104068111D01*
X71579493Y-103930156D01*
X71553686Y-103890000D01*
X72192528Y-103890000D01*
X72192528Y-103889999D01*
X72150114Y-103740934D01*
X72150109Y-103740921D01*
X72059245Y-103558443D01*
X71936391Y-103395757D01*
X71785739Y-103258421D01*
X71612413Y-103151101D01*
X71422315Y-103077458D01*
X71422309Y-103077456D01*
X71370001Y-103067677D01*
X71370000Y-103067679D01*
X71370000Y-103704498D01*
X71262315Y-103655320D01*
X71155763Y-103640000D01*
X71084237Y-103640000D01*
X70977685Y-103655320D01*
X70870000Y-103704498D01*
X70870000Y-103067679D01*
X70869998Y-103067677D01*
X70817690Y-103077456D01*
X70817684Y-103077458D01*
X70627586Y-103151101D01*
X70454260Y-103258421D01*
X70303608Y-103395757D01*
X70203454Y-103528384D01*
X70147345Y-103570020D01*
X70077633Y-103574711D01*
X70016451Y-103540969D01*
X69983224Y-103479506D01*
X69980500Y-103453657D01*
X69980500Y-102853893D01*
X69980500Y-102853887D01*
X69965514Y-102716090D01*
X69906444Y-102540779D01*
X69811070Y-102382264D01*
X69695042Y-102259775D01*
X69663230Y-102197568D01*
X69670099Y-102128037D01*
X69713470Y-102073257D01*
X69779571Y-102050622D01*
X69785065Y-102050500D01*
X70038160Y-102050500D01*
X70105199Y-102070185D01*
X70149158Y-102119226D01*
X70180327Y-102181821D01*
X70188125Y-102192147D01*
X70303237Y-102344581D01*
X70453958Y-102481980D01*
X70453960Y-102481982D01*
X70537748Y-102533861D01*
X70627363Y-102589348D01*
X70817544Y-102663024D01*
X71018024Y-102700500D01*
X71018026Y-102700500D01*
X71221974Y-102700500D01*
X71221976Y-102700500D01*
X71422456Y-102663024D01*
X71612637Y-102589348D01*
X71786041Y-102481981D01*
X71936764Y-102344579D01*
X72059673Y-102181821D01*
X72150582Y-101999250D01*
X72206397Y-101803083D01*
X72225215Y-101600000D01*
X72206397Y-101396917D01*
X72150582Y-101200750D01*
X72059673Y-101018179D01*
X71936764Y-100855421D01*
X71936762Y-100855418D01*
X71786041Y-100718019D01*
X71786039Y-100718017D01*
X71612642Y-100610655D01*
X71612635Y-100610651D01*
X71517546Y-100573814D01*
X71422456Y-100536976D01*
X71221976Y-100499500D01*
X71018024Y-100499500D01*
X70817544Y-100536976D01*
X70817541Y-100536976D01*
X70817541Y-100536977D01*
X70627364Y-100610651D01*
X70627357Y-100610655D01*
X70453960Y-100718017D01*
X70453958Y-100718019D01*
X70303237Y-100855418D01*
X70180329Y-101018176D01*
X70180327Y-101018179D01*
X70149158Y-101080773D01*
X70101658Y-101132008D01*
X70038160Y-101149500D01*
X65824500Y-101149500D01*
X65757461Y-101129815D01*
X65711706Y-101077011D01*
X65700500Y-101025500D01*
X65700500Y-98687964D01*
X65720185Y-98620925D01*
X65736814Y-98600288D01*
X66991094Y-97346007D01*
X67043842Y-97314712D01*
X67060053Y-97309953D01*
X67060055Y-97309951D01*
X67060057Y-97309951D01*
X67181123Y-97232146D01*
X67181122Y-97232146D01*
X67181128Y-97232143D01*
X67275377Y-97123373D01*
X67335165Y-96992457D01*
X67355647Y-96850000D01*
X67335165Y-96707543D01*
X67275377Y-96576627D01*
X67181128Y-96467857D01*
X67060053Y-96390047D01*
X67060051Y-96390046D01*
X67060049Y-96390045D01*
X67060050Y-96390045D01*
X66921963Y-96349500D01*
X66921961Y-96349500D01*
X66778039Y-96349500D01*
X66778036Y-96349500D01*
X66639949Y-96390045D01*
X66518873Y-96467856D01*
X66424623Y-96576626D01*
X66424621Y-96576629D01*
X66382095Y-96669745D01*
X66356983Y-96705912D01*
X64951804Y-98111092D01*
X64946617Y-98115727D01*
X64916033Y-98140117D01*
X64916029Y-98140121D01*
X64882519Y-98189271D01*
X64847206Y-98237118D01*
X64843216Y-98244667D01*
X64839528Y-98252326D01*
X64821992Y-98309177D01*
X64802353Y-98365301D01*
X64800771Y-98373659D01*
X64799500Y-98382100D01*
X64799500Y-98441573D01*
X64797275Y-98501009D01*
X64798316Y-98510243D01*
X64797485Y-98510336D01*
X64799500Y-98525635D01*
X64799500Y-101025500D01*
X64779815Y-101092539D01*
X64727011Y-101138294D01*
X64675500Y-101149500D01*
X49341840Y-101149500D01*
X49274801Y-101129815D01*
X49230841Y-101080773D01*
X49199673Y-101018179D01*
X49076764Y-100855421D01*
X49076762Y-100855418D01*
X48926041Y-100718019D01*
X48926039Y-100718017D01*
X48752642Y-100610655D01*
X48752635Y-100610651D01*
X48657546Y-100573814D01*
X48562456Y-100536976D01*
X48361976Y-100499500D01*
X48158024Y-100499500D01*
X47957544Y-100536976D01*
X47957541Y-100536976D01*
X47957541Y-100536977D01*
X47767364Y-100610651D01*
X47767357Y-100610655D01*
X47593960Y-100718017D01*
X47593958Y-100718019D01*
X47443237Y-100855418D01*
X47320327Y-101018178D01*
X47229422Y-101200739D01*
X47229417Y-101200752D01*
X47173602Y-101396917D01*
X47154785Y-101599999D01*
X47154785Y-101600000D01*
X46500000Y-101600000D01*
X46500000Y-99060000D01*
X47154785Y-99060000D01*
X47173602Y-99263082D01*
X47229417Y-99459247D01*
X47229422Y-99459260D01*
X47320327Y-99641821D01*
X47443237Y-99804581D01*
X47574721Y-99924443D01*
X47589302Y-99937736D01*
X47593958Y-99941980D01*
X47593960Y-99941982D01*
X47659453Y-99982533D01*
X47767363Y-100049348D01*
X47957544Y-100123024D01*
X48158024Y-100160500D01*
X48158026Y-100160500D01*
X48361974Y-100160500D01*
X48361976Y-100160500D01*
X48562456Y-100123024D01*
X48752637Y-100049348D01*
X48926041Y-99941981D01*
X49076764Y-99804579D01*
X49199673Y-99641821D01*
X49214201Y-99612642D01*
X49261700Y-99561407D01*
X49329363Y-99543984D01*
X49395704Y-99565907D01*
X49439661Y-99620217D01*
X49442710Y-99628319D01*
X49493558Y-99779226D01*
X49555794Y-99882663D01*
X49580934Y-99924447D01*
X49588931Y-99937737D01*
X49588932Y-99937738D01*
X49716149Y-100072040D01*
X49754430Y-100097995D01*
X49869270Y-100175858D01*
X49869273Y-100175859D01*
X49869276Y-100175861D01*
X50041122Y-100244330D01*
X50041125Y-100244331D01*
X50223683Y-100274260D01*
X50408407Y-100264245D01*
X50408411Y-100264244D01*
X50586656Y-100214755D01*
X50586656Y-100214754D01*
X50586659Y-100214754D01*
X50750104Y-100128100D01*
X50891100Y-100008337D01*
X50986635Y-99882661D01*
X51042875Y-99841206D01*
X51112602Y-99836736D01*
X51173676Y-99870672D01*
X51190047Y-99891262D01*
X51195698Y-99900167D01*
X51211107Y-99924447D01*
X51327048Y-100033324D01*
X51327051Y-100033326D01*
X51327053Y-100033327D01*
X51466421Y-100109945D01*
X51466423Y-100109945D01*
X51466424Y-100109946D01*
X51537129Y-100128100D01*
X51606805Y-100145990D01*
X51620476Y-100149500D01*
X51620480Y-100149500D01*
X51739601Y-100149500D01*
X51739603Y-100149500D01*
X51757090Y-100147290D01*
X51767389Y-100145990D01*
X51775169Y-100145500D01*
X51775945Y-100145500D01*
X51775949Y-100145500D01*
X51777376Y-100145148D01*
X51784423Y-100143837D01*
X51857794Y-100134569D01*
X51915735Y-100111627D01*
X51923090Y-100109278D01*
X51923422Y-100109152D01*
X51923425Y-100109150D01*
X51923434Y-100109148D01*
X51924922Y-100108366D01*
X51930896Y-100105625D01*
X52005674Y-100076019D01*
X52048136Y-100045168D01*
X52051799Y-100042894D01*
X52051751Y-100042825D01*
X52057930Y-100038559D01*
X52057929Y-100038559D01*
X52057934Y-100038557D01*
X52058867Y-100037729D01*
X52063539Y-100033977D01*
X52064438Y-100033324D01*
X52134347Y-99982533D01*
X52167106Y-99942932D01*
X52171618Y-99937841D01*
X52171632Y-99937830D01*
X52171648Y-99937806D01*
X52174862Y-99933558D01*
X52235729Y-99859984D01*
X52303448Y-99716072D01*
X52333251Y-99559841D01*
X52328238Y-99480162D01*
X56866749Y-99480162D01*
X56870765Y-99543984D01*
X56876701Y-99638345D01*
X56876736Y-99638892D01*
X56876736Y-99638896D01*
X56925885Y-99790158D01*
X56998535Y-99904638D01*
X57011107Y-99924447D01*
X57127048Y-100033324D01*
X57127051Y-100033326D01*
X57127053Y-100033327D01*
X57266421Y-100109945D01*
X57266423Y-100109945D01*
X57266424Y-100109946D01*
X57337129Y-100128100D01*
X57406805Y-100145990D01*
X57420476Y-100149500D01*
X57420480Y-100149500D01*
X57539601Y-100149500D01*
X57539603Y-100149500D01*
X57557090Y-100147290D01*
X57567389Y-100145990D01*
X57575169Y-100145500D01*
X57575945Y-100145500D01*
X57575949Y-100145500D01*
X57577376Y-100145148D01*
X57584423Y-100143837D01*
X57657794Y-100134569D01*
X57715735Y-100111627D01*
X57723090Y-100109278D01*
X57723422Y-100109152D01*
X57723425Y-100109150D01*
X57723434Y-100109148D01*
X57724922Y-100108366D01*
X57730896Y-100105625D01*
X57805674Y-100076019D01*
X57848136Y-100045168D01*
X57851799Y-100042894D01*
X57851751Y-100042825D01*
X57857930Y-100038559D01*
X57857929Y-100038559D01*
X57857934Y-100038557D01*
X57858867Y-100037729D01*
X57863539Y-100033977D01*
X57864438Y-100033324D01*
X57934347Y-99982533D01*
X57967106Y-99942932D01*
X57971618Y-99937841D01*
X57971632Y-99937830D01*
X57971648Y-99937806D01*
X57974862Y-99933558D01*
X58020515Y-99878373D01*
X58078415Y-99839267D01*
X58148267Y-99837672D01*
X58207892Y-99874095D01*
X58222303Y-99893482D01*
X58246403Y-99933536D01*
X58248932Y-99937739D01*
X58376149Y-100072040D01*
X58414430Y-100097995D01*
X58529270Y-100175858D01*
X58529273Y-100175859D01*
X58529276Y-100175861D01*
X58701122Y-100244330D01*
X58701125Y-100244331D01*
X58883683Y-100274260D01*
X59068407Y-100264245D01*
X59068411Y-100264244D01*
X59246656Y-100214755D01*
X59246656Y-100214754D01*
X59246659Y-100214754D01*
X59410104Y-100128100D01*
X59551100Y-100008337D01*
X59598416Y-99946093D01*
X59654654Y-99904638D01*
X59724381Y-99900167D01*
X59785455Y-99934104D01*
X59787153Y-99935861D01*
X59916149Y-100072040D01*
X59954430Y-100097995D01*
X60069270Y-100175858D01*
X60069273Y-100175859D01*
X60069276Y-100175861D01*
X60241122Y-100244330D01*
X60241125Y-100244331D01*
X60423683Y-100274260D01*
X60608407Y-100264245D01*
X60608411Y-100264244D01*
X60786656Y-100214755D01*
X60786656Y-100214754D01*
X60786659Y-100214754D01*
X60950104Y-100128100D01*
X61091100Y-100008337D01*
X61186635Y-99882661D01*
X61242875Y-99841206D01*
X61312602Y-99836736D01*
X61373676Y-99870672D01*
X61390047Y-99891262D01*
X61395698Y-99900167D01*
X61411107Y-99924447D01*
X61527048Y-100033324D01*
X61527051Y-100033326D01*
X61527053Y-100033327D01*
X61666421Y-100109945D01*
X61666423Y-100109945D01*
X61666424Y-100109946D01*
X61737129Y-100128100D01*
X61806805Y-100145990D01*
X61820476Y-100149500D01*
X61820480Y-100149500D01*
X61939601Y-100149500D01*
X61939603Y-100149500D01*
X61957090Y-100147290D01*
X61967389Y-100145990D01*
X61975169Y-100145500D01*
X61975945Y-100145500D01*
X61975949Y-100145500D01*
X61977376Y-100145148D01*
X61984423Y-100143837D01*
X62057794Y-100134569D01*
X62115735Y-100111627D01*
X62123090Y-100109278D01*
X62123422Y-100109152D01*
X62123425Y-100109150D01*
X62123434Y-100109148D01*
X62124922Y-100108366D01*
X62130896Y-100105625D01*
X62205674Y-100076019D01*
X62248136Y-100045168D01*
X62251799Y-100042894D01*
X62251751Y-100042825D01*
X62257930Y-100038559D01*
X62257929Y-100038559D01*
X62257934Y-100038557D01*
X62258867Y-100037729D01*
X62263539Y-100033977D01*
X62264438Y-100033324D01*
X62334347Y-99982533D01*
X62367106Y-99942932D01*
X62371618Y-99937841D01*
X62371632Y-99937830D01*
X62371648Y-99937806D01*
X62374862Y-99933558D01*
X62435729Y-99859984D01*
X62503448Y-99716072D01*
X62533251Y-99559841D01*
X62523264Y-99401106D01*
X62474115Y-99249842D01*
X62388893Y-99115553D01*
X62272952Y-99006676D01*
X62272949Y-99006674D01*
X62272946Y-99006672D01*
X62133578Y-98930054D01*
X61979527Y-98890500D01*
X61979524Y-98890500D01*
X61860397Y-98890500D01*
X61860391Y-98890500D01*
X61832611Y-98894010D01*
X61824831Y-98894500D01*
X61824046Y-98894500D01*
X61822614Y-98894853D01*
X61815554Y-98896164D01*
X61742206Y-98905431D01*
X61742203Y-98905431D01*
X61684267Y-98928369D01*
X61676908Y-98930721D01*
X61676563Y-98930852D01*
X61675074Y-98931634D01*
X61669096Y-98934376D01*
X61594329Y-98963979D01*
X61594324Y-98963982D01*
X61551846Y-98994843D01*
X61548179Y-98997122D01*
X61548226Y-98997190D01*
X61542063Y-99001444D01*
X61541121Y-99002279D01*
X61536462Y-99006020D01*
X61517386Y-99019879D01*
X61451580Y-99043360D01*
X61383526Y-99027535D01*
X61334831Y-98977430D01*
X61320500Y-98919562D01*
X61320500Y-98573893D01*
X61320500Y-98573887D01*
X61305514Y-98436090D01*
X61246444Y-98260779D01*
X61151070Y-98102264D01*
X61121128Y-98070655D01*
X61023850Y-97967959D01*
X60941165Y-97911898D01*
X60870730Y-97864142D01*
X60870727Y-97864140D01*
X60870723Y-97864138D01*
X60698877Y-97795669D01*
X60625851Y-97783697D01*
X60516317Y-97765740D01*
X60516314Y-97765740D01*
X60331593Y-97775755D01*
X60331588Y-97775755D01*
X60153343Y-97825244D01*
X60153337Y-97825247D01*
X59989897Y-97911898D01*
X59848899Y-98031663D01*
X59801584Y-98093905D01*
X59745343Y-98135362D01*
X59675616Y-98139831D01*
X59614542Y-98105894D01*
X59612846Y-98104138D01*
X59483850Y-97967959D01*
X59401165Y-97911898D01*
X59330730Y-97864142D01*
X59330727Y-97864140D01*
X59330723Y-97864138D01*
X59158877Y-97795669D01*
X59085851Y-97783697D01*
X58976317Y-97765740D01*
X58976314Y-97765740D01*
X58791593Y-97775755D01*
X58791588Y-97775755D01*
X58613343Y-97825244D01*
X58613337Y-97825247D01*
X58449897Y-97911898D01*
X58308900Y-98031662D01*
X58196946Y-98178936D01*
X58119268Y-98346832D01*
X58119266Y-98346836D01*
X58079500Y-98527502D01*
X58079500Y-98914090D01*
X58059815Y-98981129D01*
X58007011Y-99026884D01*
X57937853Y-99036828D01*
X57879908Y-99010365D01*
X57879259Y-99011259D01*
X57874850Y-99008055D01*
X57874297Y-99007803D01*
X57873445Y-99007034D01*
X57872946Y-99006672D01*
X57733578Y-98930054D01*
X57579527Y-98890500D01*
X57579524Y-98890500D01*
X57460397Y-98890500D01*
X57460391Y-98890500D01*
X57432611Y-98894010D01*
X57424831Y-98894500D01*
X57424046Y-98894500D01*
X57422614Y-98894853D01*
X57415554Y-98896164D01*
X57342206Y-98905431D01*
X57342203Y-98905431D01*
X57284267Y-98928369D01*
X57276908Y-98930721D01*
X57276563Y-98930852D01*
X57275074Y-98931634D01*
X57269096Y-98934376D01*
X57194329Y-98963979D01*
X57194324Y-98963982D01*
X57151846Y-98994843D01*
X57148179Y-98997122D01*
X57148226Y-98997190D01*
X57142063Y-99001444D01*
X57141121Y-99002279D01*
X57136462Y-99006020D01*
X57065653Y-99057466D01*
X57032935Y-99097015D01*
X57028361Y-99102177D01*
X57028356Y-99102185D01*
X57025122Y-99106458D01*
X56964272Y-99180014D01*
X56896551Y-99323930D01*
X56881830Y-99401103D01*
X56866749Y-99480159D01*
X56866749Y-99480161D01*
X56866749Y-99480162D01*
X52328238Y-99480162D01*
X52323264Y-99401106D01*
X52274115Y-99249842D01*
X52188893Y-99115553D01*
X52072952Y-99006676D01*
X52072949Y-99006674D01*
X52072946Y-99006672D01*
X51933578Y-98930054D01*
X51779527Y-98890500D01*
X51779524Y-98890500D01*
X51660397Y-98890500D01*
X51660391Y-98890500D01*
X51632611Y-98894010D01*
X51624831Y-98894500D01*
X51624046Y-98894500D01*
X51622614Y-98894853D01*
X51615554Y-98896164D01*
X51542206Y-98905431D01*
X51542203Y-98905431D01*
X51484267Y-98928369D01*
X51476908Y-98930721D01*
X51476563Y-98930852D01*
X51475074Y-98931634D01*
X51469096Y-98934376D01*
X51394329Y-98963979D01*
X51394324Y-98963982D01*
X51351846Y-98994843D01*
X51348179Y-98997122D01*
X51348226Y-98997190D01*
X51342063Y-99001444D01*
X51341121Y-99002279D01*
X51336462Y-99006020D01*
X51317386Y-99019879D01*
X51251580Y-99043360D01*
X51183526Y-99027535D01*
X51134831Y-98977430D01*
X51120500Y-98919562D01*
X51120500Y-98573893D01*
X51120500Y-98573887D01*
X51105514Y-98436090D01*
X51046444Y-98260779D01*
X50951070Y-98102264D01*
X50921128Y-98070655D01*
X50823850Y-97967959D01*
X50741165Y-97911898D01*
X50670730Y-97864142D01*
X50670727Y-97864140D01*
X50670723Y-97864138D01*
X50498877Y-97795669D01*
X50425851Y-97783697D01*
X50316317Y-97765740D01*
X50316314Y-97765740D01*
X50246703Y-97769514D01*
X50178696Y-97753488D01*
X50130150Y-97703238D01*
X50116477Y-97634719D01*
X50142019Y-97569685D01*
X50152301Y-97558023D01*
X52018204Y-95692120D01*
X52022166Y-95688489D01*
X52053194Y-95662455D01*
X52073438Y-95627390D01*
X52076335Y-95622841D01*
X52099554Y-95589684D01*
X52099554Y-95589681D01*
X52101819Y-95584824D01*
X52108747Y-95568099D01*
X52110584Y-95563050D01*
X52110588Y-95563045D01*
X52117619Y-95523162D01*
X52118777Y-95517940D01*
X52129264Y-95478807D01*
X52125735Y-95438481D01*
X52125500Y-95433078D01*
X52125500Y-82974500D01*
X52145185Y-82907461D01*
X52197989Y-82861706D01*
X52249500Y-82850500D01*
X52371962Y-82850500D01*
X52371962Y-82850499D01*
X52510053Y-82809953D01*
X52631128Y-82732143D01*
X52725377Y-82623373D01*
X52785165Y-82492457D01*
X52805647Y-82350000D01*
X52785165Y-82207543D01*
X52725377Y-82076627D01*
X52631128Y-81967857D01*
X52510053Y-81890047D01*
X52510051Y-81890046D01*
X52510049Y-81890045D01*
X52501983Y-81886361D01*
X52503068Y-81883984D01*
X52455780Y-81853589D01*
X52426761Y-81790030D01*
X52425500Y-81772394D01*
X52425500Y-72499500D01*
X52445185Y-72432461D01*
X52497989Y-72386706D01*
X52549500Y-72375500D01*
X58833078Y-72375500D01*
X58838481Y-72375735D01*
X58878807Y-72379264D01*
X58917940Y-72368777D01*
X58923162Y-72367619D01*
X58963045Y-72360588D01*
X58963050Y-72360584D01*
X58968099Y-72358747D01*
X58984824Y-72351819D01*
X58989681Y-72349554D01*
X58989684Y-72349554D01*
X59022841Y-72326335D01*
X59027390Y-72323438D01*
X59062455Y-72303194D01*
X59088481Y-72272176D01*
X59092122Y-72268202D01*
X60710829Y-70649495D01*
X60772150Y-70616012D01*
X60841842Y-70620996D01*
X60878213Y-70642187D01*
X60898825Y-70659483D01*
X60902793Y-70663119D01*
X60960413Y-70720739D01*
X61007863Y-70768189D01*
X61011518Y-70772178D01*
X61037541Y-70803190D01*
X61037543Y-70803191D01*
X61037545Y-70803194D01*
X61037547Y-70803195D01*
X61037548Y-70803196D01*
X61072599Y-70823433D01*
X61077162Y-70826339D01*
X61110316Y-70849554D01*
X61110319Y-70849554D01*
X61115176Y-70851820D01*
X61131933Y-70858760D01*
X61136953Y-70860587D01*
X61136955Y-70860588D01*
X61172806Y-70866909D01*
X61176808Y-70867615D01*
X61182080Y-70868783D01*
X61221193Y-70879264D01*
X61261522Y-70875735D01*
X61266924Y-70875500D01*
X61363162Y-70875500D01*
X61430201Y-70895185D01*
X61456872Y-70918295D01*
X61468872Y-70932143D01*
X61589947Y-71009953D01*
X61589950Y-71009954D01*
X61589949Y-71009954D01*
X61697107Y-71041417D01*
X61724633Y-71049500D01*
X61728036Y-71050499D01*
X61728038Y-71050500D01*
X61728039Y-71050500D01*
X61871962Y-71050500D01*
X61871962Y-71050499D01*
X62010053Y-71009953D01*
X62065299Y-70974448D01*
X62132333Y-70954765D01*
X62199373Y-70974449D01*
X62245129Y-71027252D01*
X62255073Y-71096410D01*
X62226049Y-71159966D01*
X62223499Y-71162517D01*
X62124623Y-71276626D01*
X62124622Y-71276628D01*
X62064834Y-71407543D01*
X62044353Y-71550000D01*
X62064834Y-71692456D01*
X62069111Y-71701821D01*
X62124623Y-71823373D01*
X62218872Y-71932143D01*
X62339947Y-72009953D01*
X62339950Y-72009954D01*
X62339949Y-72009954D01*
X62398869Y-72027254D01*
X62471251Y-72048507D01*
X62478036Y-72050499D01*
X62478038Y-72050500D01*
X62478039Y-72050500D01*
X62621962Y-72050500D01*
X62621962Y-72050499D01*
X62760053Y-72009953D01*
X62881128Y-71932143D01*
X62893126Y-71918296D01*
X62951903Y-71880523D01*
X62986838Y-71875500D01*
X65913812Y-71875500D01*
X65980851Y-71895185D01*
X66001493Y-71911819D01*
X66138181Y-72048507D01*
X66171666Y-72109830D01*
X66174500Y-72136188D01*
X66174500Y-73165112D01*
X66154815Y-73232151D01*
X66144213Y-73246314D01*
X66074625Y-73326622D01*
X66074622Y-73326628D01*
X66014834Y-73457543D01*
X65994353Y-73600000D01*
X66014834Y-73742456D01*
X66074622Y-73873371D01*
X66074625Y-73873377D01*
X66114924Y-73919883D01*
X66143950Y-73983438D01*
X66134007Y-74052597D01*
X66088254Y-74105400D01*
X66068874Y-74117855D01*
X65974623Y-74226626D01*
X65974622Y-74226628D01*
X65914834Y-74357543D01*
X65903246Y-74438147D01*
X65874221Y-74501703D01*
X65815443Y-74539477D01*
X65780508Y-74544500D01*
X65250000Y-74544500D01*
X65219203Y-74550625D01*
X65148959Y-74564598D01*
X65100577Y-74564597D01*
X65024678Y-74549500D01*
X65024674Y-74549500D01*
X63975326Y-74549500D01*
X63975323Y-74549500D01*
X63902264Y-74564032D01*
X63902260Y-74564033D01*
X63819399Y-74619399D01*
X63764033Y-74702260D01*
X63764032Y-74702264D01*
X63749500Y-74775321D01*
X63749500Y-76324678D01*
X63764032Y-76397735D01*
X63764033Y-76397739D01*
X63764034Y-76397740D01*
X63819399Y-76480601D01*
X63902260Y-76535966D01*
X63902264Y-76535967D01*
X63975321Y-76550499D01*
X63975324Y-76550500D01*
X63975326Y-76550500D01*
X64042365Y-76550500D01*
X64109404Y-76570185D01*
X64155159Y-76622989D01*
X64165103Y-76692147D01*
X64136079Y-76755702D01*
X64074623Y-76826627D01*
X64074622Y-76826628D01*
X64014834Y-76957543D01*
X63994353Y-77100000D01*
X64014834Y-77242456D01*
X64074622Y-77373371D01*
X64074623Y-77373373D01*
X64168872Y-77482143D01*
X64289947Y-77559953D01*
X64289950Y-77559954D01*
X64289949Y-77559954D01*
X64431419Y-77601493D01*
X64490198Y-77639267D01*
X64519223Y-77702822D01*
X64515939Y-77748742D01*
X64516097Y-77748765D01*
X64515781Y-77750960D01*
X64515464Y-77755399D01*
X64514835Y-77757540D01*
X64494353Y-77900000D01*
X64514834Y-78042456D01*
X64529235Y-78073988D01*
X64539179Y-78143147D01*
X64510154Y-78206702D01*
X64451376Y-78244477D01*
X64416441Y-78249500D01*
X63975326Y-78249500D01*
X63899421Y-78264598D01*
X63851040Y-78264597D01*
X63750004Y-78244500D01*
X63750000Y-78244500D01*
X63128111Y-78244500D01*
X63128110Y-78244500D01*
X63056136Y-78254847D01*
X63056124Y-78254850D01*
X62918168Y-78295357D01*
X62850611Y-78326209D01*
X62781453Y-78336152D01*
X62717898Y-78307125D01*
X62711421Y-78301095D01*
X62617028Y-78206702D01*
X62492119Y-78081793D01*
X62488474Y-78077814D01*
X62462456Y-78046807D01*
X62462455Y-78046806D01*
X62451058Y-78040226D01*
X62427392Y-78026561D01*
X62422831Y-78023655D01*
X62409687Y-78014452D01*
X62389684Y-78000446D01*
X62389681Y-78000445D01*
X62384861Y-77998197D01*
X62368055Y-77991235D01*
X62363043Y-77989411D01*
X62323190Y-77982383D01*
X62317910Y-77981212D01*
X62278809Y-77970735D01*
X62272711Y-77970202D01*
X62207643Y-77944747D01*
X62189811Y-77927878D01*
X62181127Y-77917856D01*
X62125539Y-77882132D01*
X62060053Y-77840047D01*
X62060051Y-77840046D01*
X62060049Y-77840045D01*
X62060050Y-77840045D01*
X61921963Y-77799500D01*
X61921961Y-77799500D01*
X61778039Y-77799500D01*
X61778036Y-77799500D01*
X61639949Y-77840045D01*
X61518873Y-77917856D01*
X61424623Y-78026626D01*
X61424622Y-78026628D01*
X61364834Y-78157543D01*
X61344353Y-78300000D01*
X61364834Y-78442456D01*
X61386547Y-78489999D01*
X61424623Y-78573373D01*
X61518872Y-78682143D01*
X61639947Y-78759953D01*
X61639950Y-78759954D01*
X61639949Y-78759954D01*
X61778036Y-78800499D01*
X61778038Y-78800500D01*
X61778039Y-78800500D01*
X61921962Y-78800500D01*
X61921962Y-78800499D01*
X62060053Y-78759953D01*
X62091397Y-78739809D01*
X62158433Y-78720124D01*
X62225473Y-78739807D01*
X62246117Y-78756443D01*
X62405640Y-78915966D01*
X62439125Y-78977289D01*
X62441959Y-79003647D01*
X62441959Y-79036361D01*
X62443238Y-79045256D01*
X62444500Y-79062902D01*
X62444500Y-79437097D01*
X62443238Y-79454742D01*
X62441959Y-79463635D01*
X62441959Y-79536361D01*
X62462419Y-79678671D01*
X62482910Y-79748457D01*
X62542630Y-79879227D01*
X62542639Y-79879243D01*
X62581950Y-79940411D01*
X62581961Y-79940427D01*
X62676106Y-80049077D01*
X62718121Y-80085482D01*
X62731069Y-80096702D01*
X62817540Y-80152273D01*
X62863294Y-80205076D01*
X62874500Y-80256588D01*
X62874500Y-81943411D01*
X62854815Y-82010450D01*
X62817540Y-82047726D01*
X62731069Y-82103297D01*
X62676106Y-82150922D01*
X62581961Y-82259572D01*
X62581950Y-82259588D01*
X62542639Y-82320756D01*
X62542630Y-82320772D01*
X62482910Y-82451542D01*
X62462419Y-82521328D01*
X62441959Y-82663638D01*
X62441959Y-82736361D01*
X62443238Y-82745256D01*
X62444500Y-82762902D01*
X62444500Y-83137097D01*
X62443238Y-83154742D01*
X62441959Y-83163635D01*
X62441959Y-83163639D01*
X62441959Y-83236362D01*
X62444255Y-83252332D01*
X62462419Y-83378671D01*
X62482910Y-83448457D01*
X62542630Y-83579227D01*
X62542639Y-83579243D01*
X62566851Y-83616917D01*
X62581952Y-83640415D01*
X62581961Y-83640427D01*
X62676106Y-83749077D01*
X62718121Y-83785482D01*
X62731069Y-83796702D01*
X62815186Y-83850760D01*
X62860940Y-83903563D01*
X62870884Y-83972721D01*
X62860940Y-84006586D01*
X62814835Y-84107541D01*
X62814834Y-84107542D01*
X62794353Y-84250000D01*
X62814834Y-84392456D01*
X62865407Y-84503193D01*
X62874623Y-84523373D01*
X62968872Y-84632143D01*
X63089947Y-84709953D01*
X63089950Y-84709954D01*
X63089949Y-84709954D01*
X63228036Y-84750499D01*
X63228038Y-84750500D01*
X63228039Y-84750500D01*
X63371962Y-84750500D01*
X63371962Y-84750499D01*
X63510053Y-84709953D01*
X63631128Y-84632143D01*
X63643126Y-84618296D01*
X63701903Y-84580523D01*
X63736838Y-84575500D01*
X64255669Y-84575500D01*
X64261072Y-84575735D01*
X64301398Y-84579264D01*
X64340531Y-84568777D01*
X64345753Y-84567619D01*
X64385636Y-84560588D01*
X64385641Y-84560584D01*
X64390690Y-84558747D01*
X64407415Y-84551819D01*
X64412272Y-84549554D01*
X64412275Y-84549554D01*
X64445432Y-84526335D01*
X64449981Y-84523438D01*
X64485046Y-84503194D01*
X64511072Y-84472176D01*
X64514713Y-84468202D01*
X64718204Y-84264711D01*
X64722166Y-84261080D01*
X64753194Y-84235046D01*
X64773438Y-84199981D01*
X64776335Y-84195432D01*
X64799554Y-84162275D01*
X64799554Y-84162272D01*
X64801819Y-84157415D01*
X64808747Y-84140690D01*
X64810584Y-84135641D01*
X64810588Y-84135636D01*
X64817620Y-84095749D01*
X64818777Y-84090531D01*
X64829264Y-84051398D01*
X64829263Y-84051395D01*
X64831674Y-84042402D01*
X64868041Y-83982743D01*
X64930889Y-83952216D01*
X64951448Y-83950500D01*
X65024676Y-83950500D01*
X65100576Y-83935402D01*
X65148960Y-83935402D01*
X65249997Y-83955500D01*
X65250000Y-83955500D01*
X65871887Y-83955500D01*
X65871889Y-83955500D01*
X65943871Y-83945151D01*
X66081826Y-83904644D01*
X66147977Y-83874434D01*
X66268931Y-83796702D01*
X66323893Y-83749077D01*
X66409592Y-83650174D01*
X66418038Y-83640427D01*
X66418039Y-83640424D01*
X66418047Y-83640416D01*
X66446185Y-83596631D01*
X66498988Y-83550878D01*
X66568147Y-83540934D01*
X66631702Y-83569959D01*
X66669477Y-83628737D01*
X66674500Y-83663672D01*
X66674500Y-87438292D01*
X66654815Y-87505331D01*
X66602011Y-87551086D01*
X66532853Y-87561030D01*
X66469297Y-87532005D01*
X66448926Y-87509416D01*
X66426342Y-87477164D01*
X66423435Y-87472600D01*
X66403197Y-87437548D01*
X66385888Y-87423024D01*
X66372186Y-87411526D01*
X66368214Y-87407887D01*
X66147724Y-87187397D01*
X65944360Y-86984033D01*
X65910875Y-86922710D01*
X65908041Y-86896352D01*
X65908041Y-86863641D01*
X65908040Y-86863635D01*
X65906762Y-86854742D01*
X65905500Y-86837097D01*
X65905500Y-86462902D01*
X65906762Y-86445256D01*
X65908041Y-86436361D01*
X65908041Y-86363638D01*
X65887579Y-86221323D01*
X65867091Y-86151546D01*
X65858089Y-86131836D01*
X65807369Y-86020772D01*
X65807360Y-86020756D01*
X65768801Y-85960758D01*
X65768047Y-85959584D01*
X65768043Y-85959579D01*
X65768038Y-85959572D01*
X65673893Y-85850922D01*
X65618930Y-85803297D01*
X65497982Y-85725568D01*
X65497977Y-85725566D01*
X65431826Y-85695356D01*
X65324856Y-85663947D01*
X65293875Y-85654850D01*
X65293863Y-85654847D01*
X65221889Y-85644500D01*
X64650000Y-85644500D01*
X64649997Y-85644500D01*
X64552228Y-85663947D01*
X64547452Y-85665926D01*
X64477982Y-85673394D01*
X64452548Y-85665926D01*
X64447771Y-85663947D01*
X64350003Y-85644500D01*
X64350000Y-85644500D01*
X63778111Y-85644500D01*
X63778110Y-85644500D01*
X63706136Y-85654847D01*
X63706124Y-85654850D01*
X63568174Y-85695356D01*
X63502022Y-85725566D01*
X63502017Y-85725568D01*
X63381069Y-85803297D01*
X63326106Y-85850922D01*
X63231961Y-85959572D01*
X63231950Y-85959588D01*
X63192639Y-86020756D01*
X63192630Y-86020772D01*
X63132910Y-86151542D01*
X63112419Y-86221328D01*
X63091959Y-86363638D01*
X63091959Y-86436361D01*
X63093238Y-86445256D01*
X63094500Y-86462902D01*
X63094500Y-86837097D01*
X63093238Y-86854742D01*
X63091959Y-86863635D01*
X63091959Y-86936361D01*
X63112419Y-87078671D01*
X63132910Y-87148457D01*
X63192630Y-87279227D01*
X63192639Y-87279243D01*
X63231950Y-87340411D01*
X63231961Y-87340427D01*
X63326106Y-87449077D01*
X63381069Y-87496702D01*
X63502017Y-87574431D01*
X63502020Y-87574432D01*
X63502023Y-87574434D01*
X63568174Y-87604644D01*
X63706129Y-87645151D01*
X63757186Y-87652491D01*
X63820741Y-87681514D01*
X63827222Y-87687548D01*
X64054822Y-87915148D01*
X64088307Y-87976471D01*
X64083323Y-88046163D01*
X64041451Y-88102096D01*
X64002077Y-88121806D01*
X63939944Y-88140050D01*
X63818869Y-88217860D01*
X63724619Y-88326630D01*
X63724618Y-88326632D01*
X63664830Y-88457547D01*
X63644349Y-88600004D01*
X63664830Y-88742460D01*
X63724618Y-88873375D01*
X63724619Y-88873377D01*
X63794209Y-88953689D01*
X63823234Y-89017244D01*
X63824496Y-89034891D01*
X63824496Y-92213816D01*
X63804811Y-92280855D01*
X63788177Y-92301497D01*
X63326490Y-92763184D01*
X63265167Y-92796669D01*
X63238809Y-92799503D01*
X63178033Y-92799503D01*
X63039946Y-92840048D01*
X62918870Y-92917859D01*
X62824620Y-93026629D01*
X62824619Y-93026631D01*
X62764831Y-93157546D01*
X62744350Y-93300003D01*
X62764831Y-93442459D01*
X62784345Y-93485188D01*
X62824620Y-93573376D01*
X62918869Y-93682146D01*
X63039944Y-93759956D01*
X63039947Y-93759957D01*
X63039946Y-93759957D01*
X63178033Y-93800502D01*
X63178035Y-93800503D01*
X63178036Y-93800503D01*
X63321959Y-93800503D01*
X63321959Y-93800502D01*
X63429118Y-93769038D01*
X63460047Y-93759957D01*
X63460047Y-93759956D01*
X63460050Y-93759956D01*
X63581125Y-93682146D01*
X63675374Y-93573376D01*
X63735162Y-93442460D01*
X63755644Y-93300003D01*
X63755643Y-93300002D01*
X63756906Y-93291224D01*
X63759870Y-93291650D01*
X63775329Y-93239004D01*
X63791963Y-93218362D01*
X63916514Y-93093811D01*
X64368211Y-92642113D01*
X64372162Y-92638493D01*
X64403190Y-92612459D01*
X64423434Y-92577394D01*
X64426331Y-92572845D01*
X64449550Y-92539688D01*
X64449550Y-92539685D01*
X64451815Y-92534828D01*
X64458743Y-92518103D01*
X64460580Y-92513054D01*
X64460584Y-92513049D01*
X64467615Y-92473166D01*
X64468773Y-92467944D01*
X64479260Y-92428811D01*
X64475731Y-92388482D01*
X64475496Y-92383079D01*
X64475496Y-89034891D01*
X64495181Y-88967852D01*
X64505778Y-88953693D01*
X64575373Y-88873377D01*
X64635161Y-88742461D01*
X64655643Y-88600004D01*
X64643351Y-88514510D01*
X64653295Y-88445352D01*
X64699050Y-88392548D01*
X64766089Y-88372864D01*
X64801023Y-88377887D01*
X64878036Y-88400499D01*
X64878038Y-88400500D01*
X64878039Y-88400500D01*
X65021962Y-88400500D01*
X65021962Y-88400499D01*
X65160053Y-88359953D01*
X65281128Y-88282143D01*
X65375377Y-88173373D01*
X65435165Y-88042457D01*
X65455647Y-87900000D01*
X65435165Y-87757543D01*
X65428323Y-87742562D01*
X65418379Y-87673407D01*
X65447402Y-87609851D01*
X65489603Y-87578257D01*
X65497977Y-87574434D01*
X65497979Y-87574432D01*
X65499384Y-87573791D01*
X65568542Y-87563847D01*
X65632098Y-87592872D01*
X65638566Y-87598893D01*
X65788186Y-87748512D01*
X65821670Y-87809833D01*
X65824504Y-87836192D01*
X65824504Y-88115112D01*
X65804819Y-88182151D01*
X65794217Y-88196314D01*
X65724629Y-88276622D01*
X65724626Y-88276628D01*
X65664838Y-88407543D01*
X65644357Y-88550000D01*
X65664838Y-88692456D01*
X65687675Y-88742461D01*
X65724627Y-88823373D01*
X65818876Y-88932143D01*
X65939951Y-89009953D01*
X65939954Y-89009954D01*
X65939953Y-89009954D01*
X66078040Y-89050499D01*
X66078042Y-89050500D01*
X66078043Y-89050500D01*
X66221966Y-89050500D01*
X66221966Y-89050499D01*
X66360057Y-89009953D01*
X66481132Y-88932143D01*
X66481132Y-88932142D01*
X66483461Y-88930646D01*
X66550500Y-88910962D01*
X66617540Y-88930647D01*
X66663294Y-88983451D01*
X66674500Y-89034962D01*
X66674500Y-94933078D01*
X66674264Y-94938485D01*
X66670735Y-94978808D01*
X66681212Y-95017910D01*
X66682383Y-95023190D01*
X66689411Y-95063043D01*
X66691235Y-95068055D01*
X66698197Y-95084861D01*
X66700445Y-95089681D01*
X66700446Y-95089684D01*
X66714452Y-95109687D01*
X66723655Y-95122831D01*
X66726561Y-95127392D01*
X66746806Y-95162455D01*
X66777815Y-95188475D01*
X66781805Y-95192131D01*
X69149745Y-97560071D01*
X69183230Y-97621394D01*
X69178246Y-97691086D01*
X69136374Y-97747019D01*
X69070910Y-97771436D01*
X69068778Y-97771570D01*
X68991593Y-97775755D01*
X68991588Y-97775755D01*
X68813343Y-97825244D01*
X68813337Y-97825247D01*
X68649897Y-97911898D01*
X68508900Y-98031662D01*
X68396946Y-98178936D01*
X68319268Y-98346832D01*
X68319266Y-98346836D01*
X68279500Y-98527502D01*
X68279500Y-98914090D01*
X68259815Y-98981129D01*
X68207011Y-99026884D01*
X68137853Y-99036828D01*
X68079908Y-99010365D01*
X68079259Y-99011259D01*
X68074850Y-99008055D01*
X68074297Y-99007803D01*
X68073445Y-99007034D01*
X68072946Y-99006672D01*
X67933578Y-98930054D01*
X67779527Y-98890500D01*
X67779524Y-98890500D01*
X67660397Y-98890500D01*
X67660391Y-98890500D01*
X67632611Y-98894010D01*
X67624831Y-98894500D01*
X67624046Y-98894500D01*
X67622614Y-98894853D01*
X67615554Y-98896164D01*
X67542206Y-98905431D01*
X67542203Y-98905431D01*
X67484267Y-98928369D01*
X67476908Y-98930721D01*
X67476563Y-98930852D01*
X67475074Y-98931634D01*
X67469096Y-98934376D01*
X67394329Y-98963979D01*
X67394324Y-98963982D01*
X67351846Y-98994843D01*
X67348179Y-98997122D01*
X67348226Y-98997190D01*
X67342063Y-99001444D01*
X67341121Y-99002279D01*
X67336462Y-99006020D01*
X67265653Y-99057466D01*
X67232935Y-99097015D01*
X67228361Y-99102177D01*
X67228356Y-99102185D01*
X67225122Y-99106458D01*
X67164272Y-99180014D01*
X67096551Y-99323930D01*
X67081830Y-99401103D01*
X67066749Y-99480159D01*
X67066749Y-99480161D01*
X67066749Y-99480162D01*
X67070765Y-99543984D01*
X67076701Y-99638345D01*
X67076736Y-99638892D01*
X67076736Y-99638896D01*
X67125885Y-99790158D01*
X67198535Y-99904638D01*
X67211107Y-99924447D01*
X67327048Y-100033324D01*
X67327051Y-100033326D01*
X67327053Y-100033327D01*
X67466421Y-100109945D01*
X67466423Y-100109945D01*
X67466424Y-100109946D01*
X67537129Y-100128100D01*
X67606805Y-100145990D01*
X67620476Y-100149500D01*
X67620480Y-100149500D01*
X67739601Y-100149500D01*
X67739603Y-100149500D01*
X67757090Y-100147290D01*
X67767389Y-100145990D01*
X67775169Y-100145500D01*
X67775945Y-100145500D01*
X67775949Y-100145500D01*
X67777376Y-100145148D01*
X67784423Y-100143837D01*
X67857794Y-100134569D01*
X67915735Y-100111627D01*
X67923090Y-100109278D01*
X67923422Y-100109152D01*
X67923425Y-100109150D01*
X67923434Y-100109148D01*
X67924922Y-100108366D01*
X67930896Y-100105625D01*
X68005674Y-100076019D01*
X68048136Y-100045168D01*
X68051799Y-100042894D01*
X68051751Y-100042825D01*
X68057930Y-100038559D01*
X68057929Y-100038559D01*
X68057934Y-100038557D01*
X68058867Y-100037729D01*
X68063539Y-100033977D01*
X68064438Y-100033324D01*
X68134347Y-99982533D01*
X68167106Y-99942932D01*
X68171618Y-99937841D01*
X68171632Y-99937830D01*
X68171648Y-99937806D01*
X68174862Y-99933558D01*
X68220515Y-99878373D01*
X68278415Y-99839267D01*
X68348267Y-99837672D01*
X68407892Y-99874095D01*
X68422303Y-99893482D01*
X68446403Y-99933536D01*
X68448932Y-99937739D01*
X68576149Y-100072040D01*
X68614430Y-100097995D01*
X68729270Y-100175858D01*
X68729273Y-100175859D01*
X68729276Y-100175861D01*
X68901122Y-100244330D01*
X68901125Y-100244331D01*
X69083683Y-100274260D01*
X69268407Y-100264245D01*
X69268411Y-100264244D01*
X69446656Y-100214755D01*
X69446656Y-100214754D01*
X69446659Y-100214754D01*
X69610104Y-100128100D01*
X69751100Y-100008337D01*
X69863054Y-99861064D01*
X69940732Y-99693167D01*
X69946498Y-99666969D01*
X69980131Y-99605730D01*
X70041535Y-99572394D01*
X70111215Y-99577548D01*
X70167046Y-99619555D01*
X70178596Y-99638345D01*
X70180327Y-99641821D01*
X70303237Y-99804581D01*
X70434721Y-99924443D01*
X70449302Y-99937736D01*
X70453958Y-99941980D01*
X70453960Y-99941982D01*
X70519453Y-99982533D01*
X70627363Y-100049348D01*
X70817544Y-100123024D01*
X71018024Y-100160500D01*
X71018026Y-100160500D01*
X71221974Y-100160500D01*
X71221976Y-100160500D01*
X71422456Y-100123024D01*
X71612637Y-100049348D01*
X71786041Y-99941981D01*
X71936764Y-99804579D01*
X72059673Y-99641821D01*
X72150582Y-99459250D01*
X72206397Y-99263083D01*
X72225215Y-99060000D01*
X72219866Y-99002279D01*
X72206397Y-98856917D01*
X72158325Y-98687964D01*
X72150582Y-98660750D01*
X72138558Y-98636603D01*
X72071041Y-98501009D01*
X72059673Y-98478179D01*
X71974432Y-98365301D01*
X71936762Y-98315418D01*
X71786041Y-98178019D01*
X71786039Y-98178017D01*
X71612642Y-98070655D01*
X71612635Y-98070651D01*
X71511994Y-98031663D01*
X71422456Y-97996976D01*
X71221976Y-97959500D01*
X71018024Y-97959500D01*
X70866739Y-97987779D01*
X70817538Y-97996977D01*
X70669270Y-98054416D01*
X70599647Y-98060278D01*
X70537907Y-98027567D01*
X70536796Y-98026470D01*
X67361819Y-94851493D01*
X67328334Y-94790170D01*
X67325500Y-94763812D01*
X67325500Y-93485188D01*
X67345185Y-93418149D01*
X67397989Y-93372394D01*
X67467147Y-93362450D01*
X67530703Y-93391475D01*
X67537181Y-93397507D01*
X70083175Y-95943501D01*
X70116660Y-96004824D01*
X70111676Y-96074516D01*
X70106495Y-96086452D01*
X70089423Y-96120738D01*
X70089417Y-96120752D01*
X70033602Y-96316917D01*
X70014785Y-96519999D01*
X70014785Y-96520000D01*
X70033602Y-96723082D01*
X70089417Y-96919247D01*
X70089422Y-96919260D01*
X70180327Y-97101821D01*
X70303237Y-97264581D01*
X70453958Y-97401980D01*
X70453960Y-97401982D01*
X70553141Y-97463392D01*
X70627363Y-97509348D01*
X70817544Y-97583024D01*
X71018024Y-97620500D01*
X71018026Y-97620500D01*
X71221974Y-97620500D01*
X71221976Y-97620500D01*
X71422456Y-97583024D01*
X71612637Y-97509348D01*
X71786041Y-97401981D01*
X71936764Y-97264579D01*
X72059673Y-97101821D01*
X72150582Y-96919250D01*
X72206397Y-96723083D01*
X72225215Y-96520000D01*
X72206397Y-96316917D01*
X72150582Y-96120750D01*
X72150576Y-96120738D01*
X72092858Y-96004824D01*
X72059673Y-95938179D01*
X71936764Y-95775421D01*
X71936762Y-95775418D01*
X71786041Y-95638019D01*
X71786039Y-95638017D01*
X71612642Y-95530655D01*
X71612635Y-95530651D01*
X71517546Y-95493814D01*
X71422456Y-95456976D01*
X71221976Y-95419500D01*
X71018024Y-95419500D01*
X70916463Y-95438485D01*
X70817538Y-95456977D01*
X70676478Y-95511624D01*
X70606855Y-95517486D01*
X70545115Y-95484776D01*
X70544004Y-95483678D01*
X67661819Y-92601493D01*
X67628334Y-92540170D01*
X67625500Y-92513812D01*
X67625500Y-91245188D01*
X67645185Y-91178149D01*
X67697989Y-91132394D01*
X67767147Y-91122450D01*
X67830703Y-91151475D01*
X67837181Y-91157507D01*
X70083175Y-93403501D01*
X70116660Y-93464824D01*
X70111676Y-93534516D01*
X70106495Y-93546452D01*
X70089423Y-93580738D01*
X70089417Y-93580752D01*
X70033602Y-93776917D01*
X70014785Y-93979999D01*
X70014785Y-93980000D01*
X70033602Y-94183082D01*
X70089417Y-94379247D01*
X70089422Y-94379260D01*
X70180327Y-94561821D01*
X70303237Y-94724581D01*
X70453958Y-94861980D01*
X70453960Y-94861982D01*
X70553141Y-94923392D01*
X70627363Y-94969348D01*
X70817544Y-95043024D01*
X71018024Y-95080500D01*
X71018026Y-95080500D01*
X71221974Y-95080500D01*
X71221976Y-95080500D01*
X71422456Y-95043024D01*
X71612637Y-94969348D01*
X71786041Y-94861981D01*
X71936764Y-94724579D01*
X72059673Y-94561821D01*
X72150582Y-94379250D01*
X72206397Y-94183083D01*
X72225215Y-93980000D01*
X72206397Y-93776917D01*
X72150582Y-93580750D01*
X72150576Y-93580738D01*
X72081722Y-93442460D01*
X72059673Y-93398179D01*
X71979226Y-93291650D01*
X71936762Y-93235418D01*
X71786042Y-93098020D01*
X71786041Y-93098019D01*
X71685194Y-93035577D01*
X71638560Y-92983550D01*
X71627456Y-92914568D01*
X71655409Y-92850534D01*
X71698073Y-92817766D01*
X71704955Y-92814556D01*
X71704964Y-92814554D01*
X71738121Y-92791335D01*
X71742670Y-92788438D01*
X71777735Y-92768194D01*
X71803761Y-92737176D01*
X71807402Y-92733202D01*
X72413204Y-92127400D01*
X72417166Y-92123769D01*
X72448194Y-92097735D01*
X72468438Y-92062670D01*
X72471335Y-92058121D01*
X72494554Y-92024964D01*
X72494554Y-92024961D01*
X72496819Y-92020104D01*
X72503747Y-92003379D01*
X72505584Y-91998330D01*
X72505588Y-91998325D01*
X72512619Y-91958442D01*
X72513777Y-91953220D01*
X72524264Y-91914087D01*
X72520735Y-91873758D01*
X72520500Y-91868355D01*
X72520500Y-82371920D01*
X72520736Y-82366513D01*
X72522792Y-82343022D01*
X72524264Y-82326193D01*
X72513782Y-82287076D01*
X72512616Y-82281818D01*
X72505588Y-82241955D01*
X72505586Y-82241952D01*
X72505586Y-82241950D01*
X72503760Y-82236933D01*
X72496820Y-82220176D01*
X72494554Y-82215319D01*
X72494554Y-82215316D01*
X72471339Y-82182162D01*
X72468433Y-82177599D01*
X72448196Y-82142548D01*
X72448195Y-82142547D01*
X72448194Y-82142545D01*
X72417177Y-82116518D01*
X72413193Y-82112867D01*
X72156823Y-81856497D01*
X72123338Y-81795174D01*
X72128322Y-81725482D01*
X72133496Y-81713562D01*
X72150582Y-81679250D01*
X72206397Y-81483083D01*
X72225215Y-81280000D01*
X72206397Y-81076917D01*
X72150582Y-80880750D01*
X72059673Y-80698179D01*
X71936764Y-80535421D01*
X71936762Y-80535418D01*
X71786041Y-80398019D01*
X71786039Y-80398017D01*
X71612642Y-80290655D01*
X71612635Y-80290651D01*
X71495187Y-80245152D01*
X71422456Y-80216976D01*
X71221976Y-80179500D01*
X71018024Y-80179500D01*
X70817544Y-80216976D01*
X70817541Y-80216976D01*
X70817541Y-80216977D01*
X70627364Y-80290651D01*
X70627357Y-80290655D01*
X70453960Y-80398017D01*
X70453958Y-80398019D01*
X70303237Y-80535418D01*
X70180327Y-80698178D01*
X70106952Y-80845535D01*
X70059449Y-80896772D01*
X69991786Y-80914193D01*
X69925446Y-80892267D01*
X69908271Y-80877944D01*
X69511819Y-80481492D01*
X69478334Y-80420169D01*
X69475500Y-80393811D01*
X69475500Y-78489999D01*
X70047471Y-78489999D01*
X70047472Y-78490000D01*
X70686314Y-78490000D01*
X70660507Y-78530156D01*
X70620000Y-78668111D01*
X70620000Y-78811889D01*
X70660507Y-78949844D01*
X70686314Y-78990000D01*
X70047472Y-78990000D01*
X70089885Y-79139065D01*
X70089890Y-79139078D01*
X70180754Y-79321556D01*
X70303608Y-79484242D01*
X70454260Y-79621578D01*
X70627584Y-79728897D01*
X70817678Y-79802539D01*
X70870000Y-79812320D01*
X70870000Y-79175501D01*
X70977685Y-79224680D01*
X71084237Y-79240000D01*
X71155763Y-79240000D01*
X71262315Y-79224680D01*
X71370000Y-79175501D01*
X71370000Y-79812320D01*
X71422321Y-79802539D01*
X71612415Y-79728897D01*
X71785739Y-79621578D01*
X71936391Y-79484242D01*
X72059245Y-79321556D01*
X72150109Y-79139078D01*
X72150114Y-79139065D01*
X72192528Y-78990000D01*
X71553686Y-78990000D01*
X71579493Y-78949844D01*
X71620000Y-78811889D01*
X71620000Y-78668111D01*
X71579493Y-78530156D01*
X71553686Y-78490000D01*
X72192528Y-78490000D01*
X72192528Y-78489999D01*
X72150114Y-78340934D01*
X72150109Y-78340921D01*
X72059245Y-78158443D01*
X71936391Y-77995757D01*
X71785739Y-77858421D01*
X71612413Y-77751101D01*
X71422315Y-77677458D01*
X71422309Y-77677456D01*
X71370001Y-77667677D01*
X71370000Y-77667679D01*
X71370000Y-78304498D01*
X71262315Y-78255320D01*
X71155763Y-78240000D01*
X71084237Y-78240000D01*
X70977685Y-78255320D01*
X70870000Y-78304498D01*
X70870000Y-77667679D01*
X70869998Y-77667677D01*
X70817690Y-77677456D01*
X70817684Y-77677458D01*
X70627586Y-77751101D01*
X70454260Y-77858421D01*
X70303608Y-77995757D01*
X70180754Y-78158443D01*
X70089890Y-78340921D01*
X70089885Y-78340934D01*
X70047471Y-78489999D01*
X69475500Y-78489999D01*
X69475500Y-75315188D01*
X69495185Y-75248149D01*
X69547989Y-75202394D01*
X69617147Y-75192450D01*
X69680703Y-75221475D01*
X69687181Y-75227507D01*
X70083175Y-75623501D01*
X70116660Y-75684824D01*
X70111676Y-75754516D01*
X70106495Y-75766452D01*
X70089423Y-75800738D01*
X70089417Y-75800752D01*
X70033602Y-75996917D01*
X70014785Y-76199999D01*
X70014785Y-76200000D01*
X70033602Y-76403082D01*
X70089417Y-76599247D01*
X70089422Y-76599260D01*
X70180327Y-76781821D01*
X70303237Y-76944581D01*
X70453958Y-77081980D01*
X70453960Y-77081982D01*
X70553141Y-77143392D01*
X70627363Y-77189348D01*
X70817544Y-77263024D01*
X71018024Y-77300500D01*
X71018026Y-77300500D01*
X71221974Y-77300500D01*
X71221976Y-77300500D01*
X71422456Y-77263024D01*
X71612637Y-77189348D01*
X71786041Y-77081981D01*
X71936764Y-76944579D01*
X72059673Y-76781821D01*
X72150582Y-76599250D01*
X72206397Y-76403083D01*
X72225215Y-76200000D01*
X72206397Y-75996917D01*
X72150582Y-75800750D01*
X72150576Y-75800738D01*
X72062323Y-75623501D01*
X72059673Y-75618179D01*
X72000704Y-75540091D01*
X71936762Y-75455418D01*
X71786041Y-75318019D01*
X71786039Y-75318017D01*
X71612642Y-75210655D01*
X71612635Y-75210651D01*
X71517546Y-75173814D01*
X71422456Y-75136976D01*
X71221976Y-75099500D01*
X71018024Y-75099500D01*
X70901281Y-75121323D01*
X70817538Y-75136977D01*
X70676478Y-75191624D01*
X70606855Y-75197486D01*
X70545115Y-75164776D01*
X70544004Y-75163678D01*
X69811819Y-74431493D01*
X69778334Y-74370170D01*
X69775500Y-74343812D01*
X69775500Y-73759784D01*
X69795185Y-73692745D01*
X69833518Y-73659528D01*
X69809997Y-73646036D01*
X69777807Y-73584023D01*
X69775500Y-73560215D01*
X69775500Y-73075188D01*
X69795185Y-73008149D01*
X69847989Y-72962394D01*
X69917147Y-72952450D01*
X69980703Y-72981475D01*
X69987181Y-72987507D01*
X70083175Y-73083501D01*
X70116660Y-73144824D01*
X70111676Y-73214516D01*
X70106495Y-73226452D01*
X70089423Y-73260738D01*
X70089417Y-73260752D01*
X70033602Y-73456917D01*
X70022971Y-73571656D01*
X69997185Y-73636593D01*
X69965638Y-73659191D01*
X69980703Y-73666071D01*
X70018477Y-73724849D01*
X70022971Y-73748343D01*
X70033602Y-73863082D01*
X70089417Y-74059247D01*
X70089422Y-74059260D01*
X70180327Y-74241821D01*
X70303237Y-74404581D01*
X70453958Y-74541980D01*
X70453960Y-74541982D01*
X70518904Y-74582193D01*
X70627363Y-74649348D01*
X70817544Y-74723024D01*
X71018024Y-74760500D01*
X71018026Y-74760500D01*
X71221974Y-74760500D01*
X71221976Y-74760500D01*
X71422456Y-74723024D01*
X71612637Y-74649348D01*
X71786041Y-74541981D01*
X71936764Y-74404579D01*
X72059673Y-74241821D01*
X72150582Y-74059250D01*
X72206397Y-73863083D01*
X72225215Y-73660000D01*
X72206397Y-73456917D01*
X72150582Y-73260750D01*
X72150576Y-73260738D01*
X72062323Y-73083501D01*
X72059673Y-73078179D01*
X71936764Y-72915421D01*
X71936762Y-72915418D01*
X71786041Y-72778019D01*
X71786039Y-72778017D01*
X71612642Y-72670655D01*
X71612635Y-72670651D01*
X71517546Y-72633814D01*
X71422456Y-72596976D01*
X71221976Y-72559500D01*
X71018024Y-72559500D01*
X70866739Y-72587779D01*
X70817538Y-72596977D01*
X70676478Y-72651624D01*
X70606855Y-72657486D01*
X70545115Y-72624776D01*
X70544004Y-72623678D01*
X70111819Y-72191493D01*
X70078334Y-72130170D01*
X70075500Y-72103812D01*
X70075500Y-71932973D01*
X70095185Y-71865934D01*
X70147989Y-71820179D01*
X70217147Y-71810235D01*
X70280703Y-71839260D01*
X70298451Y-71858242D01*
X70303236Y-71864579D01*
X70303238Y-71864581D01*
X70303239Y-71864582D01*
X70453958Y-72001980D01*
X70453960Y-72001982D01*
X70494776Y-72027254D01*
X70627363Y-72109348D01*
X70817544Y-72183024D01*
X71018024Y-72220500D01*
X71018026Y-72220500D01*
X71221974Y-72220500D01*
X71221976Y-72220500D01*
X71422456Y-72183024D01*
X71612637Y-72109348D01*
X71786041Y-72001981D01*
X71936764Y-71864579D01*
X72059673Y-71701821D01*
X72150582Y-71519250D01*
X72206397Y-71323083D01*
X72225215Y-71120000D01*
X72220894Y-71073373D01*
X72206397Y-70916917D01*
X72190370Y-70860588D01*
X72150582Y-70720750D01*
X72115102Y-70649497D01*
X72092944Y-70604997D01*
X72059673Y-70538179D01*
X71936764Y-70375421D01*
X71936762Y-70375418D01*
X71786041Y-70238019D01*
X71786039Y-70238017D01*
X71612642Y-70130655D01*
X71612635Y-70130651D01*
X71517546Y-70093814D01*
X71422456Y-70056976D01*
X71221976Y-70019500D01*
X71018024Y-70019500D01*
X70866739Y-70047779D01*
X70817538Y-70056977D01*
X70676478Y-70111624D01*
X70606855Y-70117486D01*
X70545115Y-70084776D01*
X70544004Y-70083678D01*
X70411819Y-69951493D01*
X70378334Y-69890170D01*
X70375500Y-69863812D01*
X70375500Y-69636023D01*
X70395185Y-69568984D01*
X70447989Y-69523229D01*
X70517147Y-69513285D01*
X70564773Y-69530594D01*
X70627363Y-69569348D01*
X70817544Y-69643024D01*
X71018024Y-69680500D01*
X71018026Y-69680500D01*
X71221974Y-69680500D01*
X71221976Y-69680500D01*
X71422456Y-69643024D01*
X71612637Y-69569348D01*
X71786041Y-69461981D01*
X71936764Y-69324579D01*
X72059673Y-69161821D01*
X72150582Y-68979250D01*
X72206397Y-68783083D01*
X72225215Y-68580000D01*
X72206397Y-68376917D01*
X72150582Y-68180750D01*
X72129708Y-68138830D01*
X72059673Y-67998180D01*
X72059673Y-67998179D01*
X71948151Y-67850500D01*
X71936762Y-67835418D01*
X71786041Y-67698019D01*
X71786039Y-67698017D01*
X71612640Y-67590653D01*
X71612634Y-67590650D01*
X71509566Y-67550722D01*
X71454164Y-67508149D01*
X71432243Y-67456623D01*
X71430587Y-67447232D01*
X71428765Y-67442227D01*
X71421815Y-67425448D01*
X71419554Y-67420599D01*
X71419553Y-67420598D01*
X71419553Y-67420596D01*
X71396333Y-67387434D01*
X71393435Y-67382884D01*
X71374450Y-67350001D01*
X71373194Y-67347825D01*
X71373191Y-67347822D01*
X71373190Y-67347821D01*
X71344584Y-67323818D01*
X71305881Y-67265647D01*
X71304772Y-67195786D01*
X71341609Y-67136416D01*
X71401505Y-67106940D01*
X71422456Y-67103024D01*
X71612637Y-67029348D01*
X71786041Y-66921981D01*
X71927308Y-66793199D01*
X71936762Y-66784581D01*
X71936764Y-66784579D01*
X72059673Y-66621821D01*
X72150582Y-66439250D01*
X72206397Y-66243083D01*
X72225215Y-66040000D01*
X72206397Y-65836917D01*
X72150582Y-65640750D01*
X72146077Y-65631703D01*
X72080248Y-65499500D01*
X72059673Y-65458179D01*
X71936764Y-65295421D01*
X71936762Y-65295418D01*
X71786041Y-65158019D01*
X71786039Y-65158017D01*
X71612642Y-65050655D01*
X71612635Y-65050651D01*
X71491382Y-65003678D01*
X71422456Y-64976976D01*
X71221976Y-64939500D01*
X71018024Y-64939500D01*
X70817544Y-64976976D01*
X70817541Y-64976976D01*
X70817541Y-64976977D01*
X70627364Y-65050651D01*
X70627357Y-65050655D01*
X70453960Y-65158017D01*
X70453958Y-65158019D01*
X70303237Y-65295418D01*
X70176872Y-65462754D01*
X70175369Y-65461619D01*
X70129670Y-65502554D01*
X70060685Y-65513634D01*
X69996660Y-65485658D01*
X69988629Y-65478303D01*
X69411819Y-64901493D01*
X69378334Y-64840170D01*
X69375500Y-64813812D01*
X69375500Y-63585188D01*
X69395185Y-63518149D01*
X69447989Y-63472394D01*
X69517147Y-63462450D01*
X69580703Y-63491475D01*
X69587173Y-63497500D01*
X69721312Y-63631639D01*
X69807868Y-63718195D01*
X69811523Y-63722184D01*
X69837541Y-63753190D01*
X69837542Y-63753191D01*
X69837545Y-63753194D01*
X69866387Y-63769845D01*
X69872604Y-63773435D01*
X69877154Y-63776333D01*
X69910316Y-63799553D01*
X69910318Y-63799553D01*
X69910319Y-63799554D01*
X69915168Y-63801815D01*
X69931947Y-63808765D01*
X69936952Y-63810587D01*
X69936953Y-63810587D01*
X69936955Y-63810588D01*
X69976829Y-63817618D01*
X69982093Y-63818786D01*
X69987851Y-63820328D01*
X70006272Y-63825264D01*
X70065931Y-63861630D01*
X70086215Y-63894439D01*
X70086862Y-63894118D01*
X70180327Y-64081821D01*
X70303237Y-64244581D01*
X70453958Y-64381980D01*
X70453960Y-64381982D01*
X70516210Y-64420525D01*
X70627363Y-64489348D01*
X70817544Y-64563024D01*
X71018024Y-64600500D01*
X71018026Y-64600500D01*
X71221974Y-64600500D01*
X71221976Y-64600500D01*
X71422456Y-64563024D01*
X71612637Y-64489348D01*
X71786041Y-64381981D01*
X71936764Y-64244579D01*
X72059673Y-64081821D01*
X72150582Y-63899250D01*
X72206397Y-63703083D01*
X72225215Y-63500000D01*
X72206397Y-63296917D01*
X72150582Y-63100750D01*
X72149465Y-63098507D01*
X72091638Y-62982374D01*
X72059673Y-62918179D01*
X71936764Y-62755421D01*
X71936762Y-62755418D01*
X71786041Y-62618019D01*
X71786039Y-62618017D01*
X71612642Y-62510655D01*
X71612635Y-62510651D01*
X71517546Y-62473814D01*
X71422456Y-62436976D01*
X71221976Y-62399500D01*
X71018024Y-62399500D01*
X70817544Y-62436976D01*
X70817541Y-62436976D01*
X70817541Y-62436977D01*
X70627364Y-62510651D01*
X70627357Y-62510655D01*
X70453960Y-62618017D01*
X70453958Y-62618019D01*
X70303237Y-62755418D01*
X70180328Y-62918176D01*
X70180323Y-62918185D01*
X70173434Y-62932020D01*
X70125930Y-62983256D01*
X70058266Y-63000676D01*
X69991927Y-62978749D01*
X69974754Y-62964427D01*
X69711819Y-62701492D01*
X69678334Y-62640169D01*
X69675500Y-62613811D01*
X69675500Y-61185188D01*
X69695185Y-61118149D01*
X69747989Y-61072394D01*
X69817147Y-61062450D01*
X69880703Y-61091475D01*
X69887157Y-61097483D01*
X69952755Y-61163082D01*
X69967868Y-61178195D01*
X69971523Y-61182184D01*
X69997541Y-61213190D01*
X69997542Y-61213191D01*
X69997545Y-61213194D01*
X69997549Y-61213196D01*
X69997550Y-61213197D01*
X70014234Y-61222830D01*
X70062450Y-61273396D01*
X70071501Y-61296281D01*
X70089419Y-61359254D01*
X70180327Y-61541821D01*
X70303237Y-61704581D01*
X70453958Y-61841980D01*
X70453960Y-61841982D01*
X70495750Y-61867857D01*
X70627363Y-61949348D01*
X70817544Y-62023024D01*
X71018024Y-62060500D01*
X71018026Y-62060500D01*
X71221974Y-62060500D01*
X71221976Y-62060500D01*
X71422456Y-62023024D01*
X71612637Y-61949348D01*
X71786041Y-61841981D01*
X71936764Y-61704579D01*
X72059673Y-61541821D01*
X72150582Y-61359250D01*
X72206397Y-61163083D01*
X72225215Y-60960000D01*
X72206397Y-60756917D01*
X72150582Y-60560750D01*
X72140273Y-60540047D01*
X72100323Y-60459815D01*
X72059673Y-60378179D01*
X71976333Y-60267819D01*
X71936762Y-60215418D01*
X71786041Y-60078019D01*
X71786039Y-60078017D01*
X71612642Y-59970655D01*
X71612635Y-59970651D01*
X71517546Y-59933814D01*
X71422456Y-59896976D01*
X71221976Y-59859500D01*
X71018024Y-59859500D01*
X70817544Y-59896976D01*
X70817541Y-59896976D01*
X70817541Y-59896977D01*
X70627364Y-59970651D01*
X70627357Y-59970655D01*
X70453960Y-60078017D01*
X70453958Y-60078019D01*
X70303236Y-60215419D01*
X70303234Y-60215422D01*
X70298452Y-60221755D01*
X70242342Y-60263390D01*
X70172630Y-60268080D01*
X70111449Y-60234336D01*
X70078224Y-60172872D01*
X70075500Y-60147026D01*
X70075500Y-59232973D01*
X70095185Y-59165934D01*
X70147989Y-59120179D01*
X70217147Y-59110235D01*
X70280703Y-59139260D01*
X70298451Y-59158242D01*
X70303236Y-59164579D01*
X70303238Y-59164581D01*
X70303239Y-59164582D01*
X70453958Y-59301980D01*
X70453960Y-59301982D01*
X70495750Y-59327857D01*
X70627363Y-59409348D01*
X70817544Y-59483024D01*
X71018024Y-59520500D01*
X71018026Y-59520500D01*
X71221974Y-59520500D01*
X71221976Y-59520500D01*
X71422456Y-59483024D01*
X71612637Y-59409348D01*
X71786041Y-59301981D01*
X71936764Y-59164579D01*
X72059673Y-59001821D01*
X72150582Y-58819250D01*
X72206397Y-58623083D01*
X72225215Y-58420000D01*
X72206397Y-58216917D01*
X72150582Y-58020750D01*
X72130314Y-57980047D01*
X72074937Y-57868834D01*
X72059673Y-57838179D01*
X71960475Y-57706819D01*
X71936762Y-57675418D01*
X71786041Y-57538019D01*
X71786039Y-57538017D01*
X71612642Y-57430655D01*
X71612635Y-57430651D01*
X71517546Y-57393814D01*
X71422456Y-57356976D01*
X71221976Y-57319500D01*
X71221974Y-57319500D01*
X71181188Y-57319500D01*
X71114149Y-57299815D01*
X71093507Y-57283181D01*
X71002507Y-57192181D01*
X70969022Y-57130858D01*
X70974006Y-57061166D01*
X71015878Y-57005233D01*
X71081342Y-56980816D01*
X71090188Y-56980500D01*
X71221974Y-56980500D01*
X71221976Y-56980500D01*
X71422456Y-56943024D01*
X71612637Y-56869348D01*
X71786041Y-56761981D01*
X71936764Y-56624579D01*
X72059673Y-56461821D01*
X72150582Y-56279250D01*
X72206397Y-56083083D01*
X72225215Y-55880000D01*
X72206397Y-55676917D01*
X72150582Y-55480750D01*
X72130314Y-55440047D01*
X72069958Y-55318834D01*
X72059673Y-55298179D01*
X71948151Y-55150500D01*
X71936762Y-55135418D01*
X71786041Y-54998019D01*
X71786039Y-54998017D01*
X71612642Y-54890655D01*
X71612635Y-54890651D01*
X71517546Y-54853814D01*
X71422456Y-54816976D01*
X71221976Y-54779500D01*
X71018024Y-54779500D01*
X70817544Y-54816976D01*
X70817541Y-54816976D01*
X70817541Y-54816977D01*
X70627364Y-54890651D01*
X70627359Y-54890654D01*
X70540173Y-54944636D01*
X70472812Y-54963190D01*
X70406113Y-54942381D01*
X70387216Y-54926889D01*
X67641966Y-52181639D01*
X67608481Y-52120316D01*
X67607235Y-52108732D01*
X67606909Y-52108779D01*
X67602577Y-52078650D01*
X67612520Y-52009492D01*
X67658275Y-51956688D01*
X67725315Y-51937003D01*
X67792354Y-51956687D01*
X67812994Y-51973320D01*
X68608507Y-52768834D01*
X69397868Y-53558195D01*
X69401523Y-53562184D01*
X69427541Y-53593190D01*
X69427542Y-53593191D01*
X69427545Y-53593194D01*
X69453180Y-53607994D01*
X69462604Y-53613435D01*
X69467154Y-53616333D01*
X69500316Y-53639553D01*
X69500318Y-53639553D01*
X69500319Y-53639554D01*
X69505168Y-53641815D01*
X69521947Y-53648765D01*
X69526952Y-53650587D01*
X69526953Y-53650587D01*
X69526955Y-53650588D01*
X69566829Y-53657618D01*
X69572092Y-53658786D01*
X69583907Y-53661951D01*
X69611193Y-53669263D01*
X69651510Y-53665735D01*
X69656912Y-53665500D01*
X69975917Y-53665500D01*
X70042956Y-53685185D01*
X70086917Y-53734229D01*
X70180325Y-53921819D01*
X70303237Y-54084581D01*
X70453958Y-54221980D01*
X70453960Y-54221982D01*
X70528048Y-54267855D01*
X70627363Y-54329348D01*
X70817544Y-54403024D01*
X71018024Y-54440500D01*
X71018026Y-54440500D01*
X71221974Y-54440500D01*
X71221976Y-54440500D01*
X71422456Y-54403024D01*
X71612637Y-54329348D01*
X71786041Y-54221981D01*
X71936764Y-54084579D01*
X72059673Y-53921821D01*
X72150582Y-53739250D01*
X72206397Y-53543083D01*
X72225215Y-53340000D01*
X72206397Y-53136917D01*
X72150582Y-52940750D01*
X72059673Y-52758179D01*
X72000704Y-52680091D01*
X71936762Y-52595418D01*
X71786041Y-52458019D01*
X71786039Y-52458017D01*
X71612642Y-52350655D01*
X71612635Y-52350651D01*
X71517546Y-52313814D01*
X71422456Y-52276976D01*
X71221976Y-52239500D01*
X71018024Y-52239500D01*
X70817544Y-52276976D01*
X70817541Y-52276976D01*
X70817541Y-52276977D01*
X70627364Y-52350651D01*
X70627357Y-52350655D01*
X70453960Y-52458017D01*
X70453958Y-52458019D01*
X70303237Y-52595418D01*
X70180325Y-52758180D01*
X70086917Y-52945771D01*
X70039414Y-52997009D01*
X69975917Y-53014500D01*
X69826189Y-53014500D01*
X69759150Y-52994815D01*
X69738508Y-52978181D01*
X68434955Y-51674628D01*
X70020000Y-51674628D01*
X70034503Y-51747540D01*
X70034505Y-51747544D01*
X70089760Y-51830239D01*
X70172455Y-51885494D01*
X70172459Y-51885496D01*
X70245371Y-51899999D01*
X70245374Y-51900000D01*
X70870000Y-51900000D01*
X70870000Y-51235501D01*
X70977685Y-51284680D01*
X71084237Y-51300000D01*
X71155763Y-51300000D01*
X71262315Y-51284680D01*
X71370000Y-51235501D01*
X71370000Y-51900000D01*
X71994626Y-51900000D01*
X71994628Y-51899999D01*
X72067540Y-51885496D01*
X72067544Y-51885494D01*
X72150239Y-51830239D01*
X72205494Y-51747544D01*
X72205496Y-51747540D01*
X72219999Y-51674628D01*
X72220000Y-51674626D01*
X72220000Y-51050000D01*
X71553686Y-51050000D01*
X71579493Y-51009844D01*
X71620000Y-50871889D01*
X71620000Y-50728111D01*
X71579493Y-50590156D01*
X71553686Y-50550000D01*
X72220000Y-50550000D01*
X72220000Y-49925373D01*
X72219999Y-49925371D01*
X72205496Y-49852459D01*
X72205494Y-49852455D01*
X72150239Y-49769760D01*
X72067544Y-49714505D01*
X72067540Y-49714503D01*
X71994627Y-49700000D01*
X71370000Y-49700000D01*
X71370000Y-50364498D01*
X71262315Y-50315320D01*
X71155763Y-50300000D01*
X71084237Y-50300000D01*
X70977685Y-50315320D01*
X70870000Y-50364498D01*
X70870000Y-49700000D01*
X70245373Y-49700000D01*
X70172459Y-49714503D01*
X70172455Y-49714505D01*
X70089760Y-49769760D01*
X70034505Y-49852455D01*
X70034503Y-49852459D01*
X70020000Y-49925371D01*
X70020000Y-50550000D01*
X70686314Y-50550000D01*
X70660507Y-50590156D01*
X70620000Y-50728111D01*
X70620000Y-50871889D01*
X70660507Y-51009844D01*
X70686314Y-51050000D01*
X70020000Y-51050000D01*
X70020000Y-51674628D01*
X68434955Y-51674628D01*
X67641966Y-50881639D01*
X67608481Y-50820316D01*
X67607235Y-50808732D01*
X67606909Y-50808779D01*
X67585165Y-50657543D01*
X67525377Y-50526628D01*
X67525376Y-50526626D01*
X67475618Y-50469202D01*
X67431128Y-50417857D01*
X67310053Y-50340047D01*
X67310051Y-50340046D01*
X67310049Y-50340045D01*
X67310050Y-50340045D01*
X67171963Y-50299500D01*
X67171961Y-50299500D01*
X67028039Y-50299500D01*
X67028036Y-50299500D01*
X66889949Y-50340045D01*
X66768873Y-50417856D01*
X66674623Y-50526626D01*
X66674622Y-50526628D01*
X66614834Y-50657543D01*
X66594353Y-50800000D01*
X66614834Y-50942456D01*
X66645610Y-51009844D01*
X66674623Y-51073373D01*
X66768872Y-51182143D01*
X66889947Y-51259953D01*
X66889950Y-51259954D01*
X66889949Y-51259954D01*
X66974160Y-51284680D01*
X67026336Y-51300000D01*
X67028036Y-51300499D01*
X67028038Y-51300500D01*
X67028039Y-51300500D01*
X67088812Y-51300500D01*
X67155851Y-51320185D01*
X67176493Y-51336819D01*
X67227493Y-51387819D01*
X67260978Y-51449142D01*
X67255994Y-51518834D01*
X67214122Y-51574767D01*
X67148658Y-51599184D01*
X67139812Y-51599500D01*
X67028036Y-51599500D01*
X66889949Y-51640045D01*
X66768873Y-51717856D01*
X66674623Y-51826626D01*
X66674622Y-51826628D01*
X66614834Y-51957543D01*
X66594353Y-52100000D01*
X66614834Y-52242456D01*
X66664248Y-52350655D01*
X66674623Y-52373373D01*
X66768872Y-52482143D01*
X66889947Y-52559953D01*
X66889950Y-52559954D01*
X66889949Y-52559954D01*
X67028036Y-52600499D01*
X67028038Y-52600500D01*
X67028039Y-52600500D01*
X67088812Y-52600500D01*
X67155851Y-52620185D01*
X67176493Y-52636819D01*
X67177493Y-52637819D01*
X67210978Y-52699142D01*
X67205994Y-52768834D01*
X67164122Y-52824767D01*
X67098658Y-52849184D01*
X67089812Y-52849500D01*
X67028036Y-52849500D01*
X66889949Y-52890045D01*
X66768873Y-52967856D01*
X66674623Y-53076626D01*
X66674622Y-53076628D01*
X66614834Y-53207543D01*
X66594353Y-53350000D01*
X66614834Y-53492456D01*
X66670084Y-53613435D01*
X66674623Y-53623373D01*
X66720594Y-53676427D01*
X66740091Y-53698928D01*
X66769115Y-53762484D01*
X66769905Y-53769318D01*
X66770735Y-53778809D01*
X66781212Y-53817910D01*
X66782383Y-53823190D01*
X66789411Y-53863043D01*
X66791235Y-53868055D01*
X66798197Y-53884861D01*
X66800445Y-53889681D01*
X66800446Y-53889684D01*
X66814452Y-53909687D01*
X66823655Y-53922831D01*
X66826561Y-53927392D01*
X66846806Y-53962455D01*
X66877815Y-53988475D01*
X66881805Y-53992131D01*
X66896669Y-54006995D01*
X66930154Y-54068318D01*
X66925170Y-54138010D01*
X66883298Y-54193943D01*
X66876028Y-54198991D01*
X66768874Y-54267855D01*
X66674623Y-54376626D01*
X66674622Y-54376628D01*
X66614834Y-54507543D01*
X66594353Y-54650000D01*
X66614834Y-54792456D01*
X66659681Y-54890655D01*
X66674623Y-54923373D01*
X66768872Y-55032143D01*
X66889947Y-55109953D01*
X66889950Y-55109954D01*
X66889949Y-55109954D01*
X67028036Y-55150499D01*
X67028038Y-55150500D01*
X67028039Y-55150500D01*
X67088812Y-55150500D01*
X67155851Y-55170185D01*
X67176493Y-55186819D01*
X67177493Y-55187819D01*
X67210978Y-55249142D01*
X67205994Y-55318834D01*
X67164122Y-55374767D01*
X67098658Y-55399184D01*
X67089812Y-55399500D01*
X67028036Y-55399500D01*
X66889949Y-55440045D01*
X66768873Y-55517856D01*
X66674623Y-55626626D01*
X66674622Y-55626628D01*
X66614834Y-55757543D01*
X66594353Y-55900000D01*
X66614834Y-56042456D01*
X66633388Y-56083082D01*
X66674623Y-56173373D01*
X66768872Y-56282143D01*
X66889947Y-56359953D01*
X66889950Y-56359954D01*
X66889949Y-56359954D01*
X67028036Y-56400499D01*
X67028038Y-56400500D01*
X67028039Y-56400500D01*
X67088812Y-56400500D01*
X67155851Y-56420185D01*
X67176493Y-56436819D01*
X67177493Y-56437819D01*
X67210978Y-56499142D01*
X67205994Y-56568834D01*
X67164122Y-56624767D01*
X67098658Y-56649184D01*
X67089812Y-56649500D01*
X67028036Y-56649500D01*
X66889949Y-56690045D01*
X66768873Y-56767856D01*
X66674623Y-56876626D01*
X66674622Y-56876628D01*
X66614834Y-57007543D01*
X66594353Y-57150000D01*
X66614834Y-57292456D01*
X66674622Y-57423371D01*
X66674623Y-57423373D01*
X66768872Y-57532143D01*
X66889947Y-57609953D01*
X66889950Y-57609954D01*
X66889949Y-57609954D01*
X67028036Y-57650499D01*
X67028038Y-57650500D01*
X67028039Y-57650500D01*
X67088812Y-57650500D01*
X67155851Y-57670185D01*
X67176493Y-57686819D01*
X67227493Y-57737819D01*
X67260978Y-57799142D01*
X67255994Y-57868834D01*
X67214122Y-57924767D01*
X67148658Y-57949184D01*
X67139812Y-57949500D01*
X67028036Y-57949500D01*
X66889949Y-57990045D01*
X66768873Y-58067856D01*
X66674623Y-58176626D01*
X66674622Y-58176628D01*
X66614834Y-58307543D01*
X66594353Y-58450000D01*
X66614834Y-58592456D01*
X66660950Y-58693433D01*
X66674623Y-58723373D01*
X66768872Y-58832143D01*
X66889947Y-58909953D01*
X66889950Y-58909954D01*
X66889949Y-58909954D01*
X67028036Y-58950499D01*
X67028038Y-58950500D01*
X67028039Y-58950500D01*
X67088812Y-58950500D01*
X67155851Y-58970185D01*
X67176493Y-58986819D01*
X67177493Y-58987819D01*
X67210978Y-59049142D01*
X67205994Y-59118834D01*
X67164122Y-59174767D01*
X67098658Y-59199184D01*
X67089812Y-59199500D01*
X67028036Y-59199500D01*
X66889949Y-59240045D01*
X66768873Y-59317856D01*
X66674623Y-59426626D01*
X66674622Y-59426628D01*
X66614834Y-59557543D01*
X66594353Y-59700000D01*
X66614834Y-59842456D01*
X66673380Y-59970651D01*
X66674623Y-59973373D01*
X66768872Y-60082143D01*
X66889947Y-60159953D01*
X66889950Y-60159954D01*
X66889949Y-60159954D01*
X67028036Y-60200499D01*
X67028038Y-60200500D01*
X67028039Y-60200500D01*
X67088812Y-60200500D01*
X67155851Y-60220185D01*
X67176493Y-60236819D01*
X67227493Y-60287819D01*
X67260978Y-60349142D01*
X67255994Y-60418834D01*
X67214122Y-60474767D01*
X67148658Y-60499184D01*
X67139812Y-60499500D01*
X67028036Y-60499500D01*
X66889949Y-60540045D01*
X66768873Y-60617856D01*
X66674623Y-60726626D01*
X66674622Y-60726628D01*
X66614834Y-60857543D01*
X66594353Y-61000000D01*
X66614834Y-61142456D01*
X66657000Y-61234785D01*
X66674623Y-61273373D01*
X66768872Y-61382143D01*
X66889947Y-61459953D01*
X66889950Y-61459954D01*
X66889949Y-61459954D01*
X67028036Y-61500499D01*
X67028038Y-61500500D01*
X67028039Y-61500500D01*
X67088812Y-61500500D01*
X67155851Y-61520185D01*
X67176493Y-61536819D01*
X67177493Y-61537819D01*
X67210978Y-61599142D01*
X67205994Y-61668834D01*
X67164122Y-61724767D01*
X67098658Y-61749184D01*
X67089812Y-61749500D01*
X67028036Y-61749500D01*
X66889949Y-61790045D01*
X66768873Y-61867856D01*
X66674623Y-61976626D01*
X66674622Y-61976628D01*
X66614834Y-62107543D01*
X66594353Y-62250000D01*
X66614834Y-62392456D01*
X66652461Y-62474846D01*
X66674623Y-62523373D01*
X66768872Y-62632143D01*
X66889947Y-62709953D01*
X66889950Y-62709954D01*
X66889949Y-62709954D01*
X67028036Y-62750499D01*
X67028038Y-62750500D01*
X67028039Y-62750500D01*
X67088812Y-62750500D01*
X67155851Y-62770185D01*
X67176493Y-62786819D01*
X67488181Y-63098507D01*
X67521666Y-63159830D01*
X67524500Y-63186188D01*
X67524500Y-63664811D01*
X67504815Y-63731850D01*
X67452011Y-63777605D01*
X67382853Y-63787549D01*
X67319297Y-63758524D01*
X67312819Y-63752492D01*
X67191966Y-63631639D01*
X67158481Y-63570316D01*
X67157235Y-63558732D01*
X67156909Y-63558779D01*
X67151067Y-63518149D01*
X67135165Y-63407543D01*
X67075377Y-63276627D01*
X66981128Y-63167857D01*
X66860053Y-63090047D01*
X66860051Y-63090046D01*
X66860049Y-63090045D01*
X66860050Y-63090045D01*
X66721963Y-63049500D01*
X66721961Y-63049500D01*
X66578039Y-63049500D01*
X66578036Y-63049500D01*
X66439949Y-63090045D01*
X66318873Y-63167856D01*
X66224623Y-63276626D01*
X66224622Y-63276628D01*
X66164834Y-63407543D01*
X66144353Y-63550000D01*
X66164834Y-63692456D01*
X66213745Y-63799554D01*
X66224623Y-63823373D01*
X66318872Y-63932143D01*
X66439947Y-64009953D01*
X66439950Y-64009954D01*
X66439949Y-64009954D01*
X66578036Y-64050499D01*
X66578038Y-64050500D01*
X66578039Y-64050500D01*
X66638812Y-64050500D01*
X66705851Y-64070185D01*
X66726493Y-64086819D01*
X67188181Y-64548507D01*
X67221666Y-64609830D01*
X67224500Y-64636188D01*
X67224500Y-65064812D01*
X67204815Y-65131851D01*
X67152011Y-65177606D01*
X67082853Y-65187550D01*
X67019297Y-65158525D01*
X67012819Y-65152493D01*
X66691966Y-64831640D01*
X66658481Y-64770317D01*
X66657235Y-64758732D01*
X66656909Y-64758779D01*
X66635165Y-64607543D01*
X66624790Y-64584826D01*
X66575377Y-64476627D01*
X66481128Y-64367857D01*
X66360053Y-64290047D01*
X66360051Y-64290046D01*
X66360049Y-64290045D01*
X66360050Y-64290045D01*
X66221963Y-64249500D01*
X66221961Y-64249500D01*
X66078039Y-64249500D01*
X66078036Y-64249500D01*
X65939949Y-64290045D01*
X65818873Y-64367856D01*
X65724623Y-64476626D01*
X65724622Y-64476628D01*
X65664834Y-64607543D01*
X65644353Y-64750000D01*
X65664834Y-64892456D01*
X65686319Y-64939500D01*
X65724623Y-65023373D01*
X65818872Y-65132143D01*
X65939947Y-65209953D01*
X65939950Y-65209954D01*
X65939949Y-65209954D01*
X66078036Y-65250499D01*
X66078038Y-65250500D01*
X66078039Y-65250500D01*
X66138812Y-65250500D01*
X66205851Y-65270185D01*
X66226493Y-65286819D01*
X66402493Y-65462819D01*
X66435978Y-65524142D01*
X66430994Y-65593834D01*
X66389122Y-65649767D01*
X66323658Y-65674184D01*
X66314812Y-65674500D01*
X66236838Y-65674500D01*
X66169799Y-65654815D01*
X66143127Y-65631704D01*
X66131128Y-65617857D01*
X66010053Y-65540047D01*
X66010051Y-65540046D01*
X66010049Y-65540045D01*
X66010050Y-65540045D01*
X65871963Y-65499500D01*
X65871961Y-65499500D01*
X65728039Y-65499500D01*
X65728036Y-65499500D01*
X65589949Y-65540045D01*
X65468873Y-65617856D01*
X65374623Y-65726626D01*
X65374622Y-65726628D01*
X65314834Y-65857543D01*
X65294353Y-66000000D01*
X65314834Y-66142456D01*
X65338824Y-66194985D01*
X65374623Y-66273373D01*
X65468872Y-66382143D01*
X65589947Y-66459953D01*
X65589950Y-66459954D01*
X65589949Y-66459954D01*
X65728036Y-66500499D01*
X65728038Y-66500500D01*
X65728039Y-66500500D01*
X65871962Y-66500500D01*
X65871962Y-66500499D01*
X66010053Y-66459953D01*
X66131128Y-66382143D01*
X66143126Y-66368296D01*
X66201903Y-66330523D01*
X66236838Y-66325500D01*
X66763812Y-66325500D01*
X66830851Y-66345185D01*
X66851493Y-66361819D01*
X68183181Y-67693507D01*
X68216666Y-67754830D01*
X68219500Y-67781188D01*
X68219500Y-70511284D01*
X68199815Y-70578323D01*
X68147011Y-70624078D01*
X68077853Y-70634022D01*
X68014297Y-70604997D01*
X68007819Y-70598965D01*
X67184291Y-69775437D01*
X67150806Y-69714114D01*
X67149236Y-69705417D01*
X67135165Y-69607543D01*
X67117720Y-69569344D01*
X67075379Y-69476630D01*
X67075376Y-69476626D01*
X67062685Y-69461980D01*
X66981128Y-69367857D01*
X66860053Y-69290047D01*
X66860051Y-69290046D01*
X66860049Y-69290045D01*
X66860050Y-69290045D01*
X66721963Y-69249500D01*
X66721961Y-69249500D01*
X66578039Y-69249500D01*
X66578036Y-69249500D01*
X66439949Y-69290045D01*
X66318873Y-69367856D01*
X66224623Y-69476626D01*
X66224622Y-69476628D01*
X66164834Y-69607543D01*
X66144353Y-69750000D01*
X66144353Y-69750002D01*
X66146057Y-69761855D01*
X66136113Y-69831013D01*
X66090357Y-69883816D01*
X66023319Y-69903500D01*
X66015189Y-69903500D01*
X65948150Y-69883815D01*
X65927508Y-69867181D01*
X65891966Y-69831639D01*
X65858481Y-69770316D01*
X65857235Y-69758732D01*
X65856909Y-69758779D01*
X65855503Y-69749002D01*
X65835165Y-69607543D01*
X65775377Y-69476627D01*
X65681128Y-69367857D01*
X65560053Y-69290047D01*
X65560051Y-69290046D01*
X65560049Y-69290045D01*
X65560050Y-69290045D01*
X65421963Y-69249500D01*
X65421961Y-69249500D01*
X65278039Y-69249500D01*
X65278036Y-69249500D01*
X65139949Y-69290045D01*
X65018873Y-69367856D01*
X64924623Y-69476626D01*
X64924622Y-69476628D01*
X64864834Y-69607543D01*
X64847737Y-69726458D01*
X64818712Y-69790013D01*
X64759933Y-69827787D01*
X64690064Y-69827787D01*
X64631286Y-69790012D01*
X64602262Y-69726458D01*
X64585165Y-69607543D01*
X64525377Y-69476627D01*
X64431128Y-69367857D01*
X64310053Y-69290047D01*
X64310051Y-69290046D01*
X64310049Y-69290045D01*
X64310050Y-69290045D01*
X64171963Y-69249500D01*
X64171961Y-69249500D01*
X64028039Y-69249500D01*
X64028036Y-69249500D01*
X63889949Y-69290045D01*
X63768873Y-69367856D01*
X63674623Y-69476626D01*
X63674622Y-69476628D01*
X63614834Y-69607543D01*
X63597737Y-69726458D01*
X63568712Y-69790013D01*
X63509933Y-69827787D01*
X63440064Y-69827787D01*
X63381286Y-69790012D01*
X63352262Y-69726458D01*
X63335165Y-69607543D01*
X63275377Y-69476627D01*
X63181128Y-69367857D01*
X63060053Y-69290047D01*
X63060051Y-69290046D01*
X63060049Y-69290045D01*
X63060050Y-69290045D01*
X62921963Y-69249500D01*
X62921961Y-69249500D01*
X62778039Y-69249500D01*
X62778036Y-69249500D01*
X62639949Y-69290045D01*
X62518873Y-69367856D01*
X62424623Y-69476626D01*
X62424622Y-69476628D01*
X62364834Y-69607543D01*
X62353634Y-69685446D01*
X62324609Y-69749002D01*
X62265831Y-69786776D01*
X62195961Y-69786776D01*
X62143215Y-69755480D01*
X62129441Y-69741706D01*
X62095956Y-69680383D01*
X62094385Y-69671673D01*
X62085165Y-69607543D01*
X62085163Y-69607539D01*
X62050024Y-69530596D01*
X62025377Y-69476627D01*
X61931128Y-69367857D01*
X61810053Y-69290047D01*
X61810051Y-69290046D01*
X61810049Y-69290045D01*
X61810050Y-69290045D01*
X61671963Y-69249500D01*
X61671961Y-69249500D01*
X61599500Y-69249500D01*
X61532461Y-69229815D01*
X61486706Y-69177011D01*
X61475500Y-69125500D01*
X61475500Y-67566920D01*
X61475736Y-67561513D01*
X61479264Y-67521193D01*
X61478134Y-67516976D01*
X61468782Y-67482076D01*
X61467616Y-67476818D01*
X61460588Y-67436955D01*
X61460585Y-67436950D01*
X61458729Y-67431848D01*
X61452514Y-67371788D01*
X61455647Y-67350001D01*
X61435165Y-67207543D01*
X61387432Y-67103024D01*
X61375377Y-67076627D01*
X61281128Y-66967857D01*
X61160053Y-66890047D01*
X61160051Y-66890046D01*
X61160049Y-66890045D01*
X61160050Y-66890045D01*
X61021963Y-66849500D01*
X61021961Y-66849500D01*
X60878039Y-66849500D01*
X60878036Y-66849500D01*
X60739949Y-66890045D01*
X60617039Y-66969035D01*
X60550000Y-66988719D01*
X60482961Y-66969035D01*
X60410213Y-66922283D01*
X60360053Y-66890047D01*
X60360051Y-66890046D01*
X60360049Y-66890045D01*
X60360050Y-66890045D01*
X60221963Y-66849500D01*
X60221961Y-66849500D01*
X60078039Y-66849500D01*
X60078036Y-66849500D01*
X59939949Y-66890045D01*
X59818873Y-66967856D01*
X59724623Y-67076626D01*
X59724622Y-67076628D01*
X59664834Y-67207543D01*
X59644353Y-67350000D01*
X59664834Y-67492456D01*
X59709680Y-67590653D01*
X59724623Y-67623373D01*
X59818872Y-67732143D01*
X59939947Y-67809953D01*
X59939950Y-67809954D01*
X59939949Y-67809954D01*
X60078036Y-67850499D01*
X60078038Y-67850500D01*
X60078039Y-67850500D01*
X60138812Y-67850500D01*
X60205851Y-67870185D01*
X60226493Y-67886819D01*
X60417181Y-68077507D01*
X60450666Y-68138830D01*
X60453500Y-68165188D01*
X60453500Y-69125500D01*
X60433815Y-69192539D01*
X60381011Y-69238294D01*
X60329500Y-69249500D01*
X60228036Y-69249500D01*
X60089949Y-69290045D01*
X59968873Y-69367856D01*
X59874623Y-69476626D01*
X59874622Y-69476628D01*
X59814834Y-69607543D01*
X59797738Y-69726457D01*
X59768713Y-69790012D01*
X59709935Y-69827787D01*
X59640065Y-69827787D01*
X59581287Y-69790013D01*
X59552262Y-69726457D01*
X59545654Y-69680500D01*
X59535165Y-69607543D01*
X59475377Y-69476627D01*
X59381128Y-69367857D01*
X59260053Y-69290047D01*
X59260051Y-69290046D01*
X59260049Y-69290045D01*
X59260050Y-69290045D01*
X59121963Y-69249500D01*
X59121961Y-69249500D01*
X58978039Y-69249500D01*
X58978036Y-69249500D01*
X58839949Y-69290045D01*
X58718872Y-69367857D01*
X58700816Y-69388694D01*
X58642037Y-69426467D01*
X58572168Y-69426465D01*
X58513390Y-69388690D01*
X58499721Y-69369494D01*
X58482194Y-69339136D01*
X58451177Y-69313109D01*
X58447193Y-69309458D01*
X54811819Y-65674084D01*
X54778334Y-65612761D01*
X54775500Y-65586403D01*
X54775500Y-63239510D01*
X54775736Y-63234103D01*
X54779264Y-63193783D01*
X54777229Y-63186188D01*
X54768782Y-63154666D01*
X54767616Y-63149408D01*
X54760588Y-63109545D01*
X54760586Y-63109542D01*
X54760586Y-63109540D01*
X54758760Y-63104523D01*
X54751820Y-63087766D01*
X54749554Y-63082909D01*
X54749554Y-63082906D01*
X54726339Y-63049752D01*
X54723433Y-63045189D01*
X54703196Y-63010138D01*
X54703195Y-63010137D01*
X54703194Y-63010135D01*
X54672177Y-62984108D01*
X54668193Y-62980457D01*
X53211819Y-61524083D01*
X53178334Y-61462760D01*
X53175500Y-61436402D01*
X53175500Y-53784887D01*
X53195185Y-53717848D01*
X53205782Y-53703689D01*
X53275377Y-53623373D01*
X53335165Y-53492457D01*
X53355647Y-53350000D01*
X53335165Y-53207543D01*
X53275377Y-53076627D01*
X53181128Y-52967857D01*
X53060053Y-52890047D01*
X53060051Y-52890046D01*
X53060049Y-52890045D01*
X53060050Y-52890045D01*
X52921963Y-52849500D01*
X52921961Y-52849500D01*
X52778039Y-52849500D01*
X52778036Y-52849500D01*
X52634434Y-52891665D01*
X52564565Y-52891665D01*
X52505787Y-52853890D01*
X52476762Y-52790335D01*
X52475500Y-52772688D01*
X52475500Y-52534887D01*
X52495185Y-52467848D01*
X52505782Y-52453689D01*
X52575377Y-52373373D01*
X52635165Y-52242457D01*
X52655647Y-52100000D01*
X52635165Y-51957543D01*
X52575377Y-51826627D01*
X52481128Y-51717857D01*
X52360053Y-51640047D01*
X52360051Y-51640046D01*
X52360049Y-51640045D01*
X52360050Y-51640045D01*
X52221963Y-51599500D01*
X52221961Y-51599500D01*
X52078039Y-51599500D01*
X52078036Y-51599500D01*
X51939949Y-51640045D01*
X51818873Y-51717856D01*
X51724623Y-51826626D01*
X51724622Y-51826628D01*
X51664834Y-51957543D01*
X51644353Y-52100000D01*
X51664834Y-52242456D01*
X51714248Y-52350655D01*
X51724623Y-52373373D01*
X51794213Y-52453685D01*
X51823238Y-52517240D01*
X51824500Y-52534887D01*
X51824500Y-52890500D01*
X51804815Y-52957539D01*
X51752011Y-53003294D01*
X51700500Y-53014500D01*
X49404083Y-53014500D01*
X49337044Y-52994815D01*
X49293083Y-52945771D01*
X49199674Y-52758180D01*
X49076762Y-52595418D01*
X48926041Y-52458019D01*
X48926039Y-52458017D01*
X48752642Y-52350655D01*
X48752635Y-52350651D01*
X48657546Y-52313814D01*
X48562456Y-52276976D01*
X48361976Y-52239500D01*
X48158024Y-52239500D01*
X47957544Y-52276976D01*
X47957541Y-52276976D01*
X47957541Y-52276977D01*
X47767364Y-52350651D01*
X47767357Y-52350655D01*
X47593960Y-52458017D01*
X47593958Y-52458019D01*
X47443237Y-52595418D01*
X47320327Y-52758178D01*
X47229422Y-52940739D01*
X47229417Y-52940752D01*
X47173602Y-53136917D01*
X47154785Y-53339999D01*
X47154785Y-53340000D01*
X47173602Y-53543082D01*
X47229417Y-53739247D01*
X47229422Y-53739260D01*
X47320327Y-53921821D01*
X47443237Y-54084581D01*
X47593958Y-54221980D01*
X47593960Y-54221982D01*
X47668048Y-54267855D01*
X47767363Y-54329348D01*
X47957544Y-54403024D01*
X48158024Y-54440500D01*
X48158026Y-54440500D01*
X48361974Y-54440500D01*
X48361976Y-54440500D01*
X48562456Y-54403024D01*
X48752637Y-54329348D01*
X48926041Y-54221981D01*
X49076764Y-54084579D01*
X49199673Y-53921821D01*
X49228941Y-53863043D01*
X49293083Y-53734229D01*
X49340586Y-53682991D01*
X49404083Y-53665500D01*
X52043267Y-53665500D01*
X52085676Y-53672978D01*
X52088100Y-53673860D01*
X52092606Y-53675500D01*
X52092613Y-53675500D01*
X52097867Y-53676427D01*
X52115868Y-53678797D01*
X52121191Y-53679263D01*
X52121192Y-53679262D01*
X52121193Y-53679263D01*
X52161511Y-53675735D01*
X52166912Y-53675500D01*
X52207394Y-53675500D01*
X52212676Y-53674568D01*
X52230375Y-53670644D01*
X52235541Y-53669260D01*
X52235542Y-53669259D01*
X52235545Y-53669259D01*
X52272223Y-53652154D01*
X52277224Y-53650083D01*
X52325459Y-53632529D01*
X52326809Y-53636239D01*
X52374741Y-53624579D01*
X52440783Y-53647389D01*
X52462632Y-53667238D01*
X52494213Y-53703685D01*
X52523238Y-53767240D01*
X52524500Y-53784887D01*
X52524500Y-54072688D01*
X52504815Y-54139727D01*
X52452011Y-54185482D01*
X52382853Y-54195426D01*
X52365566Y-54191665D01*
X52221963Y-54149500D01*
X52221961Y-54149500D01*
X52078039Y-54149500D01*
X52078036Y-54149500D01*
X51939949Y-54190045D01*
X51818873Y-54267856D01*
X51724623Y-54376626D01*
X51724622Y-54376628D01*
X51664834Y-54507543D01*
X51643091Y-54658779D01*
X51640126Y-54658352D01*
X51624668Y-54710997D01*
X51608038Y-54731634D01*
X51451491Y-54888182D01*
X51390170Y-54921666D01*
X51363812Y-54924500D01*
X48906922Y-54924500D01*
X48901518Y-54924264D01*
X48896107Y-54923790D01*
X48861192Y-54920735D01*
X48850387Y-54921681D01*
X48850027Y-54917574D01*
X48801254Y-54916405D01*
X48773757Y-54903729D01*
X48752637Y-54890652D01*
X48752635Y-54890651D01*
X48657546Y-54853814D01*
X48562456Y-54816976D01*
X48361976Y-54779500D01*
X48158024Y-54779500D01*
X47957544Y-54816976D01*
X47957541Y-54816976D01*
X47957541Y-54816977D01*
X47767364Y-54890651D01*
X47767357Y-54890655D01*
X47593960Y-54998017D01*
X47593958Y-54998019D01*
X47443237Y-55135418D01*
X47320327Y-55298178D01*
X47229422Y-55480739D01*
X47229417Y-55480752D01*
X47173602Y-55676917D01*
X47154785Y-55879999D01*
X47154785Y-55880000D01*
X47173602Y-56083082D01*
X47229417Y-56279247D01*
X47229422Y-56279260D01*
X47320327Y-56461821D01*
X47443237Y-56624581D01*
X47593958Y-56761980D01*
X47593960Y-56761982D01*
X47603447Y-56767856D01*
X47767363Y-56869348D01*
X47957544Y-56943024D01*
X48158024Y-56980500D01*
X48158026Y-56980500D01*
X48361974Y-56980500D01*
X48361976Y-56980500D01*
X48562456Y-56943024D01*
X48752637Y-56869348D01*
X48926041Y-56761981D01*
X49076764Y-56624579D01*
X49199673Y-56461821D01*
X49290582Y-56279250D01*
X49346397Y-56083083D01*
X49365215Y-55880000D01*
X49349550Y-55710941D01*
X49362965Y-55642371D01*
X49411322Y-55591939D01*
X49473021Y-55575500D01*
X51533078Y-55575500D01*
X51538481Y-55575735D01*
X51551149Y-55576844D01*
X51564884Y-55578046D01*
X51629953Y-55603499D01*
X51670931Y-55660090D01*
X51674809Y-55729852D01*
X51666872Y-55753082D01*
X51664834Y-55757542D01*
X51643091Y-55908778D01*
X51640126Y-55908351D01*
X51624668Y-55960996D01*
X51608034Y-55981638D01*
X51061820Y-56527853D01*
X50037531Y-57552143D01*
X49531493Y-58058181D01*
X49470170Y-58091666D01*
X49443812Y-58094500D01*
X49404083Y-58094500D01*
X49337044Y-58074815D01*
X49293083Y-58025771D01*
X49199674Y-57838180D01*
X49076762Y-57675418D01*
X48926041Y-57538019D01*
X48926039Y-57538017D01*
X48752642Y-57430655D01*
X48752635Y-57430651D01*
X48657546Y-57393814D01*
X48562456Y-57356976D01*
X48361976Y-57319500D01*
X48158024Y-57319500D01*
X47957544Y-57356976D01*
X47957541Y-57356976D01*
X47957541Y-57356977D01*
X47767364Y-57430651D01*
X47767357Y-57430655D01*
X47593960Y-57538017D01*
X47593958Y-57538019D01*
X47443237Y-57675418D01*
X47320327Y-57838178D01*
X47229422Y-58020739D01*
X47229417Y-58020752D01*
X47173602Y-58216917D01*
X47154785Y-58419999D01*
X47154785Y-58420000D01*
X47173602Y-58623082D01*
X47229417Y-58819247D01*
X47229422Y-58819260D01*
X47320327Y-59001821D01*
X47443237Y-59164581D01*
X47593958Y-59301980D01*
X47593960Y-59301982D01*
X47635750Y-59327857D01*
X47767363Y-59409348D01*
X47957544Y-59483024D01*
X48158024Y-59520500D01*
X48158026Y-59520500D01*
X48361974Y-59520500D01*
X48361976Y-59520500D01*
X48562456Y-59483024D01*
X48752637Y-59409348D01*
X48926041Y-59301981D01*
X49076764Y-59164579D01*
X49199673Y-59001821D01*
X49207143Y-58986819D01*
X49293083Y-58814229D01*
X49340586Y-58762991D01*
X49404083Y-58745500D01*
X49613078Y-58745500D01*
X49618481Y-58745735D01*
X49658807Y-58749264D01*
X49697940Y-58738777D01*
X49703162Y-58737619D01*
X49743045Y-58730588D01*
X49743050Y-58730584D01*
X49748099Y-58728747D01*
X49764824Y-58721819D01*
X49769679Y-58719555D01*
X49769684Y-58719554D01*
X49802851Y-58696328D01*
X49807399Y-58693433D01*
X49840746Y-58674180D01*
X49908644Y-58657710D01*
X49974671Y-58680562D01*
X50017861Y-58735484D01*
X50024502Y-58805037D01*
X49992485Y-58867140D01*
X49990424Y-58869250D01*
X48906320Y-59953354D01*
X48844997Y-59986839D01*
X48775305Y-59981855D01*
X48753372Y-59971106D01*
X48752649Y-59970658D01*
X48752635Y-59970651D01*
X48657546Y-59933814D01*
X48562456Y-59896976D01*
X48361976Y-59859500D01*
X48158024Y-59859500D01*
X47957544Y-59896976D01*
X47957541Y-59896976D01*
X47957541Y-59896977D01*
X47767364Y-59970651D01*
X47767357Y-59970655D01*
X47593960Y-60078017D01*
X47593958Y-60078019D01*
X47443237Y-60215418D01*
X47320327Y-60378178D01*
X47229422Y-60560739D01*
X47229417Y-60560752D01*
X47173602Y-60756917D01*
X47154785Y-60959999D01*
X47154785Y-60960000D01*
X47173602Y-61163082D01*
X47229417Y-61359247D01*
X47229422Y-61359260D01*
X47320327Y-61541821D01*
X47443237Y-61704581D01*
X47593958Y-61841980D01*
X47593960Y-61841982D01*
X47635750Y-61867857D01*
X47767363Y-61949348D01*
X47957544Y-62023024D01*
X48158024Y-62060500D01*
X48158026Y-62060500D01*
X48361974Y-62060500D01*
X48361976Y-62060500D01*
X48562456Y-62023024D01*
X48752637Y-61949348D01*
X48926041Y-61841981D01*
X49076764Y-61704579D01*
X49088867Y-61688551D01*
X49101546Y-61671763D01*
X49157655Y-61630126D01*
X49227366Y-61625435D01*
X49288549Y-61659177D01*
X49321776Y-61720640D01*
X49324500Y-61746489D01*
X49324500Y-61963810D01*
X49304815Y-62030849D01*
X49288181Y-62051491D01*
X48864825Y-62474846D01*
X48803502Y-62508331D01*
X48733810Y-62503347D01*
X48732351Y-62502792D01*
X48562461Y-62436977D01*
X48562456Y-62436976D01*
X48361976Y-62399500D01*
X48158024Y-62399500D01*
X47957544Y-62436976D01*
X47957541Y-62436976D01*
X47957541Y-62436977D01*
X47767364Y-62510651D01*
X47767357Y-62510655D01*
X47593960Y-62618017D01*
X47593958Y-62618019D01*
X47443237Y-62755418D01*
X47320327Y-62918178D01*
X47229422Y-63100739D01*
X47229417Y-63100752D01*
X47173602Y-63296917D01*
X47154785Y-63499999D01*
X47154785Y-63500000D01*
X47173602Y-63703082D01*
X47229417Y-63899247D01*
X47229422Y-63899260D01*
X47320327Y-64081821D01*
X47443237Y-64244581D01*
X47593958Y-64381980D01*
X47593960Y-64381982D01*
X47656210Y-64420525D01*
X47767363Y-64489348D01*
X47957544Y-64563024D01*
X48158024Y-64600500D01*
X48158026Y-64600500D01*
X48361974Y-64600500D01*
X48361976Y-64600500D01*
X48562456Y-64563024D01*
X48752637Y-64489348D01*
X48926041Y-64381981D01*
X49076764Y-64244579D01*
X49199673Y-64081821D01*
X49290582Y-63899250D01*
X49346397Y-63703083D01*
X49365215Y-63500000D01*
X49346397Y-63296917D01*
X49290582Y-63100750D01*
X49286802Y-63093160D01*
X49274539Y-63024377D01*
X49301410Y-62959881D01*
X49310100Y-62950224D01*
X49412822Y-62847503D01*
X49474142Y-62814021D01*
X49543834Y-62819005D01*
X49599767Y-62860877D01*
X49624184Y-62926342D01*
X49624500Y-62935187D01*
X49624500Y-64163811D01*
X49604815Y-64230850D01*
X49588181Y-64251492D01*
X48835994Y-65003678D01*
X48774671Y-65037163D01*
X48704979Y-65032179D01*
X48703557Y-65031638D01*
X48562456Y-64976976D01*
X48361976Y-64939500D01*
X48158024Y-64939500D01*
X47957544Y-64976976D01*
X47957541Y-64976976D01*
X47957541Y-64976977D01*
X47767364Y-65050651D01*
X47767357Y-65050655D01*
X47593960Y-65158017D01*
X47593958Y-65158019D01*
X47443237Y-65295418D01*
X47320327Y-65458178D01*
X47229422Y-65640739D01*
X47229417Y-65640752D01*
X47173602Y-65836917D01*
X47154785Y-66039999D01*
X47154785Y-66040000D01*
X47173602Y-66243082D01*
X47229417Y-66439247D01*
X47229422Y-66439260D01*
X47320327Y-66621821D01*
X47443237Y-66784581D01*
X47593958Y-66921980D01*
X47593960Y-66921982D01*
X47668050Y-66967856D01*
X47767363Y-67029348D01*
X47957544Y-67103024D01*
X48158024Y-67140500D01*
X48158026Y-67140500D01*
X48361974Y-67140500D01*
X48361976Y-67140500D01*
X48562456Y-67103024D01*
X48752637Y-67029348D01*
X48926041Y-66921981D01*
X49067308Y-66793199D01*
X49076762Y-66784581D01*
X49076764Y-66784579D01*
X49199673Y-66621821D01*
X49290582Y-66439250D01*
X49346397Y-66243083D01*
X49365215Y-66040000D01*
X49346397Y-65836917D01*
X49290582Y-65640750D01*
X49273503Y-65606452D01*
X49261243Y-65537669D01*
X49288116Y-65473174D01*
X49296813Y-65463511D01*
X50168204Y-64592120D01*
X50172166Y-64588489D01*
X50203194Y-64562455D01*
X50223438Y-64527390D01*
X50226335Y-64522841D01*
X50249554Y-64489684D01*
X50249554Y-64489681D01*
X50251819Y-64484824D01*
X50258747Y-64468099D01*
X50260584Y-64463050D01*
X50260588Y-64463045D01*
X50267619Y-64423162D01*
X50268777Y-64417940D01*
X50279264Y-64378807D01*
X50275735Y-64338481D01*
X50275500Y-64333078D01*
X50275500Y-62096188D01*
X50295185Y-62029149D01*
X50311819Y-62008507D01*
X51432672Y-60887654D01*
X51493995Y-60854169D01*
X51563687Y-60859153D01*
X51619620Y-60901025D01*
X51644037Y-60966489D01*
X51644353Y-60975335D01*
X51644353Y-60979999D01*
X51664834Y-61122456D01*
X51706275Y-61213197D01*
X51724623Y-61253373D01*
X51794213Y-61333685D01*
X51823238Y-61397240D01*
X51824500Y-61414887D01*
X51824500Y-66863812D01*
X51804815Y-66930851D01*
X51788181Y-66951493D01*
X50521493Y-68218181D01*
X50460170Y-68251666D01*
X50433812Y-68254500D01*
X49404083Y-68254500D01*
X49337044Y-68234815D01*
X49293083Y-68185771D01*
X49199674Y-67998180D01*
X49076762Y-67835418D01*
X48926041Y-67698019D01*
X48926039Y-67698017D01*
X48752642Y-67590655D01*
X48752639Y-67590653D01*
X48752637Y-67590652D01*
X48752636Y-67590651D01*
X48752635Y-67590651D01*
X48649565Y-67550722D01*
X48562456Y-67516976D01*
X48361976Y-67479500D01*
X48158024Y-67479500D01*
X47957544Y-67516976D01*
X47957541Y-67516976D01*
X47957541Y-67516977D01*
X47767364Y-67590651D01*
X47767357Y-67590655D01*
X47593960Y-67698017D01*
X47593958Y-67698019D01*
X47443237Y-67835418D01*
X47320327Y-67998178D01*
X47229422Y-68180739D01*
X47229417Y-68180752D01*
X47173602Y-68376917D01*
X47154785Y-68579999D01*
X47154785Y-68580000D01*
X47173602Y-68783082D01*
X47229417Y-68979247D01*
X47229422Y-68979260D01*
X47320327Y-69161821D01*
X47443237Y-69324581D01*
X47593958Y-69461980D01*
X47593960Y-69461982D01*
X47676818Y-69513285D01*
X47767363Y-69569348D01*
X47957544Y-69643024D01*
X48158024Y-69680500D01*
X48158026Y-69680500D01*
X48361974Y-69680500D01*
X48361976Y-69680500D01*
X48562456Y-69643024D01*
X48752637Y-69569348D01*
X48926041Y-69461981D01*
X49076764Y-69324579D01*
X49199673Y-69161821D01*
X49256774Y-69047147D01*
X49293083Y-68974229D01*
X49340586Y-68922991D01*
X49404083Y-68905500D01*
X50034812Y-68905500D01*
X50101851Y-68925185D01*
X50147606Y-68977989D01*
X50157550Y-69047147D01*
X50128525Y-69110703D01*
X50122497Y-69117176D01*
X49936787Y-69302886D01*
X49042190Y-70197481D01*
X48980867Y-70230966D01*
X48911175Y-70225982D01*
X48889232Y-70215227D01*
X48752642Y-70130655D01*
X48752635Y-70130651D01*
X48657546Y-70093814D01*
X48562456Y-70056976D01*
X48361976Y-70019500D01*
X48158024Y-70019500D01*
X47957544Y-70056976D01*
X47957541Y-70056976D01*
X47957541Y-70056977D01*
X47767364Y-70130651D01*
X47767357Y-70130655D01*
X47593960Y-70238017D01*
X47593958Y-70238019D01*
X47443237Y-70375418D01*
X47320327Y-70538178D01*
X47229422Y-70720739D01*
X47229417Y-70720752D01*
X47173602Y-70916917D01*
X47154785Y-71119999D01*
X47154785Y-71120000D01*
X47173602Y-71323082D01*
X47229417Y-71519247D01*
X47229422Y-71519260D01*
X47320327Y-71701821D01*
X47443237Y-71864581D01*
X47593958Y-72001980D01*
X47593960Y-72001982D01*
X47634776Y-72027254D01*
X47767363Y-72109348D01*
X47957544Y-72183024D01*
X48158024Y-72220500D01*
X48158026Y-72220500D01*
X48361974Y-72220500D01*
X48361976Y-72220500D01*
X48562456Y-72183024D01*
X48752637Y-72109348D01*
X48885224Y-72027253D01*
X48952583Y-72008698D01*
X49019282Y-72029506D01*
X49064144Y-72083071D01*
X49074500Y-72132681D01*
X49074500Y-72333810D01*
X49054815Y-72400849D01*
X49038181Y-72421491D01*
X48835994Y-72623677D01*
X48774671Y-72657162D01*
X48704979Y-72652178D01*
X48703520Y-72651623D01*
X48562461Y-72596977D01*
X48562456Y-72596976D01*
X48361976Y-72559500D01*
X48158024Y-72559500D01*
X47957544Y-72596976D01*
X47957541Y-72596976D01*
X47957541Y-72596977D01*
X47767364Y-72670651D01*
X47767357Y-72670655D01*
X47593960Y-72778017D01*
X47593958Y-72778019D01*
X47443237Y-72915418D01*
X47320327Y-73078178D01*
X47229422Y-73260739D01*
X47229417Y-73260752D01*
X47173602Y-73456917D01*
X47154785Y-73659999D01*
X47154785Y-73660000D01*
X47173602Y-73863082D01*
X47229417Y-74059247D01*
X47229422Y-74059260D01*
X47320327Y-74241821D01*
X47443237Y-74404581D01*
X47593958Y-74541980D01*
X47593960Y-74541982D01*
X47658904Y-74582193D01*
X47767363Y-74649348D01*
X47957544Y-74723024D01*
X48158024Y-74760500D01*
X48158026Y-74760500D01*
X48361974Y-74760500D01*
X48361976Y-74760500D01*
X48562456Y-74723024D01*
X48752637Y-74649348D01*
X48926041Y-74541981D01*
X49076764Y-74404579D01*
X49151546Y-74305552D01*
X49207655Y-74263915D01*
X49277366Y-74259224D01*
X49338549Y-74292966D01*
X49371776Y-74354429D01*
X49374500Y-74380278D01*
X49374500Y-75479721D01*
X49354815Y-75546760D01*
X49302011Y-75592515D01*
X49232853Y-75602459D01*
X49169297Y-75573434D01*
X49151546Y-75554448D01*
X49076762Y-75455419D01*
X48926041Y-75318019D01*
X48926039Y-75318017D01*
X48752642Y-75210655D01*
X48752635Y-75210651D01*
X48657546Y-75173814D01*
X48562456Y-75136976D01*
X48361976Y-75099500D01*
X48158024Y-75099500D01*
X47957544Y-75136976D01*
X47957541Y-75136976D01*
X47957541Y-75136977D01*
X47767364Y-75210651D01*
X47767357Y-75210655D01*
X47593960Y-75318017D01*
X47593958Y-75318019D01*
X47443237Y-75455418D01*
X47320327Y-75618178D01*
X47229422Y-75800739D01*
X47229417Y-75800752D01*
X47173602Y-75996917D01*
X47154785Y-76199999D01*
X47154785Y-76200000D01*
X47173602Y-76403082D01*
X47229417Y-76599247D01*
X47229422Y-76599260D01*
X47320327Y-76781821D01*
X47443237Y-76944581D01*
X47593958Y-77081980D01*
X47593960Y-77081982D01*
X47693141Y-77143392D01*
X47767363Y-77189348D01*
X47957544Y-77263024D01*
X48158024Y-77300500D01*
X48158026Y-77300500D01*
X48361974Y-77300500D01*
X48361976Y-77300500D01*
X48562456Y-77263024D01*
X48752637Y-77189348D01*
X48926041Y-77081981D01*
X49076764Y-76944579D01*
X49151546Y-76845552D01*
X49207655Y-76803915D01*
X49277366Y-76799224D01*
X49338549Y-76832966D01*
X49371776Y-76894429D01*
X49374500Y-76920278D01*
X49374500Y-78020551D01*
X49354815Y-78087590D01*
X49302011Y-78133345D01*
X49232853Y-78143289D01*
X49169297Y-78114264D01*
X49151546Y-78095278D01*
X49076391Y-77995758D01*
X48925739Y-77858421D01*
X48752413Y-77751101D01*
X48562315Y-77677458D01*
X48562309Y-77677456D01*
X48510001Y-77667677D01*
X48510000Y-77667679D01*
X48510000Y-78304498D01*
X48402315Y-78255320D01*
X48295763Y-78240000D01*
X48224237Y-78240000D01*
X48117685Y-78255320D01*
X48010000Y-78304498D01*
X48010000Y-77667679D01*
X48009998Y-77667677D01*
X47957690Y-77677456D01*
X47957684Y-77677458D01*
X47767586Y-77751101D01*
X47594260Y-77858421D01*
X47443608Y-77995757D01*
X47320754Y-78158443D01*
X47229890Y-78340921D01*
X47229885Y-78340934D01*
X47187471Y-78489999D01*
X47187472Y-78490000D01*
X47826314Y-78490000D01*
X47800507Y-78530156D01*
X47760000Y-78668111D01*
X47760000Y-78811889D01*
X47800507Y-78949844D01*
X47826314Y-78990000D01*
X47187472Y-78990000D01*
X47229885Y-79139065D01*
X47229890Y-79139078D01*
X47320754Y-79321556D01*
X47443608Y-79484242D01*
X47594260Y-79621578D01*
X47767584Y-79728897D01*
X47957678Y-79802539D01*
X48010000Y-79812320D01*
X48010000Y-79175501D01*
X48117685Y-79224680D01*
X48224237Y-79240000D01*
X48295763Y-79240000D01*
X48402315Y-79224680D01*
X48510000Y-79175501D01*
X48510000Y-79812320D01*
X48562321Y-79802539D01*
X48752415Y-79728897D01*
X48925739Y-79621578D01*
X49076391Y-79484242D01*
X49151546Y-79384721D01*
X49207655Y-79343085D01*
X49277367Y-79338394D01*
X49338549Y-79372136D01*
X49371776Y-79433599D01*
X49374500Y-79459448D01*
X49374500Y-79653811D01*
X49354815Y-79720850D01*
X49338181Y-79741492D01*
X48835994Y-80243678D01*
X48774671Y-80277163D01*
X48704979Y-80272179D01*
X48703557Y-80271638D01*
X48562456Y-80216976D01*
X48361976Y-80179500D01*
X48158024Y-80179500D01*
X47957544Y-80216976D01*
X47957541Y-80216976D01*
X47957541Y-80216977D01*
X47767364Y-80290651D01*
X47767357Y-80290655D01*
X47593960Y-80398017D01*
X47593958Y-80398019D01*
X47443237Y-80535418D01*
X47320327Y-80698178D01*
X47229422Y-80880739D01*
X47229417Y-80880752D01*
X47173602Y-81076917D01*
X47154785Y-81279999D01*
X47154785Y-81280000D01*
X47173602Y-81483082D01*
X47229417Y-81679247D01*
X47229422Y-81679260D01*
X47320327Y-81861821D01*
X47443237Y-82024581D01*
X47593958Y-82161980D01*
X47593960Y-82161982D01*
X47626554Y-82182163D01*
X47767363Y-82269348D01*
X47957544Y-82343024D01*
X48158024Y-82380500D01*
X48158026Y-82380500D01*
X48361974Y-82380500D01*
X48361976Y-82380500D01*
X48562456Y-82343024D01*
X48752637Y-82269348D01*
X48926041Y-82161981D01*
X49076764Y-82024579D01*
X49199673Y-81861821D01*
X49290582Y-81679250D01*
X49346397Y-81483083D01*
X49365215Y-81280000D01*
X49346397Y-81076917D01*
X49290582Y-80880750D01*
X49273503Y-80846452D01*
X49261243Y-80777669D01*
X49288116Y-80713174D01*
X49296803Y-80703521D01*
X49462822Y-80537503D01*
X49524142Y-80504021D01*
X49593834Y-80509005D01*
X49649767Y-80550877D01*
X49674184Y-80616341D01*
X49674500Y-80625187D01*
X49674500Y-81893811D01*
X49654815Y-81960850D01*
X49638181Y-81981492D01*
X48835994Y-82783678D01*
X48774671Y-82817163D01*
X48704979Y-82812179D01*
X48703557Y-82811638D01*
X48562456Y-82756976D01*
X48361976Y-82719500D01*
X48158024Y-82719500D01*
X47957544Y-82756976D01*
X47957541Y-82756976D01*
X47957541Y-82756977D01*
X47767364Y-82830651D01*
X47767357Y-82830655D01*
X47593960Y-82938017D01*
X47593958Y-82938019D01*
X47443237Y-83075418D01*
X47320327Y-83238178D01*
X47229422Y-83420739D01*
X47229417Y-83420752D01*
X47173602Y-83616917D01*
X47154785Y-83819999D01*
X47154785Y-83820000D01*
X47173602Y-84023082D01*
X47229417Y-84219247D01*
X47229422Y-84219260D01*
X47320327Y-84401821D01*
X47443237Y-84564581D01*
X47593958Y-84701980D01*
X47593960Y-84701982D01*
X47669807Y-84748944D01*
X47767363Y-84809348D01*
X47957544Y-84883024D01*
X48158024Y-84920500D01*
X48158026Y-84920500D01*
X48361974Y-84920500D01*
X48361976Y-84920500D01*
X48562456Y-84883024D01*
X48752637Y-84809348D01*
X48926041Y-84701981D01*
X49076764Y-84564579D01*
X49199673Y-84401821D01*
X49290582Y-84219250D01*
X49346397Y-84023083D01*
X49365215Y-83820000D01*
X49346397Y-83616917D01*
X49290582Y-83420750D01*
X49273503Y-83386452D01*
X49261243Y-83317669D01*
X49288116Y-83253174D01*
X49296813Y-83243511D01*
X49762820Y-82777505D01*
X49824142Y-82744021D01*
X49893834Y-82749005D01*
X49949767Y-82790877D01*
X49974184Y-82856341D01*
X49974500Y-82865187D01*
X49974500Y-84133811D01*
X49954815Y-84200850D01*
X49938181Y-84221492D01*
X48835994Y-85323678D01*
X48774671Y-85357163D01*
X48704979Y-85352179D01*
X48703557Y-85351638D01*
X48562456Y-85296976D01*
X48361976Y-85259500D01*
X48158024Y-85259500D01*
X47957544Y-85296976D01*
X47957541Y-85296976D01*
X47957541Y-85296977D01*
X47767364Y-85370651D01*
X47767357Y-85370655D01*
X47593960Y-85478017D01*
X47593958Y-85478019D01*
X47443237Y-85615418D01*
X47320327Y-85778178D01*
X47229422Y-85960739D01*
X47229417Y-85960752D01*
X47173602Y-86156917D01*
X47154785Y-86359999D01*
X47154785Y-86360000D01*
X47173602Y-86563082D01*
X47229417Y-86759247D01*
X47229422Y-86759260D01*
X47320327Y-86941821D01*
X47443237Y-87104581D01*
X47593958Y-87241980D01*
X47593960Y-87241982D01*
X47654113Y-87279227D01*
X47767363Y-87349348D01*
X47957544Y-87423024D01*
X48158024Y-87460500D01*
X48158026Y-87460500D01*
X48361974Y-87460500D01*
X48361976Y-87460500D01*
X48562456Y-87423024D01*
X48752637Y-87349348D01*
X48926041Y-87241981D01*
X49076764Y-87104579D01*
X49199673Y-86941821D01*
X49290582Y-86759250D01*
X49346397Y-86563083D01*
X49365215Y-86360000D01*
X49346397Y-86156917D01*
X49290582Y-85960750D01*
X49273503Y-85926452D01*
X49261243Y-85857669D01*
X49288116Y-85793174D01*
X49296813Y-85783511D01*
X50062820Y-85017505D01*
X50124142Y-84984021D01*
X50193834Y-84989005D01*
X50249767Y-85030877D01*
X50274184Y-85096341D01*
X50274500Y-85105187D01*
X50274500Y-86373811D01*
X50254815Y-86440850D01*
X50238181Y-86461492D01*
X48835994Y-87863678D01*
X48774671Y-87897163D01*
X48704979Y-87892179D01*
X48703557Y-87891638D01*
X48562456Y-87836976D01*
X48361976Y-87799500D01*
X48158024Y-87799500D01*
X47957544Y-87836976D01*
X47957541Y-87836976D01*
X47957541Y-87836977D01*
X47767364Y-87910651D01*
X47767357Y-87910655D01*
X47593960Y-88018017D01*
X47593958Y-88018019D01*
X47443237Y-88155418D01*
X47320327Y-88318178D01*
X47229422Y-88500739D01*
X47229417Y-88500752D01*
X47173602Y-88696917D01*
X47154785Y-88899999D01*
X47154785Y-88900000D01*
X47173602Y-89103082D01*
X47229417Y-89299247D01*
X47229422Y-89299260D01*
X47320327Y-89481821D01*
X47443237Y-89644581D01*
X47593958Y-89781980D01*
X47593960Y-89781982D01*
X47669807Y-89828944D01*
X47767363Y-89889348D01*
X47957544Y-89963024D01*
X48158024Y-90000500D01*
X48158026Y-90000500D01*
X48361974Y-90000500D01*
X48361976Y-90000500D01*
X48562456Y-89963024D01*
X48752637Y-89889348D01*
X48926041Y-89781981D01*
X49076764Y-89644579D01*
X49199673Y-89481821D01*
X49290582Y-89299250D01*
X49346397Y-89103083D01*
X49365215Y-88900000D01*
X49346397Y-88696917D01*
X49290582Y-88500750D01*
X49273503Y-88466452D01*
X49261243Y-88397669D01*
X49288116Y-88333174D01*
X49296813Y-88323511D01*
X50362820Y-87257504D01*
X50424142Y-87224021D01*
X50493834Y-87229005D01*
X50549767Y-87270877D01*
X50574184Y-87336341D01*
X50574500Y-87345187D01*
X50574500Y-88613811D01*
X50554815Y-88680850D01*
X50538181Y-88701492D01*
X48835994Y-90403678D01*
X48774671Y-90437163D01*
X48704979Y-90432179D01*
X48703557Y-90431638D01*
X48562456Y-90376976D01*
X48361976Y-90339500D01*
X48158024Y-90339500D01*
X47957544Y-90376976D01*
X47957541Y-90376976D01*
X47957541Y-90376977D01*
X47767364Y-90450651D01*
X47767357Y-90450655D01*
X47593960Y-90558017D01*
X47593958Y-90558019D01*
X47443237Y-90695418D01*
X47320327Y-90858178D01*
X47229422Y-91040739D01*
X47229417Y-91040752D01*
X47173602Y-91236917D01*
X47154785Y-91439999D01*
X47154785Y-91440000D01*
X47173602Y-91643082D01*
X47229417Y-91839247D01*
X47229422Y-91839260D01*
X47320327Y-92021821D01*
X47443237Y-92184581D01*
X47593958Y-92321980D01*
X47593960Y-92321982D01*
X47692636Y-92383079D01*
X47767363Y-92429348D01*
X47957544Y-92503024D01*
X48158024Y-92540500D01*
X48158026Y-92540500D01*
X48361974Y-92540500D01*
X48361976Y-92540500D01*
X48562456Y-92503024D01*
X48752637Y-92429348D01*
X48926041Y-92321981D01*
X49076764Y-92184579D01*
X49199673Y-92021821D01*
X49290582Y-91839250D01*
X49346397Y-91643083D01*
X49365215Y-91440000D01*
X49346397Y-91236917D01*
X49290582Y-91040750D01*
X49273503Y-91006452D01*
X49261243Y-90937669D01*
X49288116Y-90873174D01*
X49296813Y-90863511D01*
X50662820Y-89497504D01*
X50724142Y-89464021D01*
X50793834Y-89469005D01*
X50849767Y-89510877D01*
X50874184Y-89576341D01*
X50874500Y-89585187D01*
X50874500Y-90853811D01*
X50854815Y-90920850D01*
X50838181Y-90941492D01*
X48835994Y-92943678D01*
X48774671Y-92977163D01*
X48704979Y-92972179D01*
X48703557Y-92971638D01*
X48562456Y-92916976D01*
X48361976Y-92879500D01*
X48158024Y-92879500D01*
X47957544Y-92916976D01*
X47957541Y-92916976D01*
X47957541Y-92916977D01*
X47767364Y-92990651D01*
X47767357Y-92990655D01*
X47593960Y-93098017D01*
X47593958Y-93098019D01*
X47443237Y-93235418D01*
X47320327Y-93398178D01*
X47229422Y-93580739D01*
X47229417Y-93580752D01*
X47173602Y-93776917D01*
X47154785Y-93979999D01*
X47154785Y-93980000D01*
X47173602Y-94183082D01*
X47229417Y-94379247D01*
X47229422Y-94379260D01*
X47320327Y-94561821D01*
X47443237Y-94724581D01*
X47593958Y-94861980D01*
X47593960Y-94861982D01*
X47693141Y-94923392D01*
X47767363Y-94969348D01*
X47957544Y-95043024D01*
X48158024Y-95080500D01*
X48158026Y-95080500D01*
X48361974Y-95080500D01*
X48361976Y-95080500D01*
X48562456Y-95043024D01*
X48752637Y-94969348D01*
X48926041Y-94861981D01*
X49076764Y-94724579D01*
X49199673Y-94561821D01*
X49290582Y-94379250D01*
X49346397Y-94183083D01*
X49365215Y-93980000D01*
X49346397Y-93776917D01*
X49290582Y-93580750D01*
X49273503Y-93546452D01*
X49261243Y-93477669D01*
X49288116Y-93413174D01*
X49296813Y-93403511D01*
X50962820Y-91737504D01*
X51024142Y-91704021D01*
X51093834Y-91709005D01*
X51149767Y-91750877D01*
X51174184Y-91816341D01*
X51174500Y-91825187D01*
X51174500Y-93093811D01*
X51154815Y-93160850D01*
X51138181Y-93181492D01*
X48835994Y-95483678D01*
X48774671Y-95517163D01*
X48704979Y-95512179D01*
X48703557Y-95511638D01*
X48562456Y-95456976D01*
X48361976Y-95419500D01*
X48158024Y-95419500D01*
X47957544Y-95456976D01*
X47957541Y-95456976D01*
X47957541Y-95456977D01*
X47767364Y-95530651D01*
X47767357Y-95530655D01*
X47593960Y-95638017D01*
X47593958Y-95638019D01*
X47443237Y-95775418D01*
X47320327Y-95938178D01*
X47229422Y-96120739D01*
X47229417Y-96120752D01*
X47173602Y-96316917D01*
X47154785Y-96519999D01*
X47154785Y-96520000D01*
X47173602Y-96723082D01*
X47229417Y-96919247D01*
X47229422Y-96919260D01*
X47320327Y-97101821D01*
X47443237Y-97264581D01*
X47593958Y-97401980D01*
X47593960Y-97401982D01*
X47693141Y-97463392D01*
X47767363Y-97509348D01*
X47957544Y-97583024D01*
X48158024Y-97620500D01*
X48158026Y-97620500D01*
X48361974Y-97620500D01*
X48361976Y-97620500D01*
X48562456Y-97583024D01*
X48752637Y-97509348D01*
X48926041Y-97401981D01*
X49076764Y-97264579D01*
X49199673Y-97101821D01*
X49290582Y-96919250D01*
X49346397Y-96723083D01*
X49365215Y-96520000D01*
X49346397Y-96316917D01*
X49290582Y-96120750D01*
X49273503Y-96086452D01*
X49261243Y-96017669D01*
X49288116Y-95953174D01*
X49296813Y-95943511D01*
X51262820Y-93977504D01*
X51324142Y-93944021D01*
X51393834Y-93949005D01*
X51449767Y-93990877D01*
X51474184Y-94056341D01*
X51474500Y-94065187D01*
X51474500Y-95263811D01*
X51454815Y-95330850D01*
X51438181Y-95351492D01*
X48785540Y-98004132D01*
X48724217Y-98037617D01*
X48654525Y-98032633D01*
X48653135Y-98032104D01*
X48562456Y-97996976D01*
X48361976Y-97959500D01*
X48158024Y-97959500D01*
X47957544Y-97996976D01*
X47957541Y-97996976D01*
X47957541Y-97996977D01*
X47767364Y-98070651D01*
X47767357Y-98070655D01*
X47593960Y-98178017D01*
X47593958Y-98178019D01*
X47443237Y-98315418D01*
X47320327Y-98478178D01*
X47229422Y-98660739D01*
X47229417Y-98660752D01*
X47173602Y-98856917D01*
X47154785Y-99059999D01*
X47154785Y-99060000D01*
X46500000Y-99060000D01*
X46500000Y-51674628D01*
X47160000Y-51674628D01*
X47174503Y-51747540D01*
X47174505Y-51747544D01*
X47229760Y-51830239D01*
X47312455Y-51885494D01*
X47312459Y-51885496D01*
X47385371Y-51899999D01*
X47385374Y-51900000D01*
X48010000Y-51900000D01*
X48010000Y-51235501D01*
X48117685Y-51284680D01*
X48224237Y-51300000D01*
X48295763Y-51300000D01*
X48402315Y-51284680D01*
X48510000Y-51235501D01*
X48510000Y-51900000D01*
X49134626Y-51900000D01*
X49134628Y-51899999D01*
X49207540Y-51885496D01*
X49207544Y-51885494D01*
X49290239Y-51830239D01*
X49345494Y-51747544D01*
X49345496Y-51747540D01*
X49359999Y-51674628D01*
X49360000Y-51674626D01*
X49360000Y-51050000D01*
X48693686Y-51050000D01*
X48719493Y-51009844D01*
X48760000Y-50871889D01*
X48760000Y-50728111D01*
X48719493Y-50590156D01*
X48693686Y-50550000D01*
X49360000Y-50550000D01*
X49360000Y-49925373D01*
X49359999Y-49925371D01*
X49345496Y-49852459D01*
X49345494Y-49852455D01*
X49290239Y-49769760D01*
X49207544Y-49714505D01*
X49207540Y-49714503D01*
X49134627Y-49700000D01*
X48510000Y-49700000D01*
X48510000Y-50364498D01*
X48402315Y-50315320D01*
X48295763Y-50300000D01*
X48224237Y-50300000D01*
X48117685Y-50315320D01*
X48010000Y-50364498D01*
X48010000Y-49700000D01*
X47385373Y-49700000D01*
X47312459Y-49714503D01*
X47312455Y-49714505D01*
X47229760Y-49769760D01*
X47174505Y-49852455D01*
X47174503Y-49852459D01*
X47160000Y-49925371D01*
X47160000Y-50550000D01*
X47826314Y-50550000D01*
X47800507Y-50590156D01*
X47760000Y-50728111D01*
X47760000Y-50871889D01*
X47800507Y-51009844D01*
X47826314Y-51050000D01*
X47160000Y-51050000D01*
X47160000Y-51674628D01*
X46500000Y-51674628D01*
X46500000Y-49124000D01*
X46519685Y-49056961D01*
X46572489Y-49011206D01*
X46624000Y-49000000D01*
X72776000Y-49000000D01*
X72843039Y-49019685D01*
G37*
%TD.AperFunction*%
%TD*%
M02*
