M48
INCH
T1C0.0118
T2C0.0295
T3C0.0315
T4C0.0394
%
G90
G05
T1
X2.0177Y-3.8228
X2.0531Y-2.0512
X2.0531Y-2.1516
X2.0531Y-2.2008
X2.0531Y-2.3008
X2.0531Y-2.3508
X2.0531Y-2.4008
X2.0531Y-2.2508
X2.0591Y-3.2421
X2.0748Y-2.7461
X2.0787Y-2.4508
X2.0807Y-2.1004
X2.0925Y-3.4724
X2.0984Y-2.5
X2.1142Y-3.1496
X2.1142Y-3.2618
X2.122Y-2.5512
X2.124Y-2.7461
X2.1732Y-2.7461
X2.2244Y-2.7461
X2.2343Y-2.2106
X2.2559Y-2.7874
X2.2736Y-2.7461
X2.2815Y-3.8228
X2.3012Y-3.0059
X2.3248Y-2.7461
X2.3248Y-3.1909
X2.3327Y-3.5157
X2.3681Y-2.6516
X2.372Y-3.4291
X2.374Y-2.7461
X2.3996Y-2.6516
X2.3996Y-2.8504
X2.4173Y-3.126
X2.4193Y-3.8228
X2.4252Y-2.7461
X2.4331Y-2.7776
X2.435Y-3.0827
X2.4626Y-2.8169
X2.4646Y-3.7067
X2.4744Y-2.7461
X2.4902Y-3.6732
X2.4902Y-3.4783
X2.4921Y-3.3169
X2.5236Y-2.7461
X2.5256Y-3.4882
X2.5295Y-3.3484
X2.5394Y-3.0354
X2.5394Y-3.1988
X2.5512Y-2.9055
X2.5571Y-3.3169
X2.5571Y-3.4606
X2.5591Y-3.0669
X2.5728Y-2.7461
X2.5728Y-3.5453
X2.5846Y-3.3484
X2.5906Y-3.0512
X2.5906Y-2.5984
X2.6043Y-2.5492
X2.6043Y-3.4862
X2.6142Y-2.9331
X2.6181Y-2.8976
X2.624Y-2.502
X2.624Y-2.7461
X2.6319Y-3.813
X2.6417Y-2.0
X2.6417Y-2.0512
X2.6417Y-2.1004
X2.6417Y-2.1516
X2.6417Y-2.2008
X2.6417Y-2.25
X2.6417Y-2.3012
X2.6417Y-2.3504
X2.6417Y-2.4016
X2.6417Y-2.4508
X2.6831Y-3.8228
X2.752Y-3.561
T2
X2.0354Y-3.9181
X2.2638Y-3.9181
X2.437Y-3.9181
X2.6654Y-3.9181
T4
X1.9Y-2.0
X1.9Y-2.1
X1.9Y-2.2
X1.9Y-2.3
X1.9Y-2.4
X1.9Y-2.5
X1.9Y-2.6
X1.9Y-2.7
X1.9Y-2.8
X1.9Y-2.9
X1.9Y-3.0
X1.9Y-3.1
X1.9Y-3.2
X1.9Y-3.3
X1.9Y-3.4
X1.9Y-3.5
X1.9Y-3.6
X1.9Y-3.7
X1.9Y-3.8
X1.9Y-3.9
X1.9Y-4.0
X1.9Y-4.1
X2.8Y-2.0
X2.8Y-2.1
X2.8Y-2.2
X2.8Y-2.3
X2.8Y-2.4
X2.8Y-2.5
X2.8Y-2.6
X2.8Y-2.7
X2.8Y-2.8
X2.8Y-2.9
X2.8Y-3.0
X2.8Y-3.1
X2.8Y-3.2
X2.8Y-3.3
X2.8Y-3.4
X2.8Y-3.5
X2.8Y-3.6
X2.8Y-3.7
X2.8Y-3.8
X2.8Y-3.9
X2.8Y-4.0
X2.8Y-4.1
T3
G00X1.9791Y-3.8827
M15
G01X1.9791Y-3.9142
M16
G05
G00X1.9791Y-4.0512
M15
G01X1.9791Y-4.0748
M16
G05
G00X2.3201Y-3.8827
M15
G01X2.3201Y-3.9142
M16
G05
G00X2.3201Y-4.0512
M15
G01X2.3201Y-4.0748
M16
G05
G00X2.3807Y-3.8827
M15
G01X2.3807Y-3.9142
M16
G05
G00X2.3807Y-4.0512
M15
G01X2.3807Y-4.0748
M16
G05
G00X2.7217Y-3.8827
M15
G01X2.7217Y-3.9142
M16
G05
G00X2.7217Y-4.0512
M15
G01X2.7217Y-4.0748
M16
G05
T0
M30
