%TF.GenerationSoftware,KiCad,Pcbnew,7.99.0-2389-gf842e6ac7a*%
%TF.CreationDate,2023-09-28T17:07:59+02:00*%
%TF.ProjectId,ESP32 PD Module,45535033-3220-4504-9420-4d6f64756c65,rev?*%
%TF.SameCoordinates,Original*%
%TF.FileFunction,Paste,Top*%
%TF.FilePolarity,Positive*%
%FSLAX46Y46*%
G04 Gerber Fmt 4.6, Leading zero omitted, Abs format (unit mm)*
G04 Created by KiCad (PCBNEW 7.99.0-2389-gf842e6ac7a) date 2023-09-28 17:07:59*
%MOMM*%
%LPD*%
G01*
G04 APERTURE LIST*
G04 Aperture macros list*
%AMRoundRect*
0 Rectangle with rounded corners*
0 $1 Rounding radius*
0 $2 $3 $4 $5 $6 $7 $8 $9 X,Y pos of 4 corners*
0 Add a 4 corners polygon primitive as box body*
4,1,4,$2,$3,$4,$5,$6,$7,$8,$9,$2,$3,0*
0 Add four circle primitives for the rounded corners*
1,1,$1+$1,$2,$3*
1,1,$1+$1,$4,$5*
1,1,$1+$1,$6,$7*
1,1,$1+$1,$8,$9*
0 Add four rect primitives between the rounded corners*
20,1,$1+$1,$2,$3,$4,$5,0*
20,1,$1+$1,$4,$5,$6,$7,0*
20,1,$1+$1,$6,$7,$8,$9,0*
20,1,$1+$1,$8,$9,$2,$3,0*%
G04 Aperture macros list end*
%ADD10RoundRect,0.135000X0.135000X0.185000X-0.135000X0.185000X-0.135000X-0.185000X0.135000X-0.185000X0*%
%ADD11R,0.300000X1.300000*%
%ADD12O,1.200000X1.800000*%
%ADD13O,1.200000X2.000000*%
%ADD14RoundRect,0.218750X-0.218750X-0.256250X0.218750X-0.256250X0.218750X0.256250X-0.218750X0.256250X0*%
%ADD15RoundRect,0.200000X0.200000X0.275000X-0.200000X0.275000X-0.200000X-0.275000X0.200000X-0.275000X0*%
%ADD16R,1.700000X1.000000*%
%ADD17RoundRect,0.250000X0.325000X0.650000X-0.325000X0.650000X-0.325000X-0.650000X0.325000X-0.650000X0*%
%ADD18R,1.500000X0.600000*%
%ADD19R,2.100000X3.300000*%
%ADD20RoundRect,0.225000X-0.225000X-0.250000X0.225000X-0.250000X0.225000X0.250000X-0.225000X0.250000X0*%
%ADD21R,2.000000X2.000000*%
%ADD22RoundRect,0.225000X-0.250000X0.225000X-0.250000X-0.225000X0.250000X-0.225000X0.250000X0.225000X0*%
%ADD23R,1.900000X4.500000*%
%ADD24R,1.500000X0.900000*%
%ADD25R,0.900000X1.500000*%
%ADD26R,0.900000X0.900000*%
%ADD27R,0.530000X0.990000*%
%ADD28RoundRect,0.140000X-0.140000X-0.170000X0.140000X-0.170000X0.140000X0.170000X-0.140000X0.170000X0*%
%ADD29RoundRect,0.140000X0.140000X0.170000X-0.140000X0.170000X-0.140000X-0.170000X0.140000X-0.170000X0*%
%ADD30RoundRect,0.135000X-0.135000X-0.185000X0.135000X-0.185000X0.135000X0.185000X-0.135000X0.185000X0*%
%ADD31RoundRect,0.200000X-0.200000X-0.275000X0.200000X-0.275000X0.200000X0.275000X-0.200000X0.275000X0*%
G04 APERTURE END LIST*
D10*
%TO.C,R12*%
X68760000Y-95700000D03*
X67740000Y-95700000D03*
%TD*%
D11*
%TO.C,USB2*%
X52850000Y-98260000D03*
X53350000Y-98260000D03*
X53850000Y-98260000D03*
X54350000Y-98260000D03*
X54850000Y-98260000D03*
X55350000Y-98260000D03*
X55850000Y-98260000D03*
X56350000Y-98260000D03*
X51250000Y-98260000D03*
X51550000Y-98260000D03*
X52050000Y-98260000D03*
X52350000Y-98260000D03*
X56850000Y-98260000D03*
X57150000Y-98260000D03*
X57650000Y-98260000D03*
X57950000Y-98260000D03*
D12*
X58930000Y-103200000D03*
D13*
X58930000Y-99020000D03*
X50270000Y-99020000D03*
D12*
X50270000Y-103200000D03*
%TD*%
D14*
%TO.C,D3*%
X53712500Y-83750000D03*
X55287500Y-83750000D03*
%TD*%
D15*
%TO.C,R3*%
X67375000Y-90750000D03*
X69025000Y-90750000D03*
%TD*%
D16*
%TO.C,SW2*%
X61500000Y-73590000D03*
X68100000Y-73590000D03*
X61500000Y-77290000D03*
X68100000Y-77290000D03*
%TD*%
D17*
%TO.C,C2*%
X55125000Y-88200000D03*
X52175000Y-88200000D03*
%TD*%
D18*
%TO.C,U4*%
X61950000Y-81750000D03*
X61950000Y-82750000D03*
X61950000Y-83750000D03*
X61950000Y-84750000D03*
X61950000Y-85750000D03*
X67950000Y-85750000D03*
X67950000Y-84750000D03*
X67950000Y-83750000D03*
X67950000Y-82750000D03*
X67950000Y-81750000D03*
D19*
X64950000Y-83750000D03*
%TD*%
D20*
%TO.C,C7*%
X57800000Y-87100000D03*
X59350000Y-87100000D03*
%TD*%
D21*
%TO.C,D1*%
X59250000Y-95250000D03*
X59250000Y-90850000D03*
%TD*%
D22*
%TO.C,C4*%
X62240000Y-91295000D03*
X62240000Y-92845000D03*
%TD*%
D10*
%TO.C,R1*%
X68010000Y-88100000D03*
X66990000Y-88100000D03*
%TD*%
D23*
%TO.C,L1*%
X52150000Y-93300000D03*
X55250000Y-93300000D03*
%TD*%
D24*
%TO.C,U2*%
X50915000Y-50820000D03*
X50915000Y-52090000D03*
X50915000Y-53360000D03*
X50915000Y-54630000D03*
X50915000Y-55900000D03*
X50915000Y-57170000D03*
X50915000Y-58440000D03*
X50915000Y-59710000D03*
X50915000Y-60980000D03*
X50915000Y-62250000D03*
X50915000Y-63520000D03*
X50915000Y-64790000D03*
X50915000Y-66060000D03*
X50915000Y-67330000D03*
D25*
X52680000Y-68580000D03*
X53950000Y-68580000D03*
X55220000Y-68580000D03*
X56490000Y-68580000D03*
X57760000Y-68580000D03*
X59030000Y-68580000D03*
X60300000Y-68580000D03*
X61570000Y-68580000D03*
X62840000Y-68580000D03*
X64110000Y-68580000D03*
X65380000Y-68580000D03*
X66650000Y-68580000D03*
D24*
X68415000Y-67330000D03*
X68415000Y-66060000D03*
X68415000Y-64790000D03*
X68415000Y-63520000D03*
X68415000Y-62250000D03*
X68415000Y-60980000D03*
X68415000Y-59710000D03*
X68415000Y-58440000D03*
X68415000Y-57170000D03*
X68415000Y-55900000D03*
X68415000Y-54630000D03*
X68415000Y-53360000D03*
X68415000Y-52090000D03*
X68415000Y-50820000D03*
D26*
X56765000Y-57140000D03*
X56765000Y-58540000D03*
X56765000Y-59940000D03*
X58165000Y-57140000D03*
X58165000Y-58540000D03*
X58165000Y-59940000D03*
X59565000Y-57140000D03*
X59565000Y-58540000D03*
X59565000Y-59940000D03*
%TD*%
D10*
%TO.C,R11*%
X60100000Y-83200000D03*
X59080000Y-83200000D03*
%TD*%
%TO.C,R7*%
X57710000Y-80900000D03*
X56690000Y-80900000D03*
%TD*%
%TO.C,R10*%
X60110000Y-81850000D03*
X59090000Y-81850000D03*
%TD*%
D27*
%TO.C,U3*%
X65900000Y-93300000D03*
X64950000Y-93300000D03*
X64000000Y-93300000D03*
X64000000Y-91000000D03*
X64950000Y-91000000D03*
X65900000Y-91000000D03*
%TD*%
D13*
%TO.C,USB1*%
X60470000Y-99020000D03*
X69130000Y-99020000D03*
D12*
X69130000Y-103200000D03*
X60470000Y-103200000D03*
D11*
X61450000Y-98260000D03*
X62250000Y-98260000D03*
X63550000Y-98260000D03*
X64550000Y-98260000D03*
X65050000Y-98260000D03*
X66050000Y-98260000D03*
X67350000Y-98260000D03*
X68150000Y-98260000D03*
X67850000Y-98260000D03*
X67050000Y-98260000D03*
X66550000Y-98260000D03*
X65550000Y-98260000D03*
X64050000Y-98260000D03*
X63050000Y-98260000D03*
X62550000Y-98260000D03*
X61750000Y-98260000D03*
%TD*%
D28*
%TO.C,C5*%
X58020000Y-71600000D03*
X58980000Y-71600000D03*
%TD*%
D29*
%TO.C,C6*%
X61900000Y-71600000D03*
X60940000Y-71600000D03*
%TD*%
D30*
%TO.C,R5*%
X51340000Y-71600000D03*
X52360000Y-71600000D03*
%TD*%
%TO.C,R9*%
X65250000Y-79950000D03*
X66270000Y-79950000D03*
%TD*%
D28*
%TO.C,C1*%
X61400000Y-80150000D03*
X62360000Y-80150000D03*
%TD*%
D30*
%TO.C,R6*%
X67490000Y-71600000D03*
X68510000Y-71600000D03*
%TD*%
D17*
%TO.C,C3*%
X65575000Y-95600000D03*
X62625000Y-95600000D03*
%TD*%
D28*
%TO.C,C8*%
X61620000Y-88350000D03*
X62580000Y-88350000D03*
%TD*%
D14*
%TO.C,D2*%
X53712500Y-80900000D03*
X55287500Y-80900000D03*
%TD*%
D31*
%TO.C,R4*%
X69075000Y-93150000D03*
X67425000Y-93150000D03*
%TD*%
D16*
%TO.C,SW1*%
X51870000Y-73590000D03*
X58470000Y-73590000D03*
X51870000Y-77290000D03*
X58470000Y-77290000D03*
%TD*%
D30*
%TO.C,R2*%
X67400000Y-80150000D03*
X68420000Y-80150000D03*
%TD*%
D10*
%TO.C,R8*%
X57710000Y-83750000D03*
X56690000Y-83750000D03*
%TD*%
M02*
