%TF.GenerationSoftware,KiCad,Pcbnew,7.99.0-2389-gf842e6ac7a*%
%TF.CreationDate,2023-09-28T17:07:59+02:00*%
%TF.ProjectId,ESP32 PD Module,45535033-3220-4504-9420-4d6f64756c65,rev?*%
%TF.SameCoordinates,Original*%
%TF.FileFunction,Copper,L1,Top*%
%TF.FilePolarity,Positive*%
%FSLAX46Y46*%
G04 Gerber Fmt 4.6, Leading zero omitted, Abs format (unit mm)*
G04 Created by KiCad (PCBNEW 7.99.0-2389-gf842e6ac7a) date 2023-09-28 17:07:59*
%MOMM*%
%LPD*%
G01*
G04 APERTURE LIST*
G04 Aperture macros list*
%AMRoundRect*
0 Rectangle with rounded corners*
0 $1 Rounding radius*
0 $2 $3 $4 $5 $6 $7 $8 $9 X,Y pos of 4 corners*
0 Add a 4 corners polygon primitive as box body*
4,1,4,$2,$3,$4,$5,$6,$7,$8,$9,$2,$3,0*
0 Add four circle primitives for the rounded corners*
1,1,$1+$1,$2,$3*
1,1,$1+$1,$4,$5*
1,1,$1+$1,$6,$7*
1,1,$1+$1,$8,$9*
0 Add four rect primitives between the rounded corners*
20,1,$1+$1,$2,$3,$4,$5,0*
20,1,$1+$1,$4,$5,$6,$7,0*
20,1,$1+$1,$6,$7,$8,$9,0*
20,1,$1+$1,$8,$9,$2,$3,0*%
G04 Aperture macros list end*
%TA.AperFunction,SMDPad,CuDef*%
%ADD10RoundRect,0.135000X0.135000X0.185000X-0.135000X0.185000X-0.135000X-0.185000X0.135000X-0.185000X0*%
%TD*%
%TA.AperFunction,ComponentPad*%
%ADD11R,1.700000X1.700000*%
%TD*%
%TA.AperFunction,ComponentPad*%
%ADD12O,1.700000X1.700000*%
%TD*%
%TA.AperFunction,SMDPad,CuDef*%
%ADD13R,0.300000X1.300000*%
%TD*%
%TA.AperFunction,ComponentPad*%
%ADD14O,1.200000X1.800000*%
%TD*%
%TA.AperFunction,ComponentPad*%
%ADD15O,1.200000X2.000000*%
%TD*%
%TA.AperFunction,ComponentPad*%
%ADD16C,0.750000*%
%TD*%
%TA.AperFunction,SMDPad,CuDef*%
%ADD17RoundRect,0.218750X-0.218750X-0.256250X0.218750X-0.256250X0.218750X0.256250X-0.218750X0.256250X0*%
%TD*%
%TA.AperFunction,SMDPad,CuDef*%
%ADD18RoundRect,0.200000X0.200000X0.275000X-0.200000X0.275000X-0.200000X-0.275000X0.200000X-0.275000X0*%
%TD*%
%TA.AperFunction,SMDPad,CuDef*%
%ADD19R,1.700000X1.000000*%
%TD*%
%TA.AperFunction,SMDPad,CuDef*%
%ADD20RoundRect,0.250000X0.325000X0.650000X-0.325000X0.650000X-0.325000X-0.650000X0.325000X-0.650000X0*%
%TD*%
%TA.AperFunction,SMDPad,CuDef*%
%ADD21R,1.500000X0.600000*%
%TD*%
%TA.AperFunction,SMDPad,CuDef*%
%ADD22R,2.100000X3.300000*%
%TD*%
%TA.AperFunction,SMDPad,CuDef*%
%ADD23RoundRect,0.225000X-0.225000X-0.250000X0.225000X-0.250000X0.225000X0.250000X-0.225000X0.250000X0*%
%TD*%
%TA.AperFunction,SMDPad,CuDef*%
%ADD24R,2.000000X2.000000*%
%TD*%
%TA.AperFunction,SMDPad,CuDef*%
%ADD25RoundRect,0.225000X-0.250000X0.225000X-0.250000X-0.225000X0.250000X-0.225000X0.250000X0.225000X0*%
%TD*%
%TA.AperFunction,SMDPad,CuDef*%
%ADD26R,1.900000X4.500000*%
%TD*%
%TA.AperFunction,SMDPad,CuDef*%
%ADD27R,1.500000X0.900000*%
%TD*%
%TA.AperFunction,SMDPad,CuDef*%
%ADD28R,0.900000X1.500000*%
%TD*%
%TA.AperFunction,SMDPad,CuDef*%
%ADD29R,0.900000X0.900000*%
%TD*%
%TA.AperFunction,SMDPad,CuDef*%
%ADD30R,0.530000X0.990000*%
%TD*%
%TA.AperFunction,SMDPad,CuDef*%
%ADD31RoundRect,0.140000X-0.140000X-0.170000X0.140000X-0.170000X0.140000X0.170000X-0.140000X0.170000X0*%
%TD*%
%TA.AperFunction,SMDPad,CuDef*%
%ADD32RoundRect,0.140000X0.140000X0.170000X-0.140000X0.170000X-0.140000X-0.170000X0.140000X-0.170000X0*%
%TD*%
%TA.AperFunction,SMDPad,CuDef*%
%ADD33RoundRect,0.135000X-0.135000X-0.185000X0.135000X-0.185000X0.135000X0.185000X-0.135000X0.185000X0*%
%TD*%
%TA.AperFunction,SMDPad,CuDef*%
%ADD34RoundRect,0.200000X-0.200000X-0.275000X0.200000X-0.275000X0.200000X0.275000X-0.200000X0.275000X0*%
%TD*%
%TA.AperFunction,ViaPad*%
%ADD35C,0.500000*%
%TD*%
%TA.AperFunction,Conductor*%
%ADD36C,0.150000*%
%TD*%
%TA.AperFunction,Conductor*%
%ADD37C,0.200000*%
%TD*%
%TA.AperFunction,Conductor*%
%ADD38C,0.400000*%
%TD*%
G04 APERTURE END LIST*
D10*
%TO.P,R12,1*%
%TO.N,Net-(R12-Pad1)*%
X68760000Y-95700000D03*
%TO.P,R12,2*%
%TO.N,GND*%
X67740000Y-95700000D03*
%TD*%
D11*
%TO.P,J1,1,Pin_1*%
%TO.N,GND*%
X48260000Y-50800000D03*
D12*
%TO.P,J1,2,Pin_2*%
%TO.N,+3V3*%
X48260000Y-53340000D03*
%TO.P,J1,3,Pin_3*%
%TO.N,/GPIO4*%
X48260000Y-55880000D03*
%TO.P,J1,4,Pin_4*%
%TO.N,/GPIO5*%
X48260000Y-58420000D03*
%TO.P,J1,5,Pin_5*%
%TO.N,/GPIO6*%
X48260000Y-60960000D03*
%TO.P,J1,6,Pin_6*%
%TO.N,/GPIO7*%
X48260000Y-63500000D03*
%TO.P,J1,7,Pin_7*%
%TO.N,/GPIO15*%
X48260000Y-66040000D03*
%TO.P,J1,8,Pin_8*%
%TO.N,/GPIO16*%
X48260000Y-68580000D03*
%TO.P,J1,9,Pin_9*%
%TO.N,/GPIO17*%
X48260000Y-71120000D03*
%TO.P,J1,10,Pin_10*%
%TO.N,/GPIO18*%
X48260000Y-73660000D03*
%TO.P,J1,11,Pin_11*%
%TO.N,+3V3*%
X48260000Y-76200000D03*
%TO.P,J1,12,Pin_12*%
%TO.N,GND*%
X48260000Y-78740000D03*
%TO.P,J1,13,Pin_13*%
%TO.N,/GPIO8*%
X48260000Y-81280000D03*
%TO.P,J1,14,Pin_14*%
%TO.N,/GPIO3*%
X48260000Y-83820000D03*
%TO.P,J1,15,Pin_15*%
%TO.N,/GPIO46*%
X48260000Y-86360000D03*
%TO.P,J1,16,Pin_16*%
%TO.N,/GPIO9*%
X48260000Y-88900000D03*
%TO.P,J1,17,Pin_17*%
%TO.N,/GPIO10*%
X48260000Y-91440000D03*
%TO.P,J1,18,Pin_18*%
%TO.N,/GPIO11*%
X48260000Y-93980000D03*
%TO.P,J1,19,Pin_19*%
%TO.N,/GPIO12*%
X48260000Y-96520000D03*
%TO.P,J1,20,Pin_20*%
%TO.N,/GPIO13*%
X48260000Y-99060000D03*
%TO.P,J1,21,Pin_21*%
%TO.N,VBUS*%
X48260000Y-101600000D03*
%TO.P,J1,22,Pin_22*%
%TO.N,GND*%
X48260000Y-104140000D03*
%TD*%
D11*
%TO.P,J2,1,Pin_1*%
%TO.N,GND*%
X71120000Y-50800000D03*
D12*
%TO.P,J2,2,Pin_2*%
%TO.N,+3V3*%
X71120000Y-53340000D03*
%TO.P,J2,3,Pin_3*%
%TO.N,/GPIO1*%
X71120000Y-55880000D03*
%TO.P,J2,4,Pin_4*%
%TO.N,/GPIO2*%
X71120000Y-58420000D03*
%TO.P,J2,5,Pin_5*%
%TO.N,/GPIO43*%
X71120000Y-60960000D03*
%TO.P,J2,6,Pin_6*%
%TO.N,/GPIO44*%
X71120000Y-63500000D03*
%TO.P,J2,7,Pin_7*%
%TO.N,/GPIO42*%
X71120000Y-66040000D03*
%TO.P,J2,8,Pin_8*%
%TO.N,/GPIO41*%
X71120000Y-68580000D03*
%TO.P,J2,9,Pin_9*%
%TO.N,/GPIO40*%
X71120000Y-71120000D03*
%TO.P,J2,10,Pin_10*%
%TO.N,/GPIO39*%
X71120000Y-73660000D03*
%TO.P,J2,11,Pin_11*%
%TO.N,/GPIO38*%
X71120000Y-76200000D03*
%TO.P,J2,12,Pin_12*%
%TO.N,GND*%
X71120000Y-78740000D03*
%TO.P,J2,13,Pin_13*%
%TO.N,/GPIO37*%
X71120000Y-81280000D03*
%TO.P,J2,14,Pin_14*%
%TO.N,/GPIO36*%
X71120000Y-83820000D03*
%TO.P,J2,15,Pin_15*%
%TO.N,/GPIO35*%
X71120000Y-86360000D03*
%TO.P,J2,16,Pin_16*%
%TO.N,/GPIO45*%
X71120000Y-88900000D03*
%TO.P,J2,17,Pin_17*%
%TO.N,/GPIO48*%
X71120000Y-91440000D03*
%TO.P,J2,18,Pin_18*%
%TO.N,/GPIO47*%
X71120000Y-93980000D03*
%TO.P,J2,19,Pin_19*%
%TO.N,/GPIO21*%
X71120000Y-96520000D03*
%TO.P,J2,20,Pin_20*%
%TO.N,/GPIO14*%
X71120000Y-99060000D03*
%TO.P,J2,21,Pin_21*%
%TO.N,VBUS*%
X71120000Y-101600000D03*
%TO.P,J2,22,Pin_22*%
%TO.N,GND*%
X71120000Y-104140000D03*
%TD*%
D13*
%TO.P,USB2,B8,SBU2*%
%TO.N,unconnected-(USB2-SBU2-PadB8)*%
X52850000Y-98260000D03*
%TO.P,USB2,A5,CC1*%
%TO.N,unconnected-(USB2-CC1-PadA5)*%
X53350000Y-98260000D03*
%TO.P,USB2,B7,DN2*%
%TO.N,/D-*%
X53850000Y-98260000D03*
%TO.P,USB2,A6,DP1*%
%TO.N,/D+*%
X54350000Y-98260000D03*
%TO.P,USB2,A7,DN1*%
%TO.N,/D-*%
X54850000Y-98260000D03*
%TO.P,USB2,B6,DP2*%
%TO.N,/D+*%
X55350000Y-98260000D03*
%TO.P,USB2,A8,SBU1*%
%TO.N,unconnected-(USB2-SBU1-PadA8)*%
X55850000Y-98260000D03*
%TO.P,USB2,B5,CC2*%
%TO.N,unconnected-(USB2-CC2-PadB5)*%
X56350000Y-98260000D03*
%TO.P,USB2,A1,GND*%
%TO.N,GND*%
X51250000Y-98260000D03*
%TO.P,USB2,B12,GND*%
X51550000Y-98260000D03*
%TO.P,USB2,A4,VBUS*%
%TO.N,unconnected-(USB2-VBUS-PadA4)*%
X52050000Y-98260000D03*
%TO.P,USB2,B9,VBUS*%
%TO.N,unconnected-(USB2-VBUS-PadB9)*%
X52350000Y-98260000D03*
%TO.P,USB2,B4,VBUS*%
%TO.N,unconnected-(USB2-VBUS-PadB4)*%
X56850000Y-98260000D03*
%TO.P,USB2,A9,VBUS*%
%TO.N,unconnected-(USB2-VBUS-PadA9)*%
X57150000Y-98260000D03*
%TO.P,USB2,B1,GND*%
%TO.N,GND*%
X57650000Y-98260000D03*
%TO.P,USB2,A12,GND*%
X57950000Y-98260000D03*
D14*
%TO.P,USB2,2,SH*%
%TO.N,unconnected-(USB2-SH-Pad2)*%
X58930000Y-103200000D03*
D15*
%TO.P,USB2,1*%
%TO.N,N/C*%
X58930000Y-99020000D03*
%TO.P,USB2,0,SH*%
%TO.N,unconnected-(USB2-SH-Pad0)*%
X50270000Y-99020000D03*
D14*
%TO.P,USB2,3,SH*%
%TO.N,unconnected-(USB2-SH-Pad3)*%
X50270000Y-103200000D03*
D16*
%TO.P,USB2,*%
%TO.N,*%
X51700000Y-99520000D03*
X57500000Y-99520000D03*
%TD*%
D17*
%TO.P,D3,1,K*%
%TO.N,GND*%
X53712500Y-83750000D03*
%TO.P,D3,2,A*%
%TO.N,Net-(D3-A)*%
X55287500Y-83750000D03*
%TD*%
D18*
%TO.P,R3,2*%
%TO.N,Net-(U3-FB)*%
X67375000Y-90750000D03*
%TO.P,R3,1*%
%TO.N,+3V3*%
X69025000Y-90750000D03*
%TD*%
D19*
%TO.P,SW2,1,A*%
%TO.N,unconnected-(SW2-A-Pad1)*%
X61500000Y-73590000D03*
%TO.P,SW2,2,B*%
%TO.N,/GPIO0*%
X68100000Y-73590000D03*
%TO.P,SW2,3,C*%
%TO.N,unconnected-(SW2-C-Pad3)*%
X61500000Y-77290000D03*
%TO.P,SW2,4,D*%
%TO.N,GND*%
X68100000Y-77290000D03*
%TD*%
D20*
%TO.P,C2,1*%
%TO.N,+3V3*%
X55125000Y-88200000D03*
%TO.P,C2,2*%
%TO.N,GND*%
X52175000Y-88200000D03*
%TD*%
D21*
%TO.P,U4,1,VDD*%
%TO.N,Net-(U4-VDD)*%
X61950000Y-81750000D03*
%TO.P,U4,2,CFG2*%
%TO.N,/CFG2*%
X61950000Y-82750000D03*
%TO.P,U4,3,CFG3*%
%TO.N,/CFG3*%
X61950000Y-83750000D03*
%TO.P,U4,4,DP*%
%TO.N,unconnected-(U4-DP-Pad4)*%
X61950000Y-84750000D03*
%TO.P,U4,5,DM*%
%TO.N,unconnected-(U4-DM-Pad5)*%
X61950000Y-85750000D03*
%TO.P,U4,6,CC2*%
%TO.N,/CC2*%
X67950000Y-85750000D03*
%TO.P,U4,7,CC1*%
%TO.N,/CC1*%
X67950000Y-84750000D03*
%TO.P,U4,8,VBUS*%
%TO.N,Net-(U4-VBUS)*%
X67950000Y-83750000D03*
%TO.P,U4,9,CFG1*%
%TO.N,/CFG1*%
X67950000Y-82750000D03*
%TO.P,U4,10,PG*%
%TO.N,/PG*%
X67950000Y-81750000D03*
D22*
%TO.P,U4,11,GND*%
%TO.N,GND*%
X64950000Y-83750000D03*
%TD*%
D23*
%TO.P,C7,1*%
%TO.N,+3V3*%
X57800000Y-87100000D03*
%TO.P,C7,2*%
%TO.N,GND*%
X59350000Y-87100000D03*
%TD*%
D24*
%TO.P,D1,1,K*%
%TO.N,Net-(D1-K)*%
X59250000Y-95250000D03*
%TO.P,D1,2,A*%
%TO.N,GND*%
X59250000Y-90850000D03*
%TD*%
D25*
%TO.P,C4,1*%
%TO.N,Net-(U3-BST)*%
X62240000Y-91295000D03*
%TO.P,C4,2*%
%TO.N,Net-(D1-K)*%
X62240000Y-92845000D03*
%TD*%
D10*
%TO.P,R1,1*%
%TO.N,Net-(U4-VBUS)*%
X68010000Y-88100000D03*
%TO.P,R1,2*%
%TO.N,VBUS*%
X66990000Y-88100000D03*
%TD*%
D26*
%TO.P,L1,1,1*%
%TO.N,Net-(D1-K)*%
X52150000Y-93300000D03*
%TO.P,L1,2,2*%
%TO.N,+3V3*%
X55250000Y-93300000D03*
%TD*%
D27*
%TO.P,U2,1,GND*%
%TO.N,GND*%
X50915000Y-50820000D03*
%TO.P,U2,2,3V3*%
%TO.N,+3V3*%
X50915000Y-52090000D03*
%TO.P,U2,3,EN*%
%TO.N,Net-(SW1-B)*%
X50915000Y-53360000D03*
%TO.P,U2,4,GPIO4/TOUCH4/ADC1_CH3*%
%TO.N,/GPIO4*%
X50915000Y-54630000D03*
%TO.P,U2,5,GPIO5/TOUCH5/ADC1_CH4*%
%TO.N,/GPIO5*%
X50915000Y-55900000D03*
%TO.P,U2,6,GPIO6/TOUCH6/ADC1_CH5*%
%TO.N,/GPIO6*%
X50915000Y-57170000D03*
%TO.P,U2,7,GPIO7/TOUCH7/ADC1_CH6*%
%TO.N,/GPIO7*%
X50915000Y-58440000D03*
%TO.P,U2,8,GPIO15/U0RTS/ADC2_CH4/XTAL_32K_P*%
%TO.N,/GPIO15*%
X50915000Y-59710000D03*
%TO.P,U2,9,GPIO16/U0CTS/ADC2_CH5/XTAL_32K_N*%
%TO.N,/GPIO16*%
X50915000Y-60980000D03*
%TO.P,U2,10,GPIO17/U1TXD/ADC2_CH6*%
%TO.N,/GPIO17*%
X50915000Y-62250000D03*
%TO.P,U2,11,GPIO18/U1RXD/ADC2_CH7/CLK_OUT3*%
%TO.N,/GPIO18*%
X50915000Y-63520000D03*
%TO.P,U2,12,GPIO8/TOUCH8/ADC1_CH7/SUBSPICS1*%
%TO.N,/GPIO8*%
X50915000Y-64790000D03*
%TO.P,U2,13,GPIO19/U1RTS/ADC2_CH8/CLK_OUT2/USB_D-*%
%TO.N,/D-*%
X50915000Y-66060000D03*
%TO.P,U2,14,GPIO20/U1CTS/ADC2_CH9/CLK_OUT1/USB_D+*%
%TO.N,/D+*%
X50915000Y-67330000D03*
D28*
%TO.P,U2,15,GPIO3/TOUCH3/ADC1_CH2*%
%TO.N,/GPIO3*%
X52680000Y-68580000D03*
%TO.P,U2,16,GPIO46*%
%TO.N,/GPIO46*%
X53950000Y-68580000D03*
%TO.P,U2,17,GPIO9/TOUCH9/ADC1_CH8/FSPIHD/SUBSPIHD*%
%TO.N,/GPIO9*%
X55220000Y-68580000D03*
%TO.P,U2,18,GPIO10/TOUCH10/ADC1_CH9/FSPICS0/FSPIIO4/SUBSPICS0*%
%TO.N,/GPIO10*%
X56490000Y-68580000D03*
%TO.P,U2,19,GPIO11/TOUCH11/ADC2_CH0/FSPID/FSPIIO5/SUBSPID*%
%TO.N,/GPIO11*%
X57760000Y-68580000D03*
%TO.P,U2,20,GPIO12/TOUCH12/ADC2_CH1/FSPICLK/FSPIIO6/SUBSPICLK*%
%TO.N,/GPIO12*%
X59030000Y-68580000D03*
%TO.P,U2,21,GPIO13/TOUCH13/ADC2_CH2/FSPIQ/FSPIIO7/SUBSPIQ*%
%TO.N,/GPIO13*%
X60300000Y-68580000D03*
%TO.P,U2,22,GPIO14/TOUCH14/ADC2_CH3/FSPIWP/FSPIDQS/SUBSPIWP*%
%TO.N,/GPIO14*%
X61570000Y-68580000D03*
%TO.P,U2,23,GPIO21*%
%TO.N,/GPIO21*%
X62840000Y-68580000D03*
%TO.P,U2,24,GPIO47/SPICLK_P/SUBSPICLK_P_DIFF*%
%TO.N,/GPIO47*%
X64110000Y-68580000D03*
%TO.P,U2,25,GPIO48/SPICLK_N/SUBSPICLK_N_DIFF*%
%TO.N,/GPIO48*%
X65380000Y-68580000D03*
%TO.P,U2,26,GPIO45*%
%TO.N,/GPIO45*%
X66650000Y-68580000D03*
D27*
%TO.P,U2,27,GPIO0/BOOT*%
%TO.N,/GPIO0*%
X68415000Y-67330000D03*
%TO.P,U2,28,SPIIO6/GPIO35/FSPID/SUBSPID*%
%TO.N,/GPIO35*%
X68415000Y-66060000D03*
%TO.P,U2,29,SPIIO7/GPIO36/FSPICLK/SUBSPICLK*%
%TO.N,/GPIO36*%
X68415000Y-64790000D03*
%TO.P,U2,30,SPIDQS/GPIO37/FSPIQ/SUBSPIQ*%
%TO.N,/GPIO37*%
X68415000Y-63520000D03*
%TO.P,U2,31,GPIO38/FSPIWP/SUBSPIWP*%
%TO.N,/GPIO38*%
X68415000Y-62250000D03*
%TO.P,U2,32,MTCK/GPIO39/CLK_OUT3/SUBSPICS1*%
%TO.N,/GPIO39*%
X68415000Y-60980000D03*
%TO.P,U2,33,MTDO/GPIO40/CLK_OUT2*%
%TO.N,/GPIO40*%
X68415000Y-59710000D03*
%TO.P,U2,34,MTDI/GPIO41/CLK_OUT1*%
%TO.N,/GPIO41*%
X68415000Y-58440000D03*
%TO.P,U2,35,MTMS/GPIO42*%
%TO.N,/GPIO42*%
X68415000Y-57170000D03*
%TO.P,U2,36,U0RXD/GPIO44/CLK_OUT2*%
%TO.N,/GPIO44*%
X68415000Y-55900000D03*
%TO.P,U2,37,U0TXD/GPIO43/CLK_OUT1*%
%TO.N,/GPIO43*%
X68415000Y-54630000D03*
%TO.P,U2,38,GPIO2/TOUCH2/ADC1_CH1*%
%TO.N,/GPIO2*%
X68415000Y-53360000D03*
%TO.P,U2,39,GPIO1/TOUCH1/ADC1_CH0*%
%TO.N,/GPIO1*%
X68415000Y-52090000D03*
%TO.P,U2,40,GND*%
%TO.N,GND*%
X68415000Y-50820000D03*
D29*
%TO.P,U2,41,GND*%
X56765000Y-57140000D03*
X56765000Y-58540000D03*
X56765000Y-59940000D03*
X58165000Y-57140000D03*
X58165000Y-58540000D03*
X58165000Y-59940000D03*
X59565000Y-57140000D03*
X59565000Y-58540000D03*
X59565000Y-59940000D03*
%TD*%
D10*
%TO.P,R11,1*%
%TO.N,/CFG3*%
X60100000Y-83200000D03*
%TO.P,R11,2*%
%TO.N,GND*%
X59080000Y-83200000D03*
%TD*%
%TO.P,R7,1*%
%TO.N,+3V3*%
X57710000Y-80900000D03*
%TO.P,R7,2*%
%TO.N,Net-(D2-A)*%
X56690000Y-80900000D03*
%TD*%
%TO.P,R10,1*%
%TO.N,/CFG2*%
X60110000Y-81850000D03*
%TO.P,R10,2*%
%TO.N,GND*%
X59090000Y-81850000D03*
%TD*%
D30*
%TO.P,U3,6,SW*%
%TO.N,Net-(D1-K)*%
X65900000Y-93300000D03*
%TO.P,U3,5,VIN*%
%TO.N,VBUS*%
X64950000Y-93300000D03*
%TO.P,U3,4,EN*%
X64000000Y-93300000D03*
%TO.P,U3,3,FB*%
%TO.N,Net-(U3-FB)*%
X64000000Y-91000000D03*
%TO.P,U3,2,GND*%
%TO.N,GND*%
X64950000Y-91000000D03*
%TO.P,U3,1,BST*%
%TO.N,Net-(U3-BST)*%
X65900000Y-91000000D03*
%TD*%
D16*
%TO.P,USB1,*%
%TO.N,*%
X61900000Y-99520000D03*
X67700000Y-99520000D03*
D15*
%TO.P,USB1,0,SH*%
%TO.N,unconnected-(USB1-SH-Pad0)*%
X60470000Y-99020000D03*
%TO.P,USB1,1*%
%TO.N,N/C*%
X69130000Y-99020000D03*
D14*
%TO.P,USB1,2,SH*%
%TO.N,unconnected-(USB1-SH-Pad2)*%
X69130000Y-103200000D03*
%TO.P,USB1,3,SH*%
%TO.N,unconnected-(USB1-SH-Pad3)*%
X60470000Y-103200000D03*
D13*
%TO.P,USB1,A1,GND*%
%TO.N,GND*%
X61450000Y-98260000D03*
%TO.P,USB1,A4,VBUS*%
%TO.N,VBUS*%
X62250000Y-98260000D03*
%TO.P,USB1,A5,CC1*%
%TO.N,/CC1*%
X63550000Y-98260000D03*
%TO.P,USB1,A6,DP1*%
%TO.N,unconnected-(USB1-DP1-PadA6)*%
X64550000Y-98260000D03*
%TO.P,USB1,A7,DN1*%
%TO.N,unconnected-(USB1-DN1-PadA7)*%
X65050000Y-98260000D03*
%TO.P,USB1,A8,SBU1*%
%TO.N,unconnected-(USB1-SBU1-PadA8)*%
X66050000Y-98260000D03*
%TO.P,USB1,A9,VBUS*%
%TO.N,VBUS*%
X67350000Y-98260000D03*
%TO.P,USB1,A12,GND*%
%TO.N,GND*%
X68150000Y-98260000D03*
%TO.P,USB1,B1,GND*%
X67850000Y-98260000D03*
%TO.P,USB1,B4,VBUS*%
%TO.N,VBUS*%
X67050000Y-98260000D03*
%TO.P,USB1,B5,CC2*%
%TO.N,/CC2*%
X66550000Y-98260000D03*
%TO.P,USB1,B6,DP2*%
%TO.N,unconnected-(USB1-DP2-PadB6)*%
X65550000Y-98260000D03*
%TO.P,USB1,B7,DN2*%
%TO.N,unconnected-(USB1-DN2-PadB7)*%
X64050000Y-98260000D03*
%TO.P,USB1,B8,SBU2*%
%TO.N,unconnected-(USB1-SBU2-PadB8)*%
X63050000Y-98260000D03*
%TO.P,USB1,B9,VBUS*%
%TO.N,VBUS*%
X62550000Y-98260000D03*
%TO.P,USB1,B12,GND*%
%TO.N,GND*%
X61750000Y-98260000D03*
%TD*%
D31*
%TO.P,C5,1*%
%TO.N,Net-(SW1-B)*%
X58020000Y-71600000D03*
%TO.P,C5,2*%
%TO.N,GND*%
X58980000Y-71600000D03*
%TD*%
D32*
%TO.P,C6,1*%
%TO.N,/GPIO0*%
X61900000Y-71600000D03*
%TO.P,C6,2*%
%TO.N,GND*%
X60940000Y-71600000D03*
%TD*%
D33*
%TO.P,R5,1*%
%TO.N,+3V3*%
X51340000Y-71600000D03*
%TO.P,R5,2*%
%TO.N,Net-(SW1-B)*%
X52360000Y-71600000D03*
%TD*%
%TO.P,R9,1*%
%TO.N,/CFG1*%
X65250000Y-79950000D03*
%TO.P,R9,2*%
%TO.N,VBUS*%
X66270000Y-79950000D03*
%TD*%
D31*
%TO.P,C1,1*%
%TO.N,GND*%
X61400000Y-80150000D03*
%TO.P,C1,2*%
%TO.N,Net-(U4-VDD)*%
X62360000Y-80150000D03*
%TD*%
D33*
%TO.P,R6,1*%
%TO.N,+3V3*%
X67490000Y-71600000D03*
%TO.P,R6,2*%
%TO.N,/GPIO0*%
X68510000Y-71600000D03*
%TD*%
D20*
%TO.P,C3,1*%
%TO.N,VBUS*%
X65575000Y-95600000D03*
%TO.P,C3,2*%
%TO.N,GND*%
X62625000Y-95600000D03*
%TD*%
D31*
%TO.P,C8,1*%
%TO.N,+3V3*%
X61620000Y-88350000D03*
%TO.P,C8,2*%
%TO.N,GND*%
X62580000Y-88350000D03*
%TD*%
D17*
%TO.P,D2,1,K*%
%TO.N,GND*%
X53712500Y-80900000D03*
%TO.P,D2,2,A*%
%TO.N,Net-(D2-A)*%
X55287500Y-80900000D03*
%TD*%
D34*
%TO.P,R4,2*%
%TO.N,Net-(R12-Pad1)*%
X69075000Y-93150000D03*
%TO.P,R4,1*%
%TO.N,Net-(U3-FB)*%
X67425000Y-93150000D03*
%TD*%
D19*
%TO.P,SW1,1,A*%
%TO.N,unconnected-(SW1-A-Pad1)*%
X51870000Y-73590000D03*
%TO.P,SW1,2,B*%
%TO.N,Net-(SW1-B)*%
X58470000Y-73590000D03*
%TO.P,SW1,3,C*%
%TO.N,unconnected-(SW1-C-Pad3)*%
X51870000Y-77290000D03*
%TO.P,SW1,4,D*%
%TO.N,GND*%
X58470000Y-77290000D03*
%TD*%
D33*
%TO.P,R2,1*%
%TO.N,Net-(U4-VDD)*%
X67400000Y-80150000D03*
%TO.P,R2,2*%
%TO.N,VBUS*%
X68420000Y-80150000D03*
%TD*%
D10*
%TO.P,R8,1*%
%TO.N,/GPIO2*%
X57710000Y-83750000D03*
%TO.P,R8,2*%
%TO.N,Net-(D3-A)*%
X56690000Y-83750000D03*
%TD*%
D35*
%TO.N,GND*%
X51250000Y-97100000D03*
X57950000Y-97100000D03*
X61450000Y-97100000D03*
X68150000Y-97100000D03*
%TO.N,VBUS*%
X66850000Y-96850000D03*
%TO.N,GND*%
X59250000Y-89300000D03*
X65650000Y-85050000D03*
X64950000Y-84250000D03*
X59050000Y-81050000D03*
X61400000Y-79400000D03*
X56750000Y-56150000D03*
X64250000Y-85050000D03*
X53700000Y-82850000D03*
X65350000Y-90050000D03*
X62600000Y-94150000D03*
X63250000Y-88350000D03*
X60250000Y-87100000D03*
X53700000Y-80000000D03*
X64800000Y-73800000D03*
X60950000Y-72400000D03*
X53150000Y-88200000D03*
X58450000Y-76350000D03*
%TO.N,+3V3*%
X61850000Y-78300000D03*
X67100000Y-50800000D03*
X52150000Y-52100000D03*
%TO.N,VBUS*%
X63249997Y-93300003D03*
X64149996Y-88600004D03*
%TO.N,Net-(SW1-B)*%
X52850000Y-53350000D03*
X57300000Y-70800000D03*
%TO.N,/GPIO0*%
X66500000Y-73600000D03*
X61800000Y-70550000D03*
X62550000Y-71550000D03*
X60950000Y-67350000D03*
%TO.N,/CFG1*%
X64500000Y-77100000D03*
%TO.N,/CFG3*%
X63300000Y-84250000D03*
%TO.N,/CFG2*%
X64500000Y-81250000D03*
%TO.N,/GPIO4*%
X52150000Y-54650000D03*
%TO.N,/GPIO5*%
X52150000Y-55900000D03*
%TO.N,/GPIO6*%
X52150002Y-57170000D03*
%TO.N,/GPIO7*%
X52150000Y-58440000D03*
%TO.N,/GPIO15*%
X52150000Y-59710000D03*
%TO.N,/GPIO16*%
X52150000Y-60980000D03*
%TO.N,/GPIO17*%
X52800000Y-62250000D03*
%TO.N,/GPIO18*%
X53300000Y-63500000D03*
%TO.N,/GPIO8*%
X53900000Y-64800000D03*
%TO.N,/GPIO3*%
X52700000Y-69750000D03*
%TO.N,/GPIO46*%
X53950000Y-69750000D03*
%TO.N,/GPIO9*%
X55200000Y-69750000D03*
%TO.N,/GPIO10*%
X56500000Y-69750000D03*
%TO.N,/GPIO11*%
X57750000Y-69750000D03*
%TO.N,/GPIO12*%
X59050000Y-69750000D03*
%TO.N,/GPIO13*%
X60300000Y-69750000D03*
%TO.N,/GPIO14*%
X61600000Y-69750000D03*
%TO.N,/GPIO21*%
X62850000Y-69750000D03*
%TO.N,/GPIO47*%
X64100000Y-69750000D03*
%TO.N,/GPIO48*%
X65350000Y-69750000D03*
%TO.N,/GPIO45*%
X65000000Y-77900000D03*
X66650000Y-69750000D03*
%TO.N,/GPIO35*%
X65800000Y-66000000D03*
X65799999Y-77499989D03*
%TO.N,/GPIO36*%
X66150000Y-64750000D03*
X66400000Y-74500000D03*
%TO.N,/GPIO37*%
X66650000Y-63550000D03*
X69900000Y-90450000D03*
X66150004Y-88550000D03*
%TO.N,/GPIO38*%
X67100000Y-62250000D03*
%TO.N,/GPIO39*%
X67100000Y-61000000D03*
%TO.N,/GPIO40*%
X67100000Y-59700000D03*
%TO.N,/GPIO41*%
X67100000Y-58450000D03*
%TO.N,/GPIO42*%
X67100000Y-57150000D03*
%TO.N,/GPIO44*%
X67100000Y-55900000D03*
%TO.N,/GPIO43*%
X67100000Y-54650000D03*
%TO.N,/GPIO2*%
X60150000Y-67350000D03*
X52300000Y-82350000D03*
X67100000Y-53350000D03*
%TO.N,/GPIO1*%
X67100000Y-52100000D03*
%TO.N,/PG*%
X64950000Y-87900000D03*
%TD*%
D36*
%TO.N,Net-(R12-Pad1)*%
X68760000Y-95700000D02*
X69075000Y-95385000D01*
X69075000Y-95385000D02*
X69075000Y-93150000D01*
%TO.N,GND*%
X67740000Y-96690000D02*
X68150000Y-97100000D01*
%TO.N,Net-(R12-Pad1)*%
X68760000Y-95650000D02*
X69160000Y-95250000D01*
%TO.N,GND*%
X67740000Y-95700000D02*
X67740000Y-96690000D01*
%TO.N,Net-(U3-FB)*%
X67425000Y-93150000D02*
X67425000Y-90800000D01*
X64000000Y-91000000D02*
X64000000Y-91700000D01*
X66700000Y-92100000D02*
X67375000Y-91425000D01*
X64000000Y-91700000D02*
X64400000Y-92100000D01*
X64400000Y-92100000D02*
X66700000Y-92100000D01*
X67375000Y-91425000D02*
X67375000Y-90750000D01*
%TO.N,+3V3*%
X69175000Y-90225000D02*
X68200000Y-89250000D01*
%TO.N,Net-(U3-FB)*%
X64000000Y-91500000D02*
X64000000Y-91000000D01*
%TO.N,+3V3*%
X68200000Y-89250000D02*
X62520000Y-89250000D01*
X62520000Y-89250000D02*
X61620000Y-88350000D01*
%TO.N,/GPIO37*%
X68095000Y-88645000D02*
X69900000Y-90450000D01*
X66245004Y-88645000D02*
X68095000Y-88645000D01*
X66150004Y-88550000D02*
X66245004Y-88645000D01*
%TO.N,/CC1*%
X70675000Y-89975000D02*
X69745000Y-89045000D01*
X71699264Y-89975000D02*
X70675000Y-89975000D01*
X63550000Y-98260000D02*
X63550000Y-99060000D01*
X72500000Y-90775736D02*
X71699264Y-89975000D01*
X72500000Y-99800000D02*
X72500000Y-90775736D01*
X69615990Y-100525000D02*
X71775000Y-100525000D01*
%TO.N,/CC2*%
X71575000Y-90275000D02*
X70425000Y-90275000D01*
%TO.N,/CC1*%
X65190000Y-100700000D02*
X69440990Y-100700000D01*
X63550000Y-99060000D02*
X65190000Y-100700000D01*
X69745000Y-89045000D02*
X69745000Y-86095000D01*
%TO.N,/CC2*%
X72200000Y-99650000D02*
X72200000Y-90900000D01*
X66550000Y-98260000D02*
X66550000Y-99365606D01*
X69400000Y-89250000D02*
X69400000Y-87200000D01*
X66550000Y-99365606D02*
X67584394Y-100400000D01*
X71625000Y-100225000D02*
X72200000Y-99650000D01*
X67584394Y-100400000D02*
X69316726Y-100400000D01*
X69316726Y-100400000D02*
X69491726Y-100225000D01*
X69491726Y-100225000D02*
X71625000Y-100225000D01*
X72200000Y-90900000D02*
X71575000Y-90275000D01*
%TO.N,/CC1*%
X69745000Y-86095000D02*
X68400000Y-84750000D01*
%TO.N,/CC2*%
X70425000Y-90275000D02*
X69400000Y-89250000D01*
%TO.N,/CC1*%
X69440990Y-100700000D02*
X69615990Y-100525000D01*
X71775000Y-100525000D02*
X72500000Y-99800000D01*
%TO.N,/CC2*%
X69400000Y-87200000D02*
X67950000Y-85750000D01*
D37*
%TO.N,/D-*%
X50805026Y-96150000D02*
X49800000Y-95144974D01*
X49800000Y-66875000D02*
X50615000Y-66060000D01*
X53850000Y-97410000D02*
X52590000Y-96150000D01*
X49800000Y-95144974D02*
X49800000Y-66875000D01*
X53850000Y-98260000D02*
X53850000Y-97410000D01*
X52590000Y-96150000D02*
X50805026Y-96150000D01*
%TO.N,/D+*%
X54350000Y-98260000D02*
X54350000Y-97410000D01*
X52740000Y-95800000D02*
X50950000Y-95800000D01*
X54350000Y-97410000D02*
X52740000Y-95800000D01*
X50950000Y-95800000D02*
X50150000Y-95000000D01*
X50150000Y-95000000D02*
X50150000Y-68095000D01*
X50150000Y-68095000D02*
X50915000Y-67330000D01*
X54350000Y-97410000D02*
X54400000Y-97360000D01*
X55300000Y-97360000D02*
X55350000Y-97410000D01*
X54400000Y-97360000D02*
X55300000Y-97360000D01*
X55350000Y-97410000D02*
X55350000Y-98260000D01*
%TO.N,/D-*%
X53850000Y-98260000D02*
X53850000Y-99060000D01*
X54850000Y-99110000D02*
X54850000Y-98260000D01*
X53850000Y-99060000D02*
X53950000Y-99160000D01*
X54800000Y-99160000D02*
X54850000Y-99110000D01*
X53950000Y-99160000D02*
X54800000Y-99160000D01*
D38*
%TO.N,GND*%
X51250000Y-98260000D02*
X51250000Y-97100000D01*
X57950000Y-98260000D02*
X57950000Y-97100000D01*
X61450000Y-98260000D02*
X61450000Y-97100000D01*
%TO.N,VBUS*%
X62250000Y-98260000D02*
X62250000Y-97600000D01*
X62250000Y-97600000D02*
X63000000Y-96850000D01*
X63000000Y-96850000D02*
X66850000Y-96850000D01*
X67350000Y-98260000D02*
X67350000Y-97350000D01*
X67350000Y-97350000D02*
X66850000Y-96850000D01*
%TO.N,GND*%
X68150000Y-98260000D02*
X68150000Y-97100000D01*
D36*
%TO.N,Net-(D1-K)*%
X65400000Y-92550000D02*
X65900000Y-93050000D01*
X62535000Y-92550000D02*
X65400000Y-92550000D01*
%TO.N,VBUS*%
X63250000Y-93300000D02*
X64000000Y-93300000D01*
X63250000Y-93300000D02*
X63249997Y-93300003D01*
X64000000Y-93300000D02*
X64950000Y-93300000D01*
%TO.N,Net-(U3-BST)*%
X65900000Y-91000000D02*
X65900000Y-89922591D01*
X65900000Y-89922591D02*
X65548409Y-89571000D01*
%TO.N,GND*%
X64950000Y-91000000D02*
X65350000Y-90600000D01*
%TO.N,Net-(U3-BST)*%
X65548409Y-89571000D02*
X63029000Y-89571000D01*
X63029000Y-89571000D02*
X62240000Y-90360000D01*
X62240000Y-90360000D02*
X62240000Y-91295000D01*
%TO.N,GND*%
X65350000Y-90600000D02*
X65350000Y-90050000D01*
%TO.N,VBUS*%
X64950000Y-93300000D02*
X65377500Y-93727500D01*
X65377500Y-93727500D02*
X65377500Y-95402500D01*
D38*
X65600000Y-95600000D02*
X66850000Y-96850000D01*
D36*
X64149996Y-88600004D02*
X64436296Y-88313704D01*
X66960998Y-88070998D02*
X65501593Y-88070998D01*
X65501593Y-88070998D02*
X65151591Y-88421000D01*
X64543592Y-88421000D02*
X64436296Y-88313704D01*
X65151591Y-88421000D02*
X64543592Y-88421000D01*
%TO.N,GND*%
X59040000Y-81850000D02*
X59040000Y-81060000D01*
X62580000Y-88350000D02*
X63250000Y-88350000D01*
X50915000Y-50820000D02*
X48280000Y-50820000D01*
X56765000Y-57140000D02*
X56765000Y-59940000D01*
X53712500Y-80012500D02*
X53700000Y-80000000D01*
X58470000Y-76370000D02*
X58450000Y-76350000D01*
X56765000Y-57140000D02*
X56765000Y-56165000D01*
X68415000Y-50820000D02*
X71100000Y-50820000D01*
X53712500Y-82862500D02*
X53700000Y-82850000D01*
X53712500Y-80900000D02*
X53712500Y-80012500D01*
X53712500Y-83750000D02*
X53712500Y-82862500D01*
X59565000Y-59940000D02*
X59565000Y-57140000D01*
X59350000Y-87100000D02*
X60250000Y-87100000D01*
X59040000Y-81060000D02*
X59050000Y-81050000D01*
X60940000Y-71600000D02*
X60940000Y-72390000D01*
X56765000Y-56165000D02*
X56750000Y-56150000D01*
X68100000Y-77100000D02*
X64800000Y-73800000D01*
X52175000Y-88200000D02*
X53150000Y-88200000D01*
X60940000Y-71600000D02*
X58980000Y-71600000D01*
X58470000Y-77290000D02*
X58470000Y-76370000D01*
X56765000Y-59940000D02*
X59565000Y-59940000D01*
X59080000Y-83200000D02*
X59080000Y-81890000D01*
X62625000Y-94175000D02*
X62600000Y-94150000D01*
X60940000Y-72390000D02*
X60950000Y-72400000D01*
X59565000Y-57140000D02*
X58165000Y-57140000D01*
X62625000Y-95600000D02*
X62625000Y-94175000D01*
X61400000Y-80150000D02*
X61400000Y-79400000D01*
X59250000Y-90850000D02*
X59250000Y-89300000D01*
X58165000Y-57140000D02*
X58165000Y-58540000D01*
%TO.N,Net-(U4-VDD)*%
X61950000Y-81300000D02*
X62360000Y-80890000D01*
X67400000Y-80150000D02*
X66755000Y-80795000D01*
X66755000Y-80795000D02*
X64720736Y-80795000D01*
X62360000Y-80890000D02*
X62360000Y-80150000D01*
X61950000Y-81750000D02*
X61950000Y-81300000D01*
X64075736Y-80150000D02*
X62360000Y-80150000D01*
X64720736Y-80795000D02*
X64075736Y-80150000D01*
%TO.N,+3V3*%
X57800000Y-87100000D02*
X57800000Y-86105000D01*
X54379000Y-64998409D02*
X54379000Y-54201591D01*
X49400000Y-75060000D02*
X49400000Y-54480000D01*
X57200000Y-79700000D02*
X55050000Y-77550000D01*
X48260000Y-76200000D02*
X49400000Y-75060000D01*
X54379000Y-54201591D02*
X52277409Y-52100000D01*
X52150000Y-52100000D02*
X50925000Y-52100000D01*
X64950000Y-71600000D02*
X63850000Y-72700000D01*
X61850000Y-78300000D02*
X58600000Y-78300000D01*
X67490000Y-71600000D02*
X64950000Y-71600000D01*
X49400000Y-54480000D02*
X48260000Y-53340000D01*
X52277409Y-52100000D02*
X52150000Y-52100000D01*
X52290000Y-72550000D02*
X51340000Y-71600000D01*
X57800000Y-86105000D02*
X58205000Y-85700000D01*
X51350000Y-71590000D02*
X51350000Y-68545000D01*
X57755000Y-80945000D02*
X57755000Y-81500000D01*
X63850000Y-77250000D02*
X62800000Y-78300000D01*
X57755000Y-81500000D02*
X58205000Y-81950000D01*
X55050000Y-77550000D02*
X55050000Y-73400000D01*
X58600000Y-78300000D02*
X57200000Y-79700000D01*
X51350000Y-68545000D02*
X51890000Y-68005000D01*
X62800000Y-78300000D02*
X61850000Y-78300000D01*
X55050000Y-73400000D02*
X54200000Y-72550000D01*
X59050000Y-88350000D02*
X61620000Y-88350000D01*
X55250000Y-93300000D02*
X55250000Y-88325000D01*
X57710000Y-80900000D02*
X57710000Y-80210000D01*
X51890000Y-68005000D02*
X51890000Y-67487409D01*
X63850000Y-72700000D02*
X63850000Y-77250000D01*
X54200000Y-72550000D02*
X52290000Y-72550000D01*
X52150000Y-52100000D02*
X65800000Y-52100000D01*
X57710000Y-80210000D02*
X57200000Y-79700000D01*
X51890000Y-67487409D02*
X54379000Y-64998409D01*
X57800000Y-87100000D02*
X59050000Y-88350000D01*
X65800000Y-52100000D02*
X67100000Y-50800000D01*
X56225000Y-87100000D02*
X57800000Y-87100000D01*
X58205000Y-85700000D02*
X58205000Y-81950000D01*
X55125000Y-88200000D02*
X56225000Y-87100000D01*
%TO.N,VBUS*%
X66615000Y-79605000D02*
X67875000Y-79605000D01*
X65725000Y-80495000D02*
X66270000Y-79950000D01*
X63122591Y-87000000D02*
X60950000Y-87000000D01*
X66270000Y-79950000D02*
X66615000Y-79605000D01*
X58505000Y-84555000D02*
X58505000Y-79445000D01*
X64845000Y-80495000D02*
X65725000Y-80495000D01*
X64436296Y-88313704D02*
X63122591Y-87000000D01*
X58505000Y-79445000D02*
X59029000Y-78921000D01*
X63271000Y-78921000D02*
X64845000Y-80495000D01*
X60950000Y-87000000D02*
X58505000Y-84555000D01*
X59029000Y-78921000D02*
X63271000Y-78921000D01*
X67875000Y-79605000D02*
X68420000Y-80150000D01*
%TO.N,Net-(D1-K)*%
X53800000Y-96250000D02*
X56550000Y-96250000D01*
X52150000Y-94600000D02*
X53800000Y-96250000D01*
X56550000Y-96250000D02*
X57550000Y-95250000D01*
X59835000Y-95250000D02*
X62240000Y-92845000D01*
X57550000Y-95250000D02*
X59250000Y-95250000D01*
%TO.N,Net-(SW1-B)*%
X58470000Y-72050000D02*
X58020000Y-71600000D01*
X58020000Y-71600000D02*
X52360000Y-71600000D01*
X56500000Y-71600000D02*
X57300000Y-70800000D01*
X52250000Y-53350000D02*
X52240000Y-53360000D01*
X58470000Y-73590000D02*
X58470000Y-72050000D01*
X52360000Y-71600000D02*
X56500000Y-71600000D01*
X52240000Y-53360000D02*
X50915000Y-53360000D01*
X52850000Y-53350000D02*
X52250000Y-53350000D01*
%TO.N,/GPIO0*%
X68100000Y-73590000D02*
X68100000Y-72010000D01*
X66510000Y-73590000D02*
X68100000Y-73590000D01*
X61900000Y-71600000D02*
X62500000Y-71600000D01*
X61900000Y-70650000D02*
X61800000Y-70550000D01*
X60970000Y-67330000D02*
X68415000Y-67330000D01*
X60950000Y-67350000D02*
X60970000Y-67330000D01*
X62500000Y-71600000D02*
X62550000Y-71550000D01*
X61900000Y-71600000D02*
X61900000Y-70650000D01*
X66500000Y-73600000D02*
X66510000Y-73590000D01*
X68100000Y-72010000D02*
X68510000Y-71600000D01*
%TO.N,Net-(U4-VBUS)*%
X67500000Y-83750000D02*
X66975000Y-84275000D01*
X68010000Y-87360000D02*
X68010000Y-88100000D01*
X66975000Y-84275000D02*
X66975000Y-86325000D01*
X66975000Y-86325000D02*
X68010000Y-87360000D01*
%TO.N,/CFG1*%
X65895000Y-79305000D02*
X68404117Y-79305000D01*
X65250000Y-79950000D02*
X65895000Y-79305000D01*
X68404117Y-79305000D02*
X68925000Y-79825883D01*
X64250000Y-77350000D02*
X64500000Y-77100000D01*
X68925000Y-82225000D02*
X68400000Y-82750000D01*
X64250000Y-78950000D02*
X64250000Y-77350000D01*
X68925000Y-79825883D02*
X68925000Y-82225000D01*
X65250000Y-79950000D02*
X64250000Y-78950000D01*
%TO.N,/CFG3*%
X61950000Y-83750000D02*
X60650000Y-83750000D01*
X61950000Y-83750000D02*
X62800000Y-83750000D01*
X60650000Y-83750000D02*
X60100000Y-83200000D01*
X62800000Y-83750000D02*
X63300000Y-84250000D01*
%TO.N,/CFG2*%
X64024264Y-81250000D02*
X64500000Y-81250000D01*
X61950000Y-82750000D02*
X60960000Y-82750000D01*
X62524264Y-82750000D02*
X64024264Y-81250000D01*
X60960000Y-82750000D02*
X60060000Y-81850000D01*
%TO.N,/GPIO4*%
X52150000Y-54650000D02*
X50935000Y-54650000D01*
%TO.N,/GPIO5*%
X50915000Y-55900000D02*
X52150000Y-55900000D01*
%TO.N,/GPIO6*%
X50915000Y-57170000D02*
X52150002Y-57170000D01*
%TO.N,/GPIO7*%
X50915000Y-58440000D02*
X52150000Y-58440000D01*
%TO.N,/GPIO15*%
X50915000Y-59710000D02*
X52150000Y-59710000D01*
%TO.N,/GPIO16*%
X50915000Y-60980000D02*
X52150000Y-60980000D01*
%TO.N,/GPIO17*%
X52800000Y-62250000D02*
X50915000Y-62250000D01*
%TO.N,/GPIO18*%
X50915000Y-63520000D02*
X53280000Y-63520000D01*
X53280000Y-63520000D02*
X53300000Y-63500000D01*
%TO.N,/GPIO8*%
X53900000Y-64800000D02*
X53890000Y-64790000D01*
X53890000Y-64790000D02*
X50915000Y-64790000D01*
%TO.N,/GPIO3*%
X52700000Y-69750000D02*
X52700000Y-68600000D01*
%TO.N,/GPIO46*%
X53950000Y-69750000D02*
X53950000Y-68580000D01*
%TO.N,/GPIO9*%
X55200000Y-69750000D02*
X55200000Y-68600000D01*
%TO.N,/GPIO10*%
X56500000Y-69750000D02*
X56500000Y-68590000D01*
%TO.N,/GPIO11*%
X57760000Y-68580000D02*
X57760000Y-69740000D01*
X57760000Y-69740000D02*
X57750000Y-69750000D01*
%TO.N,/GPIO12*%
X59050000Y-69750000D02*
X59050000Y-68600000D01*
%TO.N,/GPIO13*%
X60300000Y-69750000D02*
X60300000Y-68580000D01*
%TO.N,/GPIO14*%
X61600000Y-69750000D02*
X61600000Y-68610000D01*
%TO.N,/GPIO21*%
X62850000Y-69750000D02*
X62850000Y-68590000D01*
%TO.N,/GPIO47*%
X64100000Y-69750000D02*
X64100000Y-68590000D01*
%TO.N,/GPIO48*%
X65350000Y-69750000D02*
X65350000Y-68610000D01*
%TO.N,/GPIO45*%
X67873381Y-78350000D02*
X65450000Y-78350000D01*
X66650000Y-69750000D02*
X66650000Y-68580000D01*
X70045000Y-87825000D02*
X70045000Y-85395000D01*
X70045000Y-85395000D02*
X69225000Y-84575000D01*
X71120000Y-88900000D02*
X70045000Y-87825000D01*
X69225000Y-79701619D02*
X67873381Y-78350000D01*
X65450000Y-78350000D02*
X65000000Y-77900000D01*
X69225000Y-84575000D02*
X69225000Y-79701619D01*
%TO.N,/GPIO35*%
X67997645Y-78050000D02*
X66350010Y-78050000D01*
X65860000Y-66060000D02*
X65800000Y-66000000D01*
X69700000Y-84625736D02*
X69700000Y-79752355D01*
X71120000Y-86045736D02*
X69700000Y-84625736D01*
X68415000Y-66060000D02*
X65860000Y-66060000D01*
X66350010Y-78050000D02*
X65799999Y-77499989D01*
X69700000Y-79752355D02*
X67997645Y-78050000D01*
%TO.N,/GPIO36*%
X70045000Y-77305280D02*
X70045000Y-82745000D01*
X70045000Y-82745000D02*
X71120000Y-83820000D01*
X66190000Y-64790000D02*
X66150000Y-64750000D01*
X67239720Y-74500000D02*
X70045000Y-77305280D01*
X68415000Y-64790000D02*
X66190000Y-64790000D01*
X66400000Y-74500000D02*
X67239720Y-74500000D01*
%TO.N,/GPIO37*%
X66680000Y-63520000D02*
X66650000Y-63550000D01*
X68415000Y-63520000D02*
X66680000Y-63520000D01*
%TO.N,/GPIO38*%
X68415000Y-62250000D02*
X67100000Y-62250000D01*
%TO.N,/GPIO39*%
X68415000Y-60980000D02*
X67120000Y-60980000D01*
X67120000Y-60980000D02*
X67100000Y-61000000D01*
%TO.N,/GPIO40*%
X68415000Y-59710000D02*
X67110000Y-59710000D01*
X67110000Y-59710000D02*
X67100000Y-59700000D01*
%TO.N,/GPIO41*%
X68415000Y-58440000D02*
X67110000Y-58440000D01*
X67110000Y-58440000D02*
X67100000Y-58450000D01*
%TO.N,/GPIO42*%
X68415000Y-57170000D02*
X67120000Y-57170000D01*
X67120000Y-57170000D02*
X67100000Y-57150000D01*
%TO.N,/GPIO44*%
X68415000Y-55900000D02*
X67100000Y-55900000D01*
%TO.N,/GPIO43*%
X68415000Y-54630000D02*
X67120000Y-54630000D01*
X67120000Y-54630000D02*
X67100000Y-54650000D01*
%TO.N,/GPIO2*%
X56310000Y-82350000D02*
X52300000Y-82350000D01*
X60150000Y-67350000D02*
X66450000Y-61050000D01*
X66450000Y-61050000D02*
X66450000Y-54000000D01*
X66450000Y-54000000D02*
X67100000Y-53350000D01*
X57710000Y-83750000D02*
X56310000Y-82350000D01*
X68415000Y-53360000D02*
X67110000Y-53360000D01*
X67110000Y-53360000D02*
X67100000Y-53350000D01*
%TO.N,/GPIO1*%
X68415000Y-52090000D02*
X67110000Y-52090000D01*
X67110000Y-52090000D02*
X67100000Y-52100000D01*
%TO.N,/PG*%
X67500000Y-81750000D02*
X66550000Y-82700000D01*
X66550000Y-86300000D02*
X64950000Y-87900000D01*
X66550000Y-82700000D02*
X66550000Y-86300000D01*
%TO.N,Net-(D2-A)*%
X56690000Y-80900000D02*
X55287500Y-80900000D01*
%TO.N,Net-(D3-A)*%
X56690000Y-83750000D02*
X55287500Y-83750000D01*
%TD*%
M02*
